<svg xmlns="http://www.w3.org/2000/svg" id="Layer_1" data-name="Layer 1" viewBox="0 0 190 150"><defs><style>.cls-1,.cls-5{fill:#f79808;}.cls-2,.cls-6{fill:none;stroke-linecap:round;stroke-linejoin:round;}.cls-2,.cls-3{stroke:#1d1d1b;}.cls-3{fill:#fff;}.cls-3,.cls-5{stroke-miterlimit:10;}.cls-4{fill:#fa3154;}.cls-5{stroke:#f39200;}.cls-6{stroke:#fff;}</style></defs><polygon class="cls-1" points="83.83 67.11 65.9 24.69 49.45 32.73 41.41 49.18 83.83 67.11"></polygon><polygon class="cls-2" points="46.43 41.51 54.47 25.06 70.92 17.02 63.66 34.25 46.43 41.51"></polygon><polyline class="cls-2" points="70.92 17.02 88.85 59.44 63.66 34.25 70.92 17.02"></polyline><polyline class="cls-2" points="46.43 41.51 88.85 59.44 63.66 34.25 46.43 41.51"></polyline><rect class="cls-3" x="53.32" y="42.07" width="82.58" height="16.14" rx="3.8"></rect><rect class="cls-4" x="53.32" y="62.52" width="82.58" height="16.14" rx="3.8"></rect><rect class="cls-3" x="53.32" y="81.46" width="82.58" height="32.28" rx="5.37"></rect><path class="cls-2" d="M72.53,47.82l-4.21,4.33a.91.91,0,0,1-1.35,0l-4.21-4.33"></path><rect class="cls-5" x="53.32" y="117.79" width="82.58" height="16.14" rx="3.8"></rect><path class="cls-6" d="M72.53,123.54l-4.21,4.33a.91.91,0,0,1-1.35,0l-4.21-4.33"></path><path class="cls-6" d="M72.53,68.32l-4.21,4.33a.91.91,0,0,1-1.35,0l-4.21-4.33"></path><path class="cls-5" d="M131.37,61.12l.32-2c1-6.26,5.59-9,10.38-11.49,4.46-2.41,8.71-4.94,9.6-10.52,1-6.49-2.65-12.25-9.68-13.38a11.91,11.91,0,0,0-13.74,10l-5.35-.86A17.09,17.09,0,0,1,142.8,18.7c10.46,1.68,15.81,9.83,14.32,19.14-1.27,7.86-6.93,10.95-12,13.59-4.77,2.36-7.85,4.45-8.5,8.5l-.32,2ZM128,69.58a4.83,4.83,0,0,1,9.54,1.53A4.83,4.83,0,1,1,128,69.58Z"></path></svg>