<?xml version="1.0" encoding="utf-8"?>
<!-- Generator: Adobe Illustrator 26.0.3, SVG Export Plug-In . SVG Version: 6.00 Build 0)  -->
<svg version="1.1" id="Layer_1" xmlns="http://www.w3.org/2000/svg" xmlns:xlink="http://www.w3.org/1999/xlink" x="0px" y="0px"
	 viewBox="0 0 190 130" style="enable-background:new 0 0 190 130;" xml:space="preserve">
<style type="text/css">
	.st0{fill:#FDC021;}
	.st1{fill:#FFCA05;}
	.st2{fill:#FFFFFF;}
	.st3{fill:#8A12FF;stroke:#000000;stroke-width:3.3314;stroke-miterlimit:10;}
	.st4{fill:none;stroke:#000000;stroke-width:3.3314;stroke-linecap:round;stroke-linejoin:round;stroke-miterlimit:10;}
</style>
<g>
	<path class="st0" d="M157.5,41.1c0-1.4-1.1-2.6-2.6-2.6s-2.6,1.1-2.6,2.6c0,1.4,1.1,2.6,2.6,2.6C156.4,43.8,157.5,42.5,157.5,41.1z
		"/>
	<path class="st0" d="M157.5,53.7c0-1.4-1.1-2.6-2.6-2.6s-2.6,1.1-2.6,2.6c0,1.4,1.1,2.6,2.6,2.6S157.5,55.2,157.5,53.7z"/>
	<circle class="st0" cx="142.1" cy="28.6" r="2.6"/>
	<circle class="st0" cx="142.1" cy="41.1" r="2.6"/>
	<path class="st0" d="M144.7,53.7c0-1.4-1.1-2.6-2.6-2.6c-1.4,0-2.6,1.1-2.6,2.6c0,1.4,1.1,2.6,2.6,2.6S144.7,55.2,144.7,53.7z"/>
	<circle class="st0" cx="142.1" cy="66.2" r="2.6"/>
	<circle class="st0" cx="129.3" cy="28.6" r="2.6"/>
	<circle class="st0" cx="129.3" cy="41.1" r="2.6"/>
	<path class="st0" d="M131.9,53.7c0-1.4-1.1-2.6-2.6-2.6c-1.4,0-2.6,1.1-2.6,2.6c0,1.4,1.1,2.6,2.6,2.6
		C130.7,56.3,131.9,55.2,131.9,53.7z"/>
	<circle class="st0" cx="129.3" cy="66.2" r="2.6"/>
	<circle class="st0" cx="116.5" cy="28.6" r="2.6"/>
</g>
<g>
	<g>
		<circle class="st1" cx="63.3" cy="62.7" r="56.2"/>
		<path d="M63.3,8.4c30,0,54.2,24.3,54.2,54.2s-24.3,54.2-54.2,54.2S9.1,92.6,9.1,62.7S33.4,8.4,63.3,8.4 M63.3,4.4
			C31.2,4.4,5.1,30.5,5.1,62.7s26.1,58.2,58.2,58.2s58.2-26.1,58.2-58.2S95.4,4.4,63.3,4.4L63.3,4.4z"/>
	</g>
	<g>
		<path class="st2" d="M63.3,96.3c-5.3,0-9.6-4.3-9.6-9.6V72.2H39.2c-5.3,0-9.6-4.3-9.6-9.6s4.3-9.6,9.6-9.6h14.6V38.5
			c0-5.3,4.3-9.6,9.6-9.6s9.6,4.3,9.6,9.6v14.6h14.6c5.3,0,9.6,4.3,9.6,9.6s-4.3,9.6-9.6,9.6H72.9v14.6C72.9,92,68.6,96.3,63.3,96.3
			z"/>
		<path d="M63.3,31c4.2,0,7.6,3.4,7.6,7.6v16.6h16.6c4.2,0,7.6,3.4,7.6,7.6s-3.4,7.6-7.6,7.6H70.9v16.6c0,4.2-3.4,7.6-7.6,7.6h0
			c-4.2,0-7.6-3.4-7.6-7.6V70.2H39.2c-4.2,0-7.6-3.4-7.6-7.6s3.4-7.6,7.6-7.6h16.6V38.5C55.8,34.4,59.2,31,63.3,31L63.3,31 M63.3,27
			c-6.4,0-11.6,5.2-11.6,11.6v12.6H39.2c-6.4,0-11.6,5.2-11.6,11.6s5.2,11.6,11.6,11.6h12.6v12.6c0,6.4,5.2,11.6,11.6,11.6
			c6.4,0,11.6-5.2,11.6-11.6V74.2h12.6C93.8,74.2,99,69,99,62.7s-5.2-11.6-11.6-11.6H74.9V38.5C74.9,32.2,69.7,27,63.3,27L63.3,27z"
			/>
	</g>
</g>
<g>
	<path class="st3" d="M162.3,81.5l-5,21.2c-0.5,2.3-2.4,3.8-4.8,3.8h-36.7c-1.2,0-2.4-0.4-3.5-1.1c-1.5-1-2.6-2.6-3.1-4.3l-5.4-19
		c-0.1-0.5-0.3-0.9-0.5-1.4c-1.8-3.9,0.3-7.9,4.3-7.9h47.8C159.6,72.8,163.3,77.4,162.3,81.5z"/>
	<circle class="st4" cx="146.9" cy="117.9" r="5.3"/>
	<circle class="st4" cx="121.1" cy="117.9" r="5.3"/>
	<path class="st4" d="M157.5,102.3l5.5-24.3c0,0,3-16.1,19-16.1"/>
</g>
</svg>
