<?xml version="1.0" encoding="utf-8"?>
<!-- Generator: Adobe Illustrator 26.0.3, SVG Export Plug-In . SVG Version: 6.00 Build 0)  -->
<svg version="1.1" id="Layer_1" xmlns="http://www.w3.org/2000/svg" xmlns:xlink="http://www.w3.org/1999/xlink" x="0px" y="0px"
	 viewBox="0 0 190 130" style="enable-background:new 0 0 190 130;" xml:space="preserve">
<style type="text/css">
	.st0{fill:#FFFFFF;stroke:#1D1D1B;stroke-width:1.23;stroke-miterlimit:10;}
	.st1{fill:#FDE34B;}
	.st2{fill:#AC33E6;}
	.st3{fill:#FFFFFF;stroke:#1D1D1B;stroke-miterlimit:10;}
</style>
<path class="st0" d="M10.5,0.9h169.2c5.4,0,9.7,4.4,9.7,9.7v8.8c0,5.4-4.4,9.7-9.7,9.7H10.5c-5.4,0-9.7-4.4-9.7-9.7v-8.8
	C0.8,5.3,5.2,0.9,10.5,0.9z"/>
<path class="st0" d="M39.4,31.9h111.3c5.4,0,9.7,4.4,9.7,9.7v76.9c0,5.4-4.4,9.7-9.7,9.7H39.4c-5.4,0-9.7-4.4-9.7-9.7V41.6
	C29.7,36.3,34.1,31.9,39.4,31.9z"/>
<path class="st1" d="M10.4,6.4h54.2c2.8,0,5.1,2.3,5.1,5.1V42c0,2.8-2.3,5.1-5.1,5.1H10.4c-2.8,0-5.1-2.3-5.1-5.1V11.4
	C5.4,8.6,7.6,6.4,10.4,6.4z"/>
<path class="st2" d="M139.9,66.6v1.8c0,0.7-0.6,1.4-1.4,1.4H52.4c-0.8,0-1.4-0.6-1.4-1.4v-1.8c0-0.7,0.6-1.4,1.4-1.4h86.1
	C139.3,65.2,139.9,65.8,139.9,66.6z"/>
<path class="st2" d="M139.9,84.9v1.8c0,0.7-0.6,1.4-1.4,1.4H52.4c-0.8,0-1.4-0.6-1.4-1.4v-1.8c0-0.7,0.6-1.4,1.4-1.4h86.1
	C139.3,83.6,139.9,84.2,139.9,84.9z"/>
<path class="st2" d="M139.9,103.3v1.8c0,0.7-0.6,1.4-1.4,1.4H52.4c-0.8,0-1.4-0.6-1.4-1.4v-1.8c0-0.7,0.6-1.4,1.4-1.4h86.1
	C139.3,101.9,139.9,102.5,139.9,103.3z"/>
<circle class="st1" cx="10" cy="100.9" r="2.5"/>
<circle class="st1" cx="21.9" cy="100.9" r="2.5"/>
<circle class="st1" cx="33.8" cy="100.9" r="2.5"/>
<circle class="st1" cx="45.8" cy="100.9" r="2.5"/>
<circle class="st1" cx="10" cy="113" r="2.5"/>
<circle class="st1" cx="21.9" cy="113" r="2.5"/>
<circle class="st1" cx="33.8" cy="113" r="2.5"/>
<circle class="st1" cx="45.8" cy="113" r="2.5"/>
<path class="st3" d="M116,41.7l12.6,12.6l0,0l0,0c0.4,0.4,1,0.4,1.4,0l0,0l12.6-12.6c0.4-0.4,0.4-1,0-1.4l-1.8-1.8
	c-0.4-0.4-1-0.4-1.4,0l0,0l-10.1,10.1l-10.2-10.2c-0.4-0.4-1-0.4-1.4,0l0,0l-1.8,1.8C115.6,40.7,115.6,41.3,116,41.7z"/>
<path class="st2" d="M116,29.5l12.6,12.6l0,0l0,0c0.4,0.4,1,0.4,1.4,0l12.6-12.6c0.4-0.4,0.4-1,0-1.4l-1.8-1.8c-0.4-0.4-1-0.4-1.4,0
	l-10.1,10.1l-10.2-10.2c-0.4-0.4-1-0.4-1.4,0l-1.8,1.8C115.6,28.5,115.6,29.1,116,29.5z"/>
<path class="st1" d="M116,17.3l12.6,12.6l0,0h0c0.4,0.4,1,0.4,1.4,0l12.6-12.6c0.4-0.4,0.4-1,0-1.4l-1.8-1.8c-0.4-0.4-1-0.4-1.4,0
	l-10.2,10.1l-10.2-10.2c-0.4-0.4-1-0.4-1.4,0l-1.8,1.8C115.6,16.3,115.6,16.9,116,17.3L116,17.3z"/>
</svg>
