<svg xmlns="http://www.w3.org/2000/svg" id="Layer_1" data-name="Layer 1" viewBox="0 0 160 160"><defs><style>.cls-1{fill:#389c48;}.cls-1,.cls-3,.cls-4{stroke:#1d1d1b;stroke-miterlimit:10;}.cls-2{fill:#fff;}.cls-3{fill:#e92f2e;}.cls-4{fill:#fdc021;}</style></defs><rect class="cls-1" x="16.85" y="64.88" width="127.29" height="23.65" rx="5.71"></rect><polygon class="cls-2" points="133.79 79.1 131.4 76.7 133.79 74.31 132.97 73.49 130.57 75.88 128.18 73.49 127.36 74.31 129.75 76.7 127.36 79.1 128.18 79.92 130.57 77.53 132.97 79.92 133.79 79.1"></polygon><rect class="cls-3" x="30" y="98.14" width="101.94" height="18.94" rx="4.57"></rect><polygon class="cls-2" points="123.65 109.53 121.74 107.61 123.65 105.7 122.99 105.04 121.08 106.95 119.16 105.04 118.5 105.7 120.42 107.61 118.5 109.53 119.16 110.19 121.08 108.27 122.99 110.19 123.65 109.53"></polygon><rect class="cls-4" x="30" y="44.29" width="72.99" height="13.56" rx="3.27"></rect><polygon class="cls-2" points="97.06 52.45 95.69 51.08 97.06 49.7 96.59 49.23 95.22 50.6 93.85 49.23 93.38 49.7 94.75 51.08 93.38 52.45 93.85 52.92 95.22 51.55 96.59 52.92 97.06 52.45"></polygon></svg>