<?xml version="1.0" encoding="utf-8"?>
<!-- Generator: Adobe Illustrator 26.0.3, SVG Export Plug-In . SVG Version: 6.00 Build 0)  -->
<svg version="1.1" id="Layer_1" xmlns="http://www.w3.org/2000/svg" xmlns:xlink="http://www.w3.org/1999/xlink" x="0px" y="0px"
	 viewBox="0 0 190 130" style="enable-background:new 0 0 190 130;" xml:space="preserve">
<style type="text/css">
	.st0{fill:#FFFABD;stroke:#1D1D1B;stroke-width:0.5;stroke-miterlimit:10;}
	.st1{fill:#383838;stroke:#1D1D1B;stroke-width:0.5;stroke-miterlimit:10;}
	.st2{fill:#595959;stroke:#1D1D1B;stroke-width:0.5;stroke-miterlimit:10;}
</style>
<g>
	<g>
		<path class="st0" d="M72.9,2h64.5c2.6-0.2,4.8,1.5,4.8,3.5v120c0,2-2.2,3.5-4.8,3.5H52.9c-2.7,0-4.8-1.6-4.8-3.5V25.2"/>
	</g>
	<g>
		<path class="st1" d="M73.2,1.8L73.3,22c0,2-2.2,3.5-4.8,3.5H47.8"/>
	</g>
</g>
<g>
	<path class="st1" d="M107.4,50.3h-8.5v24.2c0,1.6-0.4,2.8-1.1,3.6c-0.7,0.8-1.6,1.2-2.8,1.2s-2.1-0.4-2.8-1.2s-1-2-1-3.6V50.3h-8.5
		c-1.3,0-2.3-0.2-3-0.9c-0.6-0.6-0.9-1.3-0.9-2.3c0-1,0.3-1.8,1-2.3c0.7-0.6,1.6-0.9,3-0.9h24.7c1.3,0,2.3,0.3,3,0.9
		c0.6,0.6,0.9,1.4,0.9,2.3s-0.3,1.7-1,2.3C109.7,50,108.7,50.3,107.4,50.3z"/>
</g>
<g>
	<g>
		<path class="st2" d="M107.9,90.5h7.9c1.6,0,3,1.3,3,3v7.9c0,1.6-1.3,3-3,3h-7.9c-1.6,0-3-1.3-3-3v-7.9
			C104.9,91.8,106.2,90.5,107.9,90.5z"/>
	</g>
	<g>
		<path class="st2" d="M91,90.5h7.9c1.6,0,3,1.3,3,3v7.9c0,1.6-1.3,3-3,3H91c-1.6,0-3-1.3-3-3v-7.9C88.1,91.8,89.4,90.5,91,90.5z"/>
	</g>
	<g>
		<path class="st2" d="M74.2,90.5H82c1.6,0,3,1.3,3,3v7.9c0,1.6-1.3,3-3,3h-7.9c-1.6,0-3-1.3-3-3v-7.9
			C71.2,91.8,72.5,90.5,74.2,90.5z"/>
	</g>
	<g>
		<path class="st2" d="M107.9,106.9h7.9c1.6,0,3,1.3,3,3v7.9c0,1.6-1.3,3-3,3h-7.9c-1.6,0-3-1.3-3-3v-7.9
			C104.9,108.2,106.2,106.9,107.9,106.9z"/>
	</g>
	<g>
		<path class="st2" d="M91,106.9h7.9c1.6,0,3,1.3,3,3v7.9c0,1.6-1.3,3-3,3H91c-1.6,0-3-1.3-3-3v-7.9C88.1,108.2,89.4,106.9,91,106.9
			z"/>
	</g>
	<g>
		<path class="st2" d="M74.2,106.9H82c1.6,0,3,1.3,3,3v7.9c0,1.6-1.3,3-3,3h-7.9c-1.6,0-3-1.3-3-3v-7.9
			C71.2,108.2,72.5,106.9,74.2,106.9z"/>
	</g>
</g>
</svg>
