<svg xmlns="http://www.w3.org/2000/svg" id="Layer_1" data-name="Layer 1" viewBox="0 0 160 160"><defs><style>.cls-1{fill:#e30613;}.cls-2{fill:#fdc021;}.cls-3,.cls-8{fill:none;}.cls-3{stroke:#e30613;stroke-width:3px;}.cls-3,.cls-4{stroke-miterlimit:10;}.cls-4{fill:#fff;}.cls-4,.cls-8{stroke:#1d1d1b;}.cls-5{fill:#389c48;}.cls-6{fill:#ac33e6;}.cls-7{fill:#40d1e6;}.cls-8{stroke-linecap:round;stroke-linejoin:round;}</style></defs><circle class="cls-1" cx="15.01" cy="47.67" r="1.28"></circle><circle class="cls-1" cx="21.14" cy="47.67" r="1.28"></circle><circle class="cls-1" cx="27.26" cy="47.67" r="1.28"></circle><circle class="cls-1" cx="33.38" cy="47.67" r="1.28"></circle><circle class="cls-1" cx="15.01" cy="53.92" r="1.28"></circle><circle class="cls-1" cx="21.14" cy="53.92" r="1.28"></circle><circle class="cls-1" cx="27.26" cy="53.92" r="1.28"></circle><circle class="cls-1" cx="33.38" cy="53.92" r="1.28"></circle><circle class="cls-1" cx="15.01" cy="60.17" r="1.28"></circle><circle class="cls-1" cx="21.14" cy="60.17" r="1.28"></circle><circle class="cls-1" cx="27.26" cy="60.17" r="1.28"></circle><circle class="cls-1" cx="33.38" cy="60.17" r="1.28"></circle><circle class="cls-1" cx="15.01" cy="66.42" r="1.28"></circle><circle class="cls-1" cx="21.14" cy="66.42" r="1.28"></circle><circle class="cls-1" cx="27.26" cy="66.42" r="1.28"></circle><circle class="cls-1" cx="33.38" cy="66.42" r="1.28"></circle><circle class="cls-2" cx="131.61" cy="58.3" r="16.28"></circle><circle class="cls-3" cx="128.91" cy="64.61" r="16.28"></circle><rect class="cls-4" x="17.85" y="57.05" width="126.19" height="44.7" rx="7.82"></rect><rect class="cls-5" x="115.68" y="71.41" width="20.71" height="15.98" rx="4.33"></rect><rect class="cls-6" x="26.5" y="71.41" width="20.49" height="15.98" rx="4.32"></rect><rect class="cls-7" x="73.26" y="71.41" width="20.49" height="15.98" rx="4.32"></rect><path class="cls-8" d="M47.93,57.05l16,19.25a4.86,4.86,0,0,1,0,6.2l-16,19.25"></path><path class="cls-8" d="M92.41,57.05,108.29,76.3a4.88,4.88,0,0,1,0,6.2L92.41,101.75"></path></svg>