<?xml version="1.0" encoding="utf-8"?>
<!-- Generator: Adobe Illustrator 26.0.3, SVG Export Plug-In . SVG Version: 6.00 Build 0)  -->
<svg version="1.1" id="Layer_1" xmlns="http://www.w3.org/2000/svg" xmlns:xlink="http://www.w3.org/1999/xlink" x="0px" y="0px"
	 viewBox="0 0 190 130" style="enable-background:new 0 0 190 130;" xml:space="preserve">
<style type="text/css">
	.st0{fill:#02FF89;stroke:#1D1D1B;stroke-width:1.0522;stroke-miterlimit:10;}
	.st1{fill:#00ADC6;stroke:#1D1D1B;stroke-width:1.0522;stroke-miterlimit:10;}
	.st2{fill:#FBFFAA;stroke:#1D1D1B;stroke-width:1.0522;stroke-miterlimit:10;}
	.st3{fill:#FDC021;stroke:#1D1D1B;stroke-width:1.0522;stroke-miterlimit:10;}
	.st4{fill:#02FF89;stroke:#000000;stroke-width:3.3314;stroke-miterlimit:10;}
	.st5{fill:none;stroke:#000000;stroke-width:3.3314;stroke-linecap:round;stroke-linejoin:round;stroke-miterlimit:10;}
	.st6{fill:#FFC200;stroke:#1D1D1B;stroke-width:1.0522;stroke-miterlimit:10;}
</style>
<path class="st0" d="M11,8.6h127.7c2.7,0,4.8,2.2,4.8,4.8v20.3c0,2.7-2.2,4.8-4.8,4.8H11c-2.7,0-4.8-2.2-4.8-4.8V13.4
	C6.2,10.7,8.4,8.6,11,8.6z"/>
<path class="st1" d="M11,41.1h127.7c2.7,0,4.8,2.2,4.8,4.8v10.3c0,2.7-2.2,4.8-4.8,4.8H11c-2.7,0-4.8-2.2-4.8-4.8V45.9
	C6.2,43.2,8.4,41.1,11,41.1z"/>
<path class="st2" d="M11,63.7h127.7c2.7,0,4.8,2.2,4.8,4.8v20.3c0,2.7-2.2,4.8-4.8,4.8H11c-2.7,0-4.8-2.2-4.8-4.8V68.4
	C6.2,65.8,8.4,63.7,11,63.7z"/>
<path class="st3" d="M9.7,96.7h33.7c1.9,0,3.5,1.5,3.5,3.5v7.4c0,1.9-1.5,3.5-3.5,3.5H9.7c-1.9,0-3.5-1.5-3.5-3.5v-7.5
	C6.2,98.2,7.7,96.7,9.7,96.7z"/>
<g>
	<path class="st4" d="M162.3,81.5l-5,21.2c-0.5,2.3-2.4,3.8-4.8,3.8h-36.7c-1.2,0-2.4-0.4-3.5-1.1c-1.5-1-2.6-2.6-3.1-4.3l-5.4-19
		c-0.1-0.5-0.3-0.9-0.5-1.4c-1.8-3.9,0.3-7.9,4.3-7.9h47.8C159.6,72.8,163.3,77.4,162.3,81.5z"/>
	<circle class="st5" cx="146.9" cy="117.9" r="5.3"/>
	<circle class="st5" cx="121.1" cy="117.9" r="5.3"/>
	<path class="st5" d="M157.5,102.3L163,78c0,0,3-16.1,19-16.1"/>
</g>
<circle class="st6" cx="132.6" cy="65" r="21"/>
<g>
	<path d="M133.5,52.9v1.5c1,0.1,1.9,0.3,2.6,0.6c0.7,0.3,1.3,0.8,1.9,1.4c0.4,0.5,0.7,1,1,1.5c0.2,0.5,0.3,1,0.3,1.4
		c0,0.5-0.2,0.9-0.5,1.2c-0.3,0.3-0.8,0.5-1.2,0.5c-0.9,0-1.5-0.5-1.8-1.5c-0.3-1.2-1-1.9-2.2-2.3V63c1.2,0.3,2.1,0.6,2.8,0.9
		c0.7,0.3,1.3,0.6,1.8,1.1c0.6,0.5,1,1.1,1.3,1.8c0.3,0.7,0.5,1.5,0.5,2.3c0,1.1-0.2,2.1-0.7,3c-0.5,0.9-1.2,1.7-2.2,2.3
		c-1,0.6-2.1,0.9-3.5,1v1.3c0,0.5-0.1,0.9-0.2,1.2c-0.1,0.3-0.3,0.4-0.7,0.4c-0.3,0-0.6-0.1-0.7-0.3c-0.1-0.2-0.2-0.5-0.2-0.9v-1.6
		c-1.1-0.1-2-0.4-2.9-0.8c-0.8-0.4-1.5-0.9-2-1.5c-0.5-0.6-0.9-1.2-1.2-1.8c-0.3-0.6-0.4-1.2-0.4-1.9c0-0.4,0.2-0.8,0.5-1.2
		c0.3-0.4,0.8-0.5,1.3-0.5c0.4,0,0.8,0.1,1.1,0.3c0.3,0.2,0.5,0.5,0.6,0.8c0.3,0.8,0.5,1.3,0.7,1.8s0.5,0.8,0.8,1.1
		c0.4,0.3,0.9,0.6,1.5,0.8v-6.5c-1.2-0.3-2.3-0.7-3.1-1.2c-0.8-0.4-1.5-1-2-1.8c-0.5-0.8-0.8-1.8-0.8-3c0-1.6,0.5-2.9,1.5-3.9
		c1-1,2.5-1.6,4.4-1.8v-1.5c0-0.8,0.3-1.2,0.9-1.2C133.2,51.7,133.5,52.1,133.5,52.9z M131.7,62.4v-5.4c-0.8,0.2-1.4,0.5-1.8,0.9
		c-0.4,0.4-0.7,1-0.7,1.7c0,0.7,0.2,1.3,0.6,1.7C130.3,61.8,130.9,62.1,131.7,62.4z M133.5,66.6v6.1c0.9-0.2,1.7-0.6,2.2-1.1
		c0.5-0.6,0.8-1.2,0.8-2c0-0.8-0.2-1.4-0.7-1.9C135.2,67.3,134.5,66.9,133.5,66.6z"/>
</g>
</svg>
