<?xml version="1.0" encoding="utf-8"?>
<!-- Generator: Adobe Illustrator 26.0.3, SVG Export Plug-In . SVG Version: 6.00 Build 0)  -->
<svg version="1.1" id="Layer_1" xmlns="http://www.w3.org/2000/svg" xmlns:xlink="http://www.w3.org/1999/xlink" x="0px" y="0px"
	 viewBox="0 0 190 130" style="enable-background:new 0 0 190 130;" xml:space="preserve">
<style type="text/css">
	.st0{fill:#FFDACC;stroke:#1D1D1B;stroke-width:0.5;stroke-miterlimit:10;}
	.st1{fill:#383838;stroke:#1D1D1B;stroke-width:0.5;stroke-miterlimit:10;}
	.st2{fill:#FFFFFF;stroke:#1D1D1B;stroke-width:1.0692;stroke-miterlimit:10;}
	.st3{fill:#F9C432;}
</style>
<g>
	<g>
		<path class="st0" d="M72.9,2h64.5c2.6-0.2,4.8,1.5,4.8,3.5v120c0,2-2.2,3.5-4.8,3.5H52.9c-2.7,0-4.8-1.6-4.8-3.5V25.2"/>
	</g>
	<g>
		<path class="st1" d="M73.2,1.8L73.3,22c0,2-2.2,3.5-4.8,3.5H47.8"/>
	</g>
</g>
<path d="M113.2,64.7c-1.6,0.4-7-4.5-8.8-4.5c-5.1,0-9.7-1.9-12.6-4.9c8.3-1.2,14.6-7,14.6-14c0-2-0.5-3.9-1.4-5.6
	c8.4,0.2,15.2,5.6,15.2,12.2c0,4.2-2.8,8-6.9,10.2C112.1,58.7,114.6,64.4,113.2,64.7z"/>
<path d="M78.3,58.2c-0.2,0-0.3,0-0.5-0.1c-1.6-0.4-1.2-2.5-0.8-4.5c0.1-0.7,0.4-1.9,0.3-2.3c-4.5-2.5-7.2-6.5-7.2-10.9
	c0-7.3,7.5-13.3,16.7-13.3s16.7,5.9,16.7,13.3S96.2,53.6,87,53.6c-0.5,0-2.5,1.3-3.6,2.1C81,57.3,79.5,58.2,78.3,58.2L78.3,58.2z"/>
<path class="st2" d="M69.9,69.9h50.4c1.4,0,2.6,1.1,2.6,2.6v5.7c0,1.4-1.1,2.6-2.6,2.6H69.9c-1.4,0-2.6-1.1-2.6-2.6v-5.7
	C67.4,71,68.6,69.9,69.9,69.9z"/>
<path class="st3" d="M69.9,83.6h50.4c1.4,0,2.6,1.1,2.6,2.6v5.7c0,1.4-1.1,2.6-2.6,2.6H69.9c-1.4,0-2.6-1.1-2.6-2.6v-5.7
	C67.4,84.7,68.6,83.6,69.9,83.6z"/>
<path class="st2" d="M71,96.4h48.3c2,0,3.6,1.6,3.6,3.6v14.5c0,2-1.6,3.6-3.6,3.6H71c-2,0-3.6-1.6-3.6-3.6V99.9
	C67.4,97.9,69,96.4,71,96.4z"/>
</svg>
