<svg xmlns="http://www.w3.org/2000/svg" id="Layer_1" data-name="Layer 1" viewBox="0 0 160 160"><defs><style>.cls-1{fill:#e2e2e2;}.cls-1,.cls-6{stroke:#1d1d1b;stroke-miterlimit:10;}.cls-2{fill:#1d1d1b;}.cls-3{fill:#e30613;}.cls-4{fill:#e2cc00;}.cls-5{fill:#009640;}.cls-6{fill:#389c48;}</style></defs><rect class="cls-1" x="14.96" y="61.38" width="28.9" height="28.9" rx="3.01"></rect><rect class="cls-1" x="49.75" y="61.38" width="28.9" height="28.9" rx="3.01"></rect><rect class="cls-1" x="84.54" y="61.38" width="28.9" height="28.9" rx="3.01"></rect><rect class="cls-1" x="119.32" y="61.38" width="28.9" height="28.9" rx="3.01"></rect><path class="cls-2" d="M24.21,80.43V73.31a6.49,6.49,0,0,1-2.68,1.52.76.76,0,0,1-.58-.26A.84.84,0,0,1,20.7,74a.67.67,0,0,1,.25-.58,5,5,0,0,1,.88-.49,6.05,6.05,0,0,0,2.52-2,7.84,7.84,0,0,1,.57-.75.71.71,0,0,1,.5-.14.82.82,0,0,1,.67.32,1.44,1.44,0,0,1,.25.88v9c0,1-.36,1.58-1.07,1.58a1,1,0,0,1-.77-.32A1.4,1.4,0,0,1,24.21,80.43Z"></path><path class="cls-2" d="M32.79,79.65h4.08a1.52,1.52,0,0,1,.93.25.81.81,0,0,1,.32.68.88.88,0,0,1-.25.65,1,1,0,0,1-.77.27H31.34a1.29,1.29,0,0,1-.92-.32,1,1,0,0,1-.33-.77,1.79,1.79,0,0,1,.22-.74,2.69,2.69,0,0,1,.46-.74c.69-.72,1.32-1.33,1.88-1.85a11.67,11.67,0,0,1,1.19-1,6.76,6.76,0,0,0,1.07-.91,3.88,3.88,0,0,0,.65-.94,2.22,2.22,0,0,0,.22-.94,1.68,1.68,0,0,0-.24-.9,1.57,1.57,0,0,0-.64-.61,1.87,1.87,0,0,0-.9-.22,1.83,1.83,0,0,0-1.61.9,3.29,3.29,0,0,0-.27.64,2.57,2.57,0,0,1-.41.8.82.82,0,0,1-.68.29.91.91,0,0,1-.65-.26,1,1,0,0,1-.25-.71,2.94,2.94,0,0,1,.24-1.12A3.26,3.26,0,0,1,31.09,71a3.64,3.64,0,0,1,1.22-.77A4.84,4.84,0,0,1,34.05,70a5.06,5.06,0,0,1,2,.37,3.26,3.26,0,0,1,1,.69,3.18,3.18,0,0,1,.65,1,3.23,3.23,0,0,1,.23,1.19A3.32,3.32,0,0,1,37.45,75a5.34,5.34,0,0,1-1,1.25c-.33.3-.89.77-1.67,1.41a11.7,11.7,0,0,0-1.62,1.5A4.34,4.34,0,0,0,32.79,79.65Z"></path><path class="cls-2" d="M63.55,75.88a12.83,12.83,0,0,1-.16,2.21,4.87,4.87,0,0,1-.58,1.67,3.85,3.85,0,0,1-1.37,1.43,3.67,3.67,0,0,1-1.88.5A3.62,3.62,0,0,1,57.43,81,4,4,0,0,1,56,79.15a6.65,6.65,0,0,1-.36-1.43,11.38,11.38,0,0,1-.11-1.7,17,17,0,0,1,.12-2.13,6.72,6.72,0,0,1,.39-1.63,3.78,3.78,0,0,1,1.34-1.72A3.73,3.73,0,0,1,59.5,70a4,4,0,0,1,1.46.26,3.32,3.32,0,0,1,1.15.77A4.42,4.42,0,0,1,63,72.23,8.9,8.9,0,0,1,63.55,75.88Zm-2.14-.15a12.53,12.53,0,0,0-.18-2.35A2.76,2.76,0,0,0,60.65,72a1.4,1.4,0,0,0-1.12-.46,1.46,1.46,0,0,0-1.44,1,9.44,9.44,0,0,0-.4,3.21,14.34,14.34,0,0,0,.17,2.41,3.12,3.12,0,0,0,.58,1.42,1.37,1.37,0,0,0,1.1.48,1.39,1.39,0,0,0,1.13-.5,3.1,3.1,0,0,0,.57-1.43A14.48,14.48,0,0,0,61.41,75.73Z"></path><path class="cls-2" d="M71.73,72H68l-.45,2.53a4.48,4.48,0,0,1,2-.59,3.48,3.48,0,0,1,1.41.28,3.77,3.77,0,0,1,1.15.78,3.75,3.75,0,0,1,1,2.64,4.23,4.23,0,0,1-.51,2.07,3.84,3.84,0,0,1-1.46,1.48,5.06,5.06,0,0,1-4.49,0A3.21,3.21,0,0,1,65.53,80a2.42,2.42,0,0,1-.37-1.17.87.87,0,0,1,.26-.58.83.83,0,0,1,.63-.27,1,1,0,0,1,1,.76,2.65,2.65,0,0,0,.85,1.08,2,2,0,0,0,1.19.39,1.78,1.78,0,0,0,1.05-.31,2,2,0,0,0,.7-.86,2.94,2.94,0,0,0,.25-1.25,2.78,2.78,0,0,0-.27-1.28,1.8,1.8,0,0,0-.71-.8,2,2,0,0,0-1-.26,2,2,0,0,0-1,.17,7.86,7.86,0,0,0-.84.57,1.59,1.59,0,0,1-.89.41,1,1,0,0,1-.69-.28.85.85,0,0,1-.29-.63s0-.2.08-.53l.66-3.75a1.75,1.75,0,0,1,.41-1,1.28,1.28,0,0,1,1-.31h4.13c.81,0,1.22.31,1.22.93a.83.83,0,0,1-.3.66A1.29,1.29,0,0,1,71.73,72Z"></path><path class="cls-2" d="M93.35,79.69h4.09a1.52,1.52,0,0,1,.93.25.84.84,0,0,1,.32.68.88.88,0,0,1-.25.65,1,1,0,0,1-.77.27H91.91a1.23,1.23,0,0,1-.92-.33,1,1,0,0,1-.33-.76,2,2,0,0,1,.21-.75,2.63,2.63,0,0,1,.47-.73c.69-.72,1.31-1.33,1.87-1.85a12.63,12.63,0,0,1,1.2-1,7.24,7.24,0,0,0,1.07-.91,3.88,3.88,0,0,0,.65-.94,2.22,2.22,0,0,0,.22-.94,1.69,1.69,0,0,0-.89-1.52,1.91,1.91,0,0,0-.89-.21,1.85,1.85,0,0,0-1.62.9,4.59,4.59,0,0,0-.26.64,2.57,2.57,0,0,1-.41.8.83.83,0,0,1-.68.29A.89.89,0,0,1,91,74a1,1,0,0,1-.26-.71,2.78,2.78,0,0,1,.25-1.12,3.16,3.16,0,0,1,.72-1.07,3.64,3.64,0,0,1,1.22-.77A4.58,4.58,0,0,1,94.61,70a5.07,5.07,0,0,1,2,.37,3.26,3.26,0,0,1,1,.69,3,3,0,0,1,.64,1,3.13,3.13,0,0,1,.24,1.2A3.33,3.33,0,0,1,98,75a5.33,5.33,0,0,1-1,1.25q-.5.45-1.68,1.41a12.91,12.91,0,0,0-1.61,1.49A3.77,3.77,0,0,0,93.35,79.69Z"></path><path class="cls-2" d="M104.91,80.55V79.09H101a1.59,1.59,0,0,1-1.11-.34,1.16,1.16,0,0,1-.37-.91,1,1,0,0,1,0-.3,1.43,1.43,0,0,1,.17-.32c.07-.12.15-.22.22-.33l.29-.38L104.38,71a5.2,5.2,0,0,1,.67-.79.85.85,0,0,1,.63-.25c.79,0,1.19.45,1.19,1.36v6.06h.34a2.34,2.34,0,0,1,1,.16.71.71,0,0,1,.37.72.75.75,0,0,1-.3.66,1.56,1.56,0,0,1-.89.21h-.48v1.46a1.26,1.26,0,0,1-.27.89.9.9,0,0,1-.71.3.92.92,0,0,1-.71-.31A1.27,1.27,0,0,1,104.91,80.55Zm-3.36-3.21h3.36V72.79Z"></path><path class="cls-2" d="M132.51,72H128.8l-.45,2.54a4.38,4.38,0,0,1,2.05-.6,3.59,3.59,0,0,1,3.33,2.24A3.91,3.91,0,0,1,134,77.6a4.23,4.23,0,0,1-.51,2.07A3.8,3.8,0,0,1,132,81.15a5,5,0,0,1-4.48,0A3.24,3.24,0,0,1,126.31,80a2.51,2.51,0,0,1-.36-1.17.91.91,0,0,1,.89-.85,1,1,0,0,1,1,.76,2.65,2.65,0,0,0,.84,1.08,2,2,0,0,0,1.19.39,1.79,1.79,0,0,0,1.06-.31,2.05,2.05,0,0,0,.7-.86,3.1,3.1,0,0,0,.25-1.25,2.81,2.81,0,0,0-.27-1.28,1.83,1.83,0,0,0-.71-.79,1.89,1.89,0,0,0-1-.27,2.1,2.1,0,0,0-1,.17,9.21,9.21,0,0,0-.83.57,1.58,1.58,0,0,1-.9.41,1,1,0,0,1-.68-.27.86.86,0,0,1-.3-.63s0-.21.09-.54l.66-3.74a1.75,1.75,0,0,1,.41-1,1.27,1.27,0,0,1,1-.31h4.13c.81,0,1.22.31,1.22.93a.81.81,0,0,1-.3.66A1.32,1.32,0,0,1,132.51,72Z"></path><path class="cls-2" d="M141.15,76.36a3.58,3.58,0,0,1-1.16.92,3.11,3.11,0,0,1-1.41.31,3.3,3.3,0,0,1-1.37-.29,3.16,3.16,0,0,1-1.11-.8,3.49,3.49,0,0,1-.71-1.19,4.3,4.3,0,0,1,0-3,3.76,3.76,0,0,1,.8-1.26,3.67,3.67,0,0,1,1.25-.82,4.49,4.49,0,0,1,3.4.07,3.52,3.52,0,0,1,1.33,1.06,5,5,0,0,1,.83,1.77,9.31,9.31,0,0,1,.29,2.41,10.56,10.56,0,0,1-.3,2.65,5.68,5.68,0,0,1-.89,1.92,3.68,3.68,0,0,1-1.4,1.16,4.37,4.37,0,0,1-1.85.38,3.77,3.77,0,0,1-1.76-.39,3,3,0,0,1-1.15-1,2,2,0,0,1-.39-1.11.82.82,0,0,1,.24-.58.8.8,0,0,1,.62-.26,1,1,0,0,1,.62.19,1.23,1.23,0,0,1,.42.58,1.52,1.52,0,0,0,.57.75,1.49,1.49,0,0,0,.9.29,1.69,1.69,0,0,0,.84-.23,2,2,0,0,0,.68-.64A6.24,6.24,0,0,0,141.15,76.36ZM141,74a3.1,3.1,0,0,0-.15-1,2.41,2.41,0,0,0-.41-.78,1.79,1.79,0,0,0-.62-.51,1.66,1.66,0,0,0-.8-.19,1.57,1.57,0,0,0-1.26.64,2.59,2.59,0,0,0-.51,1.68,2.51,2.51,0,0,0,.51,1.66,1.62,1.62,0,0,0,1.31.62,1.86,1.86,0,0,0,.93-.25,2,2,0,0,0,.72-.74A2.36,2.36,0,0,0,141,74Z"></path><circle class="cls-3" cx="70.48" cy="49.71" r="2.97"></circle><circle class="cls-4" cx="81.59" cy="49.71" r="2.97"></circle><circle class="cls-5" cx="92.7" cy="49.71" r="2.97"></circle><rect class="cls-6" x="51.17" y="98.98" width="60.85" height="14.12" rx="3.05"></rect></svg>