<?xml version="1.0" encoding="utf-8"?>
<!-- Generator: Adobe Illustrator 26.0.3, SVG Export Plug-In . SVG Version: 6.00 Build 0)  -->
<svg version="1.1" id="Layer_1" xmlns="http://www.w3.org/2000/svg" xmlns:xlink="http://www.w3.org/1999/xlink" x="0px" y="0px"
	 viewBox="0 0 190 130" style="enable-background:new 0 0 190 130;" xml:space="preserve">
<style type="text/css">
	.st0{fill:#FFDEC2;stroke:#1D1D1B;stroke-width:0.5;stroke-miterlimit:10;}
	.st1{fill:#FCF4BB;stroke:#1D1D1B;stroke-width:0.5;stroke-miterlimit:10;}
	.st2{fill:#FF7900;stroke:#1D1D1B;stroke-width:0.5;stroke-miterlimit:10;}
	.st3{fill:#E2CC00;stroke:#1D1D1B;stroke-width:0.5;stroke-miterlimit:10;}
	.st4{fill:#FF0074;stroke:#1D1D1B;stroke-width:0.5;stroke-miterlimit:10;}
	.st5{fill:#F89B0B;stroke:#1D1D1B;stroke-width:0.4281;stroke-miterlimit:10;}
	.st6{fill:#F89B0B;stroke:#1D1D1B;stroke-width:0.5856;stroke-miterlimit:10;}
	.st7{fill:none;stroke:#FFFFFF;stroke-width:2.0714;stroke-miterlimit:10;}
</style>
<g>
	<g>
		<path class="st0" d="M68.7,30.3h111.4c2,0,3.6,1.6,3.6,3.6v22.9c0,2-1.6,3.6-3.6,3.6H68.7c-2,0-3.6-1.6-3.6-3.6V33.9
			C65.1,32,66.7,30.3,68.7,30.3z"/>
	</g>
	<g>
		<path class="st1" d="M12.7,30.3h46.7c2,0,3.6,1.6,3.6,3.6v22.9c0,2-1.6,3.6-3.6,3.6H12.7c-2,0-3.6-1.6-3.6-3.6V33.9
			C9.1,32,10.6,30.3,12.7,30.3z"/>
	</g>
</g>
<g>
	<g>
		<path class="st2" d="M68.7,62.9h111.4c2,0,3.6,1.6,3.6,3.6v22.9c0,2-1.6,3.6-3.6,3.6H68.7c-2,0-3.6-1.6-3.6-3.6V66.5
			C65.1,64.5,66.7,62.9,68.7,62.9z"/>
	</g>
	<g>
		<path class="st3" d="M12.7,62.9h46.7c2,0,3.6,1.6,3.6,3.6v22.9c0,2-1.6,3.6-3.6,3.6H12.7c-2,0-3.6-1.6-3.6-3.6v-23
			C9.1,64.5,10.6,62.9,12.7,62.9z"/>
	</g>
</g>
<g>
	<g>
		<path class="st0" d="M68.7,95.4l111.4,0c2,0,3.6,1.6,3.6,3.6l0,22.9c0,2-1.6,3.6-3.6,3.6l-111.4,0c-2,0-3.6-1.6-3.6-3.6l0-22.9
			C65.1,97.1,66.7,95.4,68.7,95.4z"/>
	</g>
	<g>
		<path class="st3" d="M12.7,95.4l46.7,0c2,0,3.6,1.6,3.6,3.6l0,22.9c0,2-1.6,3.6-3.6,3.6l-46.7,0c-2,0-3.6-1.6-3.6-3.6l0-22.9
			C9.1,97.1,10.6,95.4,12.7,95.4z"/>
	</g>
</g>
<g>
	<path class="st4" d="M12.2,3.8h168c2,0,3.5,2.2,3.5,4.8v14.6c0,2.7-1.6,4.8-3.5,4.8h-168c-2,0-3.5-2.2-3.5-4.8V8.6
		C8.5,6,10.2,3.8,12.2,3.8z"/>
</g>
<g>
	<polygon class="st5" points="37.1,34.1 33.3,35.7 31.7,39.5 30.1,35.7 26.3,34.1 30.1,32.6 31.7,28.8 33.3,32.6 	"/>
</g>
<g>
	<polygon class="st6" points="28.3,25 23.1,27.2 21,32.4 18.9,27.2 13.6,25 18.8,22.9 21,17.7 23.1,22.9 	"/>
</g>
<g>
	<circle class="st7" cx="150.3" cy="94" r="19.7"/>
	<circle class="st7" cx="150.3" cy="94" r="12.9"/>
	<circle class="st7" cx="150.3" cy="94" r="6"/>
	<circle class="st7" cx="150.3" cy="94" r="27.8"/>
</g>
</svg>
