<svg xmlns="http://www.w3.org/2000/svg" id="Layer_1" data-name="Layer 1" viewBox="0 0 190 150"><defs><style>.cls-1{fill:#e2e2e2;}.cls-2{fill:#fa3154;}.cls-3,.cls-7{fill:#fff;}.cls-3{stroke:#1d1d1b;stroke-miterlimit:10;}.cls-4{fill:#fdc021;}.cls-5{fill:#40d1e6;}.cls-6{fill:#b2b2b2;}.cls-8{fill:#e30613;}</style></defs><rect class="cls-1" x="-0.48" y="95.43" width="79.14" height="5.98" rx="2.99" transform="translate(81.04 1.19) rotate(45)"></rect><rect class="cls-1" x="11.36" y="88.59" width="69.15" height="5.98" rx="2.99" transform="translate(78.21 -5.65) rotate(45)"></rect><rect class="cls-1" x="24.01" y="81.75" width="57.51" height="5.98" rx="2.99" transform="translate(75.38 -12.49) rotate(45)"></rect><rect class="cls-1" x="-3.35" y="109.11" width="57.51" height="5.98" rx="2.99" transform="translate(86.71 14.87) rotate(45)"></rect><rect class="cls-1" x="-2.33" y="102.27" width="69.15" height="5.98" rx="2.99" transform="translate(83.88 8.03) rotate(45)"></rect><circle class="cls-1" cx="60.06" cy="77.46" r="3.22"></circle><circle class="cls-1" cx="17.86" cy="119.65" r="3.22"></circle><rect class="cls-2" x="32.39" y="14.4" width="38.97" height="58.85" rx="4.98"></rect><rect class="cls-3" x="77.35" y="14.4" width="38.97" height="58.85" rx="4.98"></rect><rect class="cls-3" x="122.32" y="14.4" width="38.97" height="58.85" rx="4.98"></rect><rect class="cls-3" x="32.39" y="77.85" width="38.97" height="58.85" rx="4.98"></rect><rect class="cls-4" x="77.35" y="77.85" width="38.97" height="58.85" rx="4.98"></rect><rect class="cls-5" x="122.32" y="77.85" width="38.97" height="58.85" rx="4.98"></rect><rect class="cls-6" x="41.28" y="124.14" width="21.19" height="7" rx="1.27"></rect><rect class="cls-7" x="86.24" y="124.14" width="21.19" height="7" rx="1.27"></rect><rect class="cls-7" x="131.21" y="124.14" width="21.19" height="7" rx="1.27"></rect><circle class="cls-8" cx="152.31" cy="11.75" r="2.19"></circle><circle class="cls-8" cx="162.77" cy="11.75" r="2.19"></circle><circle class="cls-8" cx="141.86" cy="22.42" r="2.19"></circle><circle class="cls-8" cx="152.31" cy="22.42" r="2.19"></circle><circle class="cls-8" cx="162.77" cy="22.42" r="2.19"></circle><circle class="cls-8" cx="173.23" cy="22.42" r="2.19"></circle><circle class="cls-8" cx="141.86" cy="33.1" r="2.19"></circle><circle class="cls-8" cx="152.31" cy="33.1" r="2.19"></circle><circle class="cls-8" cx="162.77" cy="33.1" r="2.19"></circle><circle class="cls-8" cx="173.23" cy="33.1" r="2.19"></circle><circle class="cls-8" cx="152.31" cy="43.77" r="2.19"></circle><circle class="cls-8" cx="162.77" cy="43.77" r="2.19"></circle></svg>