<?xml version="1.0" encoding="utf-8"?>
<!-- Generator: Adobe Illustrator 26.0.3, SVG Export Plug-In . SVG Version: 6.00 Build 0)  -->
<svg version="1.1" id="Layer_1" xmlns="http://www.w3.org/2000/svg" xmlns:xlink="http://www.w3.org/1999/xlink" x="0px" y="0px"
	 viewBox="0 0 190 130" style="enable-background:new 0 0 190 130;" xml:space="preserve">
<style type="text/css">
	.st0{fill:#FFCFAB;stroke:#1D1D1B;stroke-miterlimit:10;}
	.st1{fill:#FF0000;}
	.st2{fill:#FFFF00;}
	.st3{fill:#00FF7F;}
	.st4{fill:#32F944;}
	.st5{fill:#FDC021;}
	.st6{fill:#FFFFFF;stroke:#1D1D1B;stroke-width:0.5;stroke-miterlimit:10;}
	.st7{fill:#9334F7;}
	.st8{fill:#FFFFFF;}
	.st9{fill:#CCA9FF;stroke:#1D1D1B;stroke-width:0.5;stroke-miterlimit:10;}
	.st10{clip-path:url(#SVGID_00000115495990465785806690000010017552575257055675_);}
	.st11{fill:none;stroke:#1D1D1B;stroke-width:0.25;stroke-miterlimit:10;}
	.st12{clip-path:url(#SVGID_00000039099799689683243930000001306814275416037774_);}
	.st13{clip-path:url(#SVGID_00000178904366767667473500000009269900671917095823_);}
</style>
<g>
	<path class="st0" d="M14.1,122.4h161.8c2.8,0,5.1-2.2,5.1-5V12.6c0-2.8-2.3-5-5.1-5H14.1c-2.8,0-5.1,2.2-5.1,5v105
		C9,120.2,11.3,122.4,14.1,122.4z"/>
</g>
<g>
	<circle class="st1" cx="20.4" cy="18.8" r="4.6"/>
	<circle class="st2" cx="35.2" cy="18.8" r="4.6"/>
	<circle class="st3" cx="50" cy="18.8" r="4.6"/>
</g>
<path class="st4" d="M24,90.2V75.7c0-1.4,1.1-2.5,2.5-2.5h62.8c1.4,0,2.5,1.1,2.5,2.5v14.5c0,1.4-1.1,2.5-2.5,2.5H26.4
	C25.1,92.6,24,91.6,24,90.2z"/>
<path class="st5" d="M24,67.7V53.3c0-1.4,1.1-2.5,2.5-2.5h62.8c1.4,0,2.5,1.1,2.5,2.5v14.5c0,1.4-1.1,2.5-2.5,2.5H26.4
	C25.1,70.2,24,69.1,24,67.7z"/>
<path class="st6" d="M24,45.3V30.9c0-1.4,1.1-2.5,2.5-2.5h62.8c1.4,0,2.5,1.1,2.5,2.5v14.5c0,1.4-1.1,2.5-2.5,2.5H26.4
	C25.1,47.8,24,46.7,24,45.3z"/>
<path class="st6" d="M98.3,90.2V75.7c0-1.4,1.1-2.5,2.5-2.5h62.8c1.4,0,2.5,1.1,2.5,2.5v14.5c0,1.4-1.1,2.5-2.5,2.5h-62.8
	C99.4,92.6,98.3,91.6,98.3,90.2z"/>
<path class="st6" d="M98.3,67.7V53.3c0-1.4,1.1-2.5,2.5-2.5h62.8c1.4,0,2.5,1.1,2.5,2.5v14.5c0,1.4-1.1,2.5-2.5,2.5h-62.8
	C99.4,70.2,98.3,69.1,98.3,67.7z"/>
<path class="st7" d="M98.3,45.3V30.9c0-1.4,1.1-2.5,2.5-2.5h62.8c1.4,0,2.5,1.1,2.5,2.5v14.5c0,1.4-1.1,2.5-2.5,2.5h-62.8
	C99.4,47.8,98.3,46.7,98.3,45.3z"/>
<path class="st7" d="M36.1,81.5h-9.3c-0.4,0-0.6-0.3-0.6-0.6v-2.2c0-0.4,0.3-0.6,0.6-0.6h9.3c0.4,0,0.6,0.3,0.6,0.6v2.2
	C36.7,81.2,36.4,81.5,36.1,81.5z"/>
<path class="st5" d="M159.8,65.2v-9.3c0-0.4,0.3-0.6,0.6-0.6h2.2c0.4,0,0.6,0.3,0.6,0.6v9.3c0,0.4-0.3,0.6-0.6,0.6h-2.2
	C160,65.8,159.8,65.5,159.8,65.2z"/>
<path class="st8" d="M154.5,36.4h9.3c0.4,0,0.6,0.3,0.6,0.6v2.2c0,0.4-0.3,0.6-0.6,0.6h-9.3c-0.4,0-0.6-0.3-0.6-0.6V37
	C153.8,36.6,154.2,36.4,154.5,36.4z"/>
<path class="st6" d="M24,112.6V98.1c0-1.4,1.1-2.5,2.5-2.5h62.8c1.4,0,2.5,1.1,2.5,2.5v14.5c0,1.4-1.1,2.5-2.5,2.5H26.4
	C25.1,115,24,113.9,24,112.6z"/>
<path class="st9" d="M98.3,112.6V98.1c0-1.4,1.1-2.5,2.5-2.5h62.8c1.4,0,2.5,1.1,2.5,2.5v14.5c0,1.4-1.1,2.5-2.5,2.5h-62.8
	C99.4,115,98.3,113.9,98.3,112.6z"/>
<path class="st8" d="M154.5,103.6h9.3c0.4,0,0.6,0.3,0.6,0.6v2.2c0,0.4-0.3,0.6-0.6,0.6h-9.3c-0.4,0-0.6-0.3-0.6-0.6v-2.2
	C153.8,103.9,154.2,103.6,154.5,103.6z"/>
<g>
	<g>
		<g>
			<defs>
				<path id="SVGID_1_" d="M28.8,53.7h15.9c0.9,0,1.7,0.8,1.7,1.7v10.3c0,0.9-0.8,1.7-1.7,1.7H28.8c-0.9,0-1.7-0.8-1.7-1.7V55.4
					C27.1,54.4,27.9,53.7,28.8,53.7z"/>
			</defs>
			<clipPath id="SVGID_00000030483056710896714700000003716511807285264515_">
				<use xlink:href="#SVGID_1_"  style="overflow:visible;"/>
			</clipPath>
			<g style="clip-path:url(#SVGID_00000030483056710896714700000003716511807285264515_);">
				<path d="M24.9,68l6.2-6.2c0.5-0.5,1.2-0.5,1.6,0L39,68"/>
				<path d="M30,68l8.2-8.2c0.6-0.6,1.6-0.6,2.2,0l8.2,8.2"/>
				<circle cx="34.5" cy="58.4" r="2"/>
			</g>
		</g>
	</g>
	<path class="st11" d="M28.8,53.7h15.9c0.9,0,1.7,0.8,1.7,1.7v10.3c0,0.9-0.8,1.7-1.7,1.7H28.8c-0.9,0-1.7-0.8-1.7-1.7V55.4
		C27.1,54.4,27.9,53.7,28.8,53.7z"/>
</g>
<g>
	<g>
		<g>
			<defs>
				<path id="SVGID_00000153681182008296633540000016888255187159308454_" d="M102.8,31.3h15.9c0.9,0,1.7,0.8,1.7,1.7v10.3
					c0,0.9-0.8,1.7-1.7,1.7h-15.9c-0.9,0-1.7-0.8-1.7-1.7V33C101.1,32,101.8,31.3,102.8,31.3z"/>
			</defs>
			<clipPath id="SVGID_00000024724430073848699530000000875521675663421578_">
				<use xlink:href="#SVGID_00000153681182008296633540000016888255187159308454_"  style="overflow:visible;"/>
			</clipPath>
			<g style="clip-path:url(#SVGID_00000024724430073848699530000000875521675663421578_);">
				<path d="M98.8,45.6l6.2-6.2c0.5-0.5,1.2-0.5,1.6,0l6.2,6.2"/>
				<path d="M104,45.6l8.2-8.2c0.6-0.6,1.6-0.6,2.2,0l8.2,8.2"/>
				<circle cx="108.4" cy="36" r="2"/>
			</g>
		</g>
	</g>
	<path class="st11" d="M102.8,31.3h15.9c0.9,0,1.7,0.8,1.7,1.7v10.3c0,0.9-0.8,1.7-1.7,1.7h-15.9c-0.9,0-1.7-0.8-1.7-1.7V33
		C101.1,32,101.8,31.3,102.8,31.3z"/>
</g>
<g>
	<g>
		<g>
			<defs>
				<path id="SVGID_00000054951777202404510070000016478620644398092471_" d="M102.8,98.5h15.9c0.9,0,1.7,0.8,1.7,1.7v10.3
					c0,0.9-0.8,1.7-1.7,1.7h-15.9c-0.9,0-1.7-0.8-1.7-1.7v-10.3C101.1,99.3,101.8,98.5,102.8,98.5z"/>
			</defs>
			<clipPath id="SVGID_00000081639946981272351370000011886449900907407515_">
				<use xlink:href="#SVGID_00000054951777202404510070000016478620644398092471_"  style="overflow:visible;"/>
			</clipPath>
			<g style="clip-path:url(#SVGID_00000081639946981272351370000011886449900907407515_);">
				<path d="M98.8,112.8l6.2-6.2c0.5-0.5,1.2-0.5,1.6,0l6.2,6.2"/>
				<path d="M104,112.8l8.2-8.2c0.6-0.6,1.6-0.6,2.2,0l8.2,8.2"/>
				<circle cx="108.4" cy="103.3" r="2"/>
			</g>
		</g>
	</g>
	<path class="st11" d="M102.8,98.5h15.9c0.9,0,1.7,0.8,1.7,1.7v10.3c0,0.9-0.8,1.7-1.7,1.7h-15.9c-0.9,0-1.7-0.8-1.7-1.7v-10.3
		C101.1,99.3,101.8,98.5,102.8,98.5z"/>
</g>
</svg>
