<svg xmlns="http://www.w3.org/2000/svg" id="Layer_1" data-name="Layer 1" viewBox="0 0 190 150"><defs><style>.cls-1{fill:none;stroke:#009fe3;stroke-linecap:round;stroke-linejoin:round;stroke-width:3px;}.cls-2{fill:#fff;}.cls-2,.cls-4{stroke:#1d1d1b;stroke-miterlimit:10;}.cls-3{fill:#fde34b;}.cls-4{fill:#f89b0b;}.cls-5{fill:#ac33e6;}</style></defs><polyline class="cls-1" points="129.37 53.01 136.48 45.9 143.65 53.06 150.63 46.08 157.61 53.07 164.49 46.19"></polyline><rect class="cls-2" x="22.22" y="58.12" width="147.01" height="39.19" rx="7.9"></rect><rect class="cls-3" x="26.01" y="61.99" width="47.45" height="33.08" rx="4.12"></rect><polygon class="cls-4" points="61.83 61.91 54.45 64.95 51.4 72.35 48.35 64.97 40.96 61.92 48.34 58.88 51.38 51.48 54.43 58.86 61.83 61.91"></polygon><polygon class="cls-4" points="39.68 92.21 32.3 95.26 29.25 102.65 26.21 95.28 18.82 92.23 26.19 89.18 29.23 81.79 32.28 89.17 39.68 92.21"></polygon><rect class="cls-5" x="68.25" y="42.93" width="8.21" height="69.56" rx="2.49"></rect><circle class="cls-3" cx="132.39" cy="94.25" r="2.03"></circle><circle class="cls-3" cx="142.08" cy="94.25" r="2.03"></circle><circle class="cls-3" cx="151.77" cy="94.25" r="2.03"></circle><circle class="cls-3" cx="161.46" cy="94.25" r="2.03"></circle><circle class="cls-3" cx="132.39" cy="104.14" r="2.03"></circle><circle class="cls-3" cx="142.08" cy="104.14" r="2.03"></circle><circle class="cls-3" cx="151.77" cy="104.14" r="2.03"></circle><circle class="cls-3" cx="161.46" cy="104.14" r="2.03"></circle></svg>