<?xml version="1.0" encoding="utf-8"?>
<!-- Generator: Adobe Illustrator 26.0.3, SVG Export Plug-In . SVG Version: 6.00 Build 0)  -->
<svg version="1.1" id="Layer_1" xmlns="http://www.w3.org/2000/svg" xmlns:xlink="http://www.w3.org/1999/xlink" x="0px" y="0px"
	 viewBox="0 0 190 130" style="enable-background:new 0 0 190 130;" xml:space="preserve">
<style type="text/css">
	.st0{fill:#FFB3E6;stroke:#1D1D1B;stroke-width:1.23;stroke-miterlimit:10;}
	.st1{fill:#AC33E6;}
	.st2{fill:#FDE34B;}
	.st3{fill:#FFFFFF;stroke:#1D1D1B;stroke-miterlimit:10;}
</style>
<path class="st0" d="M55.3,30.6h79.4c3.9,0,6.9,3.1,6.9,6.9v54.9c0,3.9-3.1,6.9-6.9,6.9H55.3c-3.9,0-6.9-3.1-6.9-6.9V37.6
	C48.4,33.8,51.5,30.6,55.3,30.6z"/>
<path class="st1" d="M151,63.5v1.1c0,0.4-0.4,0.8-0.8,0.8H99.7c-0.5,0-0.8-0.4-0.8-0.8v-1.1c0-0.4,0.4-0.8,0.8-0.8h50.5
	C150.7,62.7,151,63,151,63.5z"/>
<path class="st1" d="M151,74.2v1.1c0,0.4-0.4,0.8-0.8,0.8H99.7c-0.5,0-0.8-0.4-0.8-0.8v-1.1c0-0.4,0.4-0.8,0.8-0.8h50.5
	C150.7,73.5,151,73.8,151,74.2z"/>
<path class="st1" d="M151,85v1.1c0,0.4-0.4,0.8-0.8,0.8H99.7c-0.5,0-0.8-0.4-0.8-0.8V85c0-0.4,0.4-0.8,0.8-0.8h50.5
	C150.7,84.2,151,84.5,151,85z"/>
<g>
	<circle class="st2" cx="66.8" cy="22.7" r="2.5"/>
	<circle class="st2" cx="66.8" cy="34.6" r="2.5"/>
	<circle class="st2" cx="66.8" cy="46.5" r="2.5"/>
	<circle class="st2" cx="66.8" cy="58.5" r="2.5"/>
	<circle class="st2" cx="54.7" cy="22.7" r="2.5"/>
	<circle class="st2" cx="54.7" cy="34.6" r="2.5"/>
	<circle class="st2" cx="54.7" cy="46.5" r="2.5"/>
	<circle class="st2" cx="54.7" cy="58.5" r="2.5"/>
</g>
<g>
	<path class="st3" d="M38.9,79.3L30,70.4c-0.3-0.3-0.7-0.3-1,0l-1.3,1.3c-0.3,0.3-0.3,0.7,0,1l5.6,5.6c-9-0.6-16.2-8.1-16.2-17.3
		c0-9.6,7.8-17.3,17.3-17.3c0.8,0,1.5-0.7,1.5-1.5s-0.7-1.5-1.5-1.5c-11.2,0-20.3,9.1-20.3,20.3c0,10.9,8.6,19.7,19.3,20.3L27.7,87
		c-0.3,0.3-0.3,0.7,0,1l1.3,1.3c0.4,0.2,0.8,0.2,1.1-0.1l8.9-8.9C39.1,80,39.1,79.6,38.9,79.3z"/>
	<path class="st2" d="M151.1,50.7l8.9,8.9c0.3,0.3,0.7,0.3,1,0l1.3-1.3c0.3-0.3,0.3-0.7,0-1l-5.6-5.6c9,0.6,16.2,8.1,16.2,17.3
		c0,9.6-7.8,17.3-17.3,17.3c-0.8,0-1.5,0.7-1.5,1.5s0.7,1.5,1.5,1.5c11.2,0,20.3-9.1,20.3-20.3c0-10.9-8.6-19.7-19.3-20.3l5.7-5.7
		c0.3-0.3,0.3-0.7,0-1l-1.3-1.3c-0.4-0.2-0.8-0.2-1.1,0.1l-8.9,8.9C150.9,50,150.9,50.4,151.1,50.7z"/>
</g>
</svg>
