<?xml version="1.0" encoding="utf-8"?>
<!-- Generator: Adobe Illustrator 26.0.3, SVG Export Plug-In . SVG Version: 6.00 Build 0)  -->
<svg version="1.1" id="Layer_1" xmlns="http://www.w3.org/2000/svg" xmlns:xlink="http://www.w3.org/1999/xlink" x="0px" y="0px"
	 viewBox="0 0 190 130" style="enable-background:new 0 0 190 130;" xml:space="preserve">
<style type="text/css">
	.st0{fill:#FFFFFF;stroke:#1D1D1B;stroke-width:1.2127;stroke-miterlimit:10;}
	.st1{fill:#6AB42D;stroke:#1D1D1B;stroke-width:1.0522;stroke-miterlimit:10;}
	.st2{fill:#E7E673;}
	.st3{fill:#F9F9E5;}
	.st4{fill:#CAE4D2;stroke:#1D1D1B;stroke-width:1.0522;stroke-miterlimit:10;}
</style>
<path class="st0" d="M32.4,11.2h125.5c6.5,0,11.8,5.3,11.8,11.8v85.5c0,6.5-5.3,11.8-11.8,11.8H32.4c-6.5,0-11.8-5.3-11.8-11.8V23.1
	C20.5,16.5,25.8,11.2,32.4,11.2z"/>
<path class="st1" d="M35.6,98.4h24.8c2,0,3.7,1.6,3.7,3.7v7.8c0,2-1.6,3.7-3.7,3.7H35.6c-2,0-3.7-1.6-3.7-3.7V102
	C32,100,33.5,98.4,35.6,98.4z"/>
<path class="st2" d="M36.7,49.5h116.7c2.7,0,4.8,2.2,4.8,4.8v34.3c0,2.7-2.2,4.8-4.8,4.8H36.7c-2.7,0-4.8-2.2-4.8-4.8V54.3
	C32,51.6,34.1,49.5,36.7,49.5z"/>
<path class="st3" d="M36.7,20.5h116.7c2.7,0,4.8,2.2,4.8,4.8v14.3c0,2.7-2.2,4.8-4.8,4.8H36.7c-2.7,0-4.8-2.2-4.8-4.8V25.3
	C32,22.6,34.1,20.5,36.7,20.5z"/>
<line class="st4" x1="41.1" y1="28.4" x2="149.1" y2="28.4"/>
<line class="st4" x1="41.1" y1="36.6" x2="149.1" y2="36.6"/>
</svg>
