<svg xmlns="http://www.w3.org/2000/svg" xmlns:xlink="http://www.w3.org/1999/xlink" id="Layer_1" data-name="Layer 1" viewBox="0 0 190 150"><defs><style>.cls-1,.cls-7{fill:none;}.cls-1,.cls-5{stroke:#1d1d1b;}.cls-1,.cls-7,.cls-8{stroke-miterlimit:10;}.cls-2{fill:#fde34b;}.cls-3{clip-path:url(#clip-path);}.cls-4{fill:#ededed;}.cls-5{fill:#fff;stroke-linecap:round;stroke-linejoin:round;stroke-width:0.5px;}.cls-6{fill:#ac33e6;}.cls-7{stroke:#e6007e;}.cls-8{fill:#f79808;stroke:#f39200;}</style><clipPath id="clip-path"><rect class="cls-1" x="23.03" y="22.37" width="143.88" height="102.21" rx="12.62"></rect></clipPath></defs><path class="cls-2" d="M10.46,64.35a1.71,1.71,0,1,0,1.7,1.71A1.7,1.7,0,0,0,10.46,64.35Z"></path><path class="cls-2" d="M18.62,64.35a1.71,1.71,0,1,0,1.71,1.71A1.71,1.71,0,0,0,18.62,64.35Z"></path><path class="cls-2" d="M26.78,64.35a1.71,1.71,0,1,0,1.71,1.71A1.71,1.71,0,0,0,26.78,64.35Z"></path><path class="cls-2" d="M34.94,64.35a1.71,1.71,0,1,0,1.71,1.71A1.71,1.71,0,0,0,34.94,64.35Z"></path><path class="cls-2" d="M10.46,72.68a1.71,1.71,0,1,0,1.7,1.71A1.7,1.7,0,0,0,10.46,72.68Z"></path><path class="cls-2" d="M18.62,72.68a1.71,1.71,0,1,0,1.71,1.71A1.71,1.71,0,0,0,18.62,72.68Z"></path><path class="cls-2" d="M26.78,72.68a1.71,1.71,0,1,0,1.71,1.71A1.71,1.71,0,0,0,26.78,72.68Z"></path><path class="cls-2" d="M34.94,72.68a1.71,1.71,0,1,0,1.71,1.71A1.71,1.71,0,0,0,34.94,72.68Z"></path><circle class="cls-2" cx="10.46" cy="82.72" r="1.71"></circle><circle class="cls-2" cx="18.62" cy="82.72" r="1.71"></circle><path class="cls-2" d="M26.78,81a1.71,1.71,0,1,0,1.71,1.71A1.72,1.72,0,0,0,26.78,81Z"></path><circle class="cls-2" cx="34.94" cy="82.72" r="1.71"></circle><circle class="cls-2" cx="10.46" cy="91.05" r="1.71"></circle><circle class="cls-2" cx="18.62" cy="91.05" r="1.71"></circle><path class="cls-2" d="M26.78,89.34a1.71,1.71,0,1,0,1.71,1.71A1.72,1.72,0,0,0,26.78,89.34Z"></path><circle class="cls-2" cx="34.94" cy="91.05" r="1.71"></circle><path class="cls-2" d="M10.46,30.7a1.71,1.71,0,1,0,1.7,1.71A1.71,1.71,0,0,0,10.46,30.7Z"></path><path class="cls-2" d="M18.62,30.7a1.71,1.71,0,1,0,1.71,1.71A1.72,1.72,0,0,0,18.62,30.7Z"></path><path class="cls-2" d="M26.78,30.7a1.71,1.71,0,1,0,1.71,1.71A1.72,1.72,0,0,0,26.78,30.7Z"></path><path class="cls-2" d="M34.94,34.12a1.71,1.71,0,1,0-1.71-1.71A1.72,1.72,0,0,0,34.94,34.12Z"></path><circle class="cls-2" cx="10.46" cy="40.74" r="1.71"></circle><circle class="cls-2" cx="18.62" cy="40.74" r="1.71"></circle><path class="cls-2" d="M26.78,39a1.71,1.71,0,1,0,1.71,1.71A1.72,1.72,0,0,0,26.78,39Z"></path><circle class="cls-2" cx="34.94" cy="40.74" r="1.71"></circle><circle class="cls-2" cx="10.46" cy="49.07" r="1.71"></circle><circle class="cls-2" cx="18.62" cy="49.07" r="1.71"></circle><path class="cls-2" d="M26.78,47.37a1.71,1.71,0,1,0,1.71,1.7A1.71,1.71,0,0,0,26.78,47.37Z"></path><circle class="cls-2" cx="34.94" cy="49.07" r="1.71"></circle><circle class="cls-2" cx="10.46" cy="57.41" r="1.71"></circle><circle class="cls-2" cx="18.62" cy="57.41" r="1.71"></circle><path class="cls-2" d="M26.78,55.7a1.71,1.71,0,1,0,1.71,1.71A1.71,1.71,0,0,0,26.78,55.7Z"></path><circle class="cls-2" cx="34.94" cy="57.41" r="1.71"></circle><g class="cls-3"><path class="cls-4" d="M6.08,129.32,52.75,82.65a8.69,8.69,0,0,1,12.27,0l46.67,46.67"></path><path class="cls-4" d="M44.77,129.32,106.1,68a11.4,11.4,0,0,1,16.12,0l61.33,61.32"></path><circle class="cls-4" cx="78.22" cy="58.01" r="14.9"></circle></g><rect class="cls-1" x="23.03" y="22.37" width="143.88" height="102.21" rx="12.62"></rect><path class="cls-5" d="M149.31,51.32h-7.95l-2.52,4.34-2.7-4.34h-7.77a1.85,1.85,0,0,1-1.85-1.85V40.38a1.85,1.85,0,0,1,1.85-1.85h20.94a1.85,1.85,0,0,1,1.85,1.85v9.09A1.85,1.85,0,0,1,149.31,51.32Z"></path><circle class="cls-6" cx="131.5" cy="67.84" r="7.34"></circle><circle class="cls-7" cx="131.5" cy="67.84" r="12.18"></circle><circle class="cls-8" cx="57.56" cy="98.42" r="7.2"></circle></svg>