<svg xmlns="http://www.w3.org/2000/svg" id="Layer_1" data-name="Layer 1" viewBox="0 0 190 150"><defs><style>.cls-1{fill:#e30613;}.cls-2{fill:#fff;}.cls-2,.cls-3{stroke:#1d1d1b;}.cls-2,.cls-3,.cls-7{stroke-miterlimit:10;}.cls-3{fill:#389c48;}.cls-4{fill:#e2cc00;}.cls-5{fill:#009640;}.cls-6{fill:#fdc021;}.cls-7{fill:none;stroke:#e30613;stroke-width:2px;}</style></defs><circle class="cls-1" cx="17.55" cy="85.18" r="1.71"></circle><circle class="cls-1" cx="25.71" cy="85.18" r="1.71"></circle><circle class="cls-1" cx="33.87" cy="85.18" r="1.71"></circle><circle class="cls-1" cx="42.03" cy="85.18" r="1.71"></circle><circle class="cls-1" cx="17.55" cy="93.51" r="1.71"></circle><circle class="cls-1" cx="25.71" cy="93.51" r="1.71"></circle><circle class="cls-1" cx="33.87" cy="93.51" r="1.71"></circle><circle class="cls-1" cx="42.03" cy="93.51" r="1.71"></circle><circle class="cls-1" cx="17.55" cy="101.85" r="1.71"></circle><circle class="cls-1" cx="25.71" cy="101.85" r="1.71"></circle><circle class="cls-1" cx="33.87" cy="101.85" r="1.71"></circle><circle class="cls-1" cx="42.03" cy="101.85" r="1.71"></circle><circle class="cls-1" cx="17.55" cy="110.18" r="1.71"></circle><circle class="cls-1" cx="25.71" cy="110.18" r="1.71"></circle><circle class="cls-1" cx="33.87" cy="110.18" r="1.71"></circle><circle class="cls-1" cx="42.03" cy="110.18" r="1.71"></circle><rect class="cls-2" x="21.38" y="58.49" width="147.01" height="39.19" rx="7.9"></rect><rect class="cls-3" x="79.5" y="85.13" width="84.54" height="20.78" rx="4.36"></rect><circle class="cls-1" cx="134.36" cy="48.96" r="3.59"></circle><circle class="cls-4" cx="147.79" cy="48.96" r="3.59"></circle><circle class="cls-5" cx="161.21" cy="48.96" r="3.59"></circle><circle class="cls-6" cx="57.69" cy="55.58" r="21.22"></circle><circle class="cls-7" cx="47.78" cy="61.4" r="15.1"></circle><circle class="cls-7" cx="47.78" cy="61.4" r="9.9"></circle><circle class="cls-7" cx="47.78" cy="61.4" r="4.6"></circle><circle class="cls-7" cx="47.78" cy="61.4" r="21.22"></circle></svg>