<?xml version="1.0" encoding="utf-8"?>
<!-- Generator: Adobe Illustrator 26.0.3, SVG Export Plug-In . SVG Version: 6.00 Build 0)  -->
<svg version="1.1" id="Layer_1" xmlns="http://www.w3.org/2000/svg" xmlns:xlink="http://www.w3.org/1999/xlink" x="0px" y="0px"
	 viewBox="0 0 190 130" style="enable-background:new 0 0 190 130;" xml:space="preserve">
<style type="text/css">
	.st0{fill:#E2E2E2;}
	.st1{fill:#FA3154;stroke:#1D1D1B;stroke-miterlimit:10;}
	.st2{fill:#FDC021;stroke:#000000;stroke-miterlimit:10;}
	.st3{fill:#FFFFFF;}
</style>
<g>
	<path class="st0" d="M118.1,46.9c-1.2-1.2-3-1.2-4.2-0.1c-1.1,1.2-1.1,3.1,0,4.2l50.9,51c1.2,1.1,3.1,1.1,4.2,0
		c1.1-1.2,1.1-3.1,0-4.2L118.1,46.9z"/>
	<path class="st0" d="M128.3,43.6c-1.2-1.1-3-1.1-4.2,0c-1.1,1.2-1.1,3.1,0,4.2L168,91.7c1.2,1.1,3.1,1.1,4.2,0
		c1.1-1.2,1.1-3.1,0-4.2L128.3,43.6z"/>
	<path class="st0" d="M174.9,76.8L139.1,41c-1.2-1.2-3-1.2-4.2-0.1c-1.1,1.2-1.1,3.1,0,4.2L170.7,81c1.2,1.1,3.1,1.1,4.2,0
		C176,79.8,176,77.9,174.9,76.8z"/>
	<path class="st0" d="M112.2,67.9c-1.2-1.2-3.1-1.2-4.2-0.1c-1.1,1.2-1.1,3.1,0,4.2l35.8,35.9c1.2,1.1,3.1,1.1,4.2,0
		c1.1-1.2,1.1-3.1,0-4.2L112.2,67.9z"/>
	<path class="st0" d="M114.8,57.1c-1.1-1.2-3-1.2-4.1-0.1c-1.1,1.2-1.1,3.1,0,4.2l43.8,44c1.2,1.1,3.1,1.1,4.2,0
		c1.1-1.2,1.1-3.1,0-4.2L114.8,57.1z"/>
	<path class="st0" d="M162.1,57c1.8,0,3.2-1.4,3.2-3.2c0-1.8-1.4-3.2-3.2-3.2c-1.8,0-3.2,1.4-3.2,3.2C158.9,55.6,160.3,57,162.1,57z
		"/>
	<path class="st0" d="M120.6,92.1c-1.8,0-3.2,1.4-3.2,3.2c0,1.8,1.4,3.2,3.2,3.2c1.8,0,3.2-1.4,3.2-3.2
		C123.8,93.6,122.4,92.1,120.6,92.1z"/>
</g>
<circle class="st1" cx="94.9" cy="35.8" r="34.1"/>
<path class="st2" d="M150.3,130c0-30.6-24.8-55.4-55.4-55.4S39.5,99.4,39.5,130"/>
<path class="st3" d="M73.4,100.9c0-4.7-3.7-8.5-8.3-8.6c-3.6-10.4-13.4-17.9-25.1-17.9c-14.6,0-26.5,11.9-26.5,26.5
	s11.9,26.5,26.5,26.5c11.6,0,21.5-7.5,25.1-17.9C69.8,109.4,73.4,105.6,73.4,100.9z"/>
<g>
	<path class="st2" d="M57.4,117.7c-4.5,4.5-10.6,7-17,7c-6.4,0-12.5-2.5-17-7c-4.5-4.5-7-10.6-7-17c0-6.4,2.5-12.5,7-17
		c4.5-4.5,10.6-7,17-7c6.4,0,12.5,2.5,17,7c0.9,0.9,2.6,0.9,3.5,0c0.5-0.5,0.7-1.1,0.7-1.7c0-0.7-0.3-1.3-0.7-1.7
		c-5.5-5.5-12.7-8.5-20.5-8.5c-7.8,0-15,3-20.5,8.5c-5.5,5.5-8.5,12.8-8.5,20.5c0,7.8,3,15,8.5,20.5c5.5,5.5,12.7,8.5,20.5,8.5
		c7.8,0,15-3,20.5-8.5c1-1,1-2.5,0-3.5C59.9,116.7,58.3,116.7,57.4,117.7z"/>
	<path class="st2" d="M79.6,100.1c0-0.1,0-0.1-0.1-0.2c0-0.1,0-0.2-0.1-0.3c0-0.1-0.1-0.2-0.1-0.3c0-0.1-0.1-0.1-0.1-0.2
		c-0.1-0.1-0.2-0.3-0.3-0.4L65.7,85.6c-1-1-2.7-1-3.8,0c-1,1-1,2.7,0,3.8l8.7,8.7H32.8c-1.5,0-2.7,1.2-2.7,2.7s1.2,2.7,2.7,2.7h37.7
		l-8.7,8.7c-1,1-1,2.7,0,3.8c1,1,2.7,1,3.8,0l13.2-13.2c0.1-0.1,0.2-0.3,0.3-0.4c0-0.1,0.1-0.1,0.1-0.2c0-0.1,0.1-0.2,0.1-0.3
		c0-0.1,0.1-0.2,0.1-0.3c0-0.1,0.1-0.1,0.1-0.2c0,0,0,0,0,0C79.7,100.8,79.7,100.5,79.6,100.1z"/>
</g>
</svg>
