<?xml version="1.0" encoding="utf-8"?>
<!-- Generator: Adobe Illustrator 26.0.3, SVG Export Plug-In . SVG Version: 6.00 Build 0)  -->
<svg version="1.1" id="Layer_1" xmlns="http://www.w3.org/2000/svg" xmlns:xlink="http://www.w3.org/1999/xlink" x="0px" y="0px"
	 viewBox="0 0 190 130" style="enable-background:new 0 0 190 130;" xml:space="preserve">
<style type="text/css">
	.st0{fill:#00DEB2;}
	.st1{opacity:0.2;fill:#FFFFFF;}
	.st2{opacity:0.4;fill:#FFFFFF;}
	.st3{fill:#FFFFFF;}
	.st4{fill:none;stroke:#FFFFFF;stroke-width:6;stroke-linecap:round;stroke-linejoin:round;stroke-miterlimit:10;}
</style>
<g>
	<path class="st0" d="M19.8,119.9h150.4c2.6,0,4.7-2.1,4.7-4.7V14.7c0-2.6-2.1-4.7-4.7-4.7H19.8c-2.6,0-4.7,2.1-4.7,4.7v100.6
		C15.1,117.8,17.2,119.9,19.8,119.9z"/>
	<path class="st1" d="M174.9,62.6V115c0,2.7-2.2,4.9-4.9,4.9h-20.8c-1.7-16.1-15.1-28.7-31.6-28.9c3-18.8,19.2-33.1,38.8-33.1
		C163,57.9,169.3,59.6,174.9,62.6z"/>
	<path class="st1" d="M124.2,119.9H84.9c1.7-16.3,15.4-29,32.1-29c0.2,0,0.3,0,0.5,0c-0.3,2-0.5,4.1-0.5,6.3
		C117,105.7,119.7,113.5,124.2,119.9z"/>
	<path class="st2" d="M149.1,119.9h-24.9c-4.5-6.4-7.2-14.2-7.2-22.7c0-2.1,0.2-4.2,0.5-6.3C134,91.3,147.5,103.8,149.1,119.9z"/>
</g>
<g>
	<circle class="st3" cx="76.8" cy="29.3" r="3"/>
	<circle class="st3" cx="130.2" cy="102" r="3"/>
	<path class="st4" d="M123.8,87.4c0,0,3,2.5,4.3,6.6"/>
	<path class="st4" d="M84,33.8c0,0,3.4,1.8,5.6,5.6"/>
	<path class="st4" d="M94.1,46.1c0,0,3.6,5.7,2.8,20.7C96.4,76,90,98.4,70,97.7c-19.1-0.6-18.3-20.5-7-29.3
		c15.4-11.9,37.7-5.3,54.6,10.4"/>
</g>
</svg>
