<?xml version="1.0" encoding="utf-8"?>
<!-- Generator: Adobe Illustrator 26.0.3, SVG Export Plug-In . SVG Version: 6.00 Build 0)  -->
<svg version="1.1" id="Layer_1" xmlns="http://www.w3.org/2000/svg" xmlns:xlink="http://www.w3.org/1999/xlink" x="0px" y="0px"
	 viewBox="0 0 190 130" style="enable-background:new 0 0 190 130;" xml:space="preserve">
<style type="text/css">
	.st0{fill:#00DBFF;stroke:#1D1D1B;stroke-width:0.5;stroke-miterlimit:10;}
	.st1{fill:none;stroke:#FFFFFF;stroke-width:2;stroke-miterlimit:10;}
	.st2{fill:#FF0000;}
</style>
<g>
	<path class="st0" d="M5.5,49.8h179c2,0,3.5,2.2,3.5,4.8v67.6c0,2.7-1.6,4.8-3.5,4.8H5.5c-2,0-3.5-2.2-3.5-4.8V54.6
		C1.8,52,3.5,49.8,5.5,49.8z"/>
</g>
<g>
	<circle class="st1" cx="95" cy="88.4" r="17.2"/>
	<circle class="st1" cx="95" cy="88.4" r="11.3"/>
	<circle class="st1" cx="95" cy="88.4" r="5.2"/>
	<circle class="st1" cx="95" cy="88.4" r="24.2"/>
</g>
<path class="st2" d="M95,3.8c-19.4,0-35.1,16.2-35.1,36C59.9,59.8,77.5,76,95,94c17.5-18,35-34.2,35-54.1C130.1,20,114.4,3.8,95,3.8
	z M95,53.9c-8.3,0-15-6.7-15-15c0-8.3,6.7-15,15-15c8.3,0,15,6.7,15,15C110.1,47.2,103.3,53.9,95,53.9z"/>
</svg>
