<svg xmlns="http://www.w3.org/2000/svg" xmlns:xlink="http://www.w3.org/1999/xlink" id="Layer_1" data-name="Layer 1" viewBox="0 0 160 160"><defs><style>.cls-1,.cls-3{fill:none;}.cls-2,.cls-5{fill:#fff;}.cls-10,.cls-3,.cls-5,.cls-7{stroke:#1d1d1b;stroke-miterlimit:10;}.cls-4{fill:#b6ddba;}.cls-10,.cls-6{fill:#1d1d1b;}.cls-7{fill:#389c48;}.cls-8{fill:#ededed;}.cls-9{clip-path:url(#clip-path);}</style><clipPath id="clip-path"><circle class="cls-1" cx="94.56" cy="70.43" r="10.85"></circle></clipPath></defs><rect class="cls-2" x="1.22" y="50.41" width="157.56" height="59.17" rx="10.05"></rect><rect class="cls-3" x="1.22" y="50.41" width="157.56" height="59.17" rx="10.05"></rect><rect class="cls-4" x="56.71" y="101.41" width="9.37" height="29.14" rx="1.72" transform="translate(-34.47 26.37) rotate(-19.04)"></rect><rect class="cls-3" x="56.71" y="101.41" width="9.37" height="29.14" rx="1.72" transform="translate(-34.47 26.37) rotate(-19.04)"></rect><path class="cls-5" d="M139.38,91.12l10.49-10.49h0l0,0a.88.88,0,0,0,0-1.24L139.4,68.88a2,2,0,0,0-2.81,0h0a2,2,0,0,0,0,2.81l7.52,7.51a1.13,1.13,0,0,1,0,1.58l-7.54,7.53a2,2,0,0,0,0,2.81h0A2,2,0,0,0,139.38,91.12Z"></path><path class="cls-5" d="M25.14,68.88,14.65,79.37h0l0,0a.88.88,0,0,0,0,1.24L25.11,91.12a2,2,0,0,0,2.81,0h0a2,2,0,0,0,0-2.81L20.41,80.8a1.11,1.11,0,0,1,0-1.58l7.53-7.53a2,2,0,0,0,0-2.81h0A2,2,0,0,0,25.14,68.88Z"></path><path class="cls-4" d="M123.05,93.36a60.8,60.8,0,0,1-28.24,8.94c-3.73.21-7.47-.22-11.2-.36-12.65-.49-22.67,7.37-33.88,13.26a5.75,5.75,0,0,1-2.74.9,3.2,3.2,0,0,1-2.43-.9c-4.5-5.6-6.15-7.42-8.42-10.5-1.22-1.65-2.29-3.8-1.44-5.65a5.44,5.44,0,0,1,1.91-2c4.45-3.11,7.54-6.07,11.75-9.49s6.12-9,8-14.21c5-13.52,13.17-28.61,24.9-37Z"></path><path class="cls-6" d="M122.73,92.82a64.5,64.5,0,0,1-17.48,7.3,57.55,57.55,0,0,1-9.12,1.46,77.85,77.85,0,0,1-10.58-.17,37.34,37.34,0,0,0-17,3c-5.45,2.31-10.48,5.45-15.61,8.34-1.29.72-2.57,1.46-3.89,2.11a4.26,4.26,0,0,1-2.38.61A3,3,0,0,1,44.41,114c-1.59-2-3.2-3.9-4.79-5.86a52.54,52.54,0,0,1-3.42-4.45c-1-1.57-1.81-3.6-.38-5.19a27.07,27.07,0,0,1,3.83-3c2.52-1.94,4.92-4,7.36-6.1a25.21,25.21,0,0,0,5.58-5.9c2.94-4.71,4.34-10.26,6.49-15.34,5-11.79,12-23.72,22.52-31.33l-.85-.22L94.94,56l22.42,30.61,5.15,7c.47.64,1.55,0,1.08-.63L109.4,73.67,87,43.06l-5.14-7a.64.64,0,0,0-.86-.23c-9.72,7-16.45,17.53-21.41,28.25-1.17,2.52-2.25,5.09-3.24,7.69-1.09,2.83-2,5.74-3.34,8.48a20.49,20.49,0,0,1-5.43,7.17c-2.6,2.14-5.11,4.37-7.75,6.47-1.29,1-2.66,1.94-4,2.95a4.7,4.7,0,0,0-2.06,3.37c-.16,2.49,1.61,4.6,3,6.44,1.22,1.58,2.49,3.11,3.76,4.65.89,1.08,1.78,2.17,2.66,3.26s1.58,1.94,3.08,2.13a6,6,0,0,0,3.72-.93c1.5-.78,3-1.61,4.43-2.44,2.78-1.58,5.52-3.2,8.33-4.72,5.45-2.93,11.25-5.49,17.49-6,4-.3,8.06.34,12.09.36a53.76,53.76,0,0,0,10.73-1.11,64.38,64.38,0,0,0,20.25-8A.63.63,0,0,0,122.73,92.82Z"></path><ellipse class="cls-7" cx="102.17" cy="64.85" rx="14.2" ry="35.33" transform="translate(-18.58 72.91) rotate(-36.22)"></ellipse><rect class="cls-8" x="97.55" y="31.02" width="6.25" height="20.87" rx="1.45" transform="translate(149.22 138.92) rotate(-138.86)"></rect><rect class="cls-8" x="110.98" y="44.98" width="6.25" height="20.87" rx="1.45" transform="translate(136.83 180.22) rotate(-126.22)"></rect><rect class="cls-8" x="120.67" y="59.64" width="6.25" height="20.87" rx="1.45" transform="translate(116.51 212.15) rotate(-116.58)"></rect><g class="cls-9"><ellipse class="cls-10" cx="102.72" cy="64.45" rx="14.2" ry="35.33" transform="translate(-18.23 73.16) rotate(-36.22)"></ellipse></g></svg>