<?xml version="1.0" encoding="utf-8"?>
<!-- Generator: Adobe Illustrator 26.0.3, SVG Export Plug-In . SVG Version: 6.00 Build 0)  -->
<svg version="1.1" id="Layer_1" xmlns="http://www.w3.org/2000/svg" xmlns:xlink="http://www.w3.org/1999/xlink" x="0px" y="0px"
	 viewBox="0 0 190 130" style="enable-background:new 0 0 190 130;" xml:space="preserve">
<style type="text/css">
	.st0{fill:#FFDE52;stroke:#1D1D1B;stroke-miterlimit:10;}
	.st1{fill:#FF0000;}
	.st2{fill:#FFFF00;}
	.st3{fill:#00FF7F;}
	.st4{fill:#383838;stroke:#1D1D1B;stroke-width:0.5;stroke-miterlimit:10;}
	.st5{fill:#FFFFFF;stroke:#1D1D1B;stroke-width:0.5;stroke-miterlimit:10;}
</style>
<g>
	<path class="st0" d="M14.1,122.4h161.8c2.8,0,5.1-2.2,5.1-5V12.6c0-2.8-2.3-5-5.1-5H14.1c-2.8,0-5.1,2.2-5.1,5v105
		C9,120.2,11.3,122.4,14.1,122.4z"/>
</g>
<g>
	<circle class="st1" cx="20.7" cy="18.9" r="4.6"/>
	<circle class="st2" cx="35.5" cy="18.9" r="4.6"/>
	<circle class="st3" cx="50.3" cy="18.9" r="4.6"/>
</g>
<g>
	<path class="st4" d="M107.6,52.2h-8.5v24.2c0,1.6-0.4,2.8-1.1,3.6c-0.7,0.8-1.6,1.2-2.8,1.2s-2.1-0.4-2.8-1.2s-1-2-1-3.6V52.2h-8.5
		c-1.3,0-2.3-0.2-3-0.9C79.3,50.7,79,50,79,49s0.3-1.8,1-2.3c0.7-0.6,1.6-0.9,3-0.9h24.7c1.3,0,2.3,0.3,3,0.9
		c0.6,0.6,0.9,1.4,0.9,2.3s-0.3,1.7-1,2.3C109.9,51.9,108.9,52.2,107.6,52.2z"/>
</g>
<g>
	<circle class="st5" cx="44.8" cy="102.1" r="2.5"/>
	<circle class="st5" cx="56.7" cy="102.1" r="2.5"/>
	<circle class="st5" cx="68.6" cy="102.1" r="2.5"/>
	<circle class="st5" cx="80.6" cy="102.1" r="2.5"/>
	<circle class="st5" cx="44.8" cy="111.2" r="2.5"/>
	<circle class="st5" cx="56.7" cy="111.2" r="2.5"/>
	<circle class="st5" cx="68.6" cy="111.2" r="2.5"/>
	<circle class="st5" cx="80.6" cy="111.2" r="2.5"/>
	<g>
		<path class="st5" d="M24.4,96.6h9.7c2,0,3.7,1.6,3.7,3.7v9.7c0,2-1.6,3.7-3.7,3.7h-9.7c-2,0-3.7-1.6-3.7-3.7v-9.7
			C20.7,98.2,22.3,96.6,24.4,96.6z"/>
	</g>
</g>
<g>
	<circle class="st5" cx="132.4" cy="102.1" r="2.5"/>
	<circle class="st5" cx="144.3" cy="102.1" r="2.5"/>
	<circle class="st5" cx="156.2" cy="102.1" r="2.5"/>
	<circle class="st5" cx="168.2" cy="102.1" r="2.5"/>
	<circle class="st5" cx="132.4" cy="111.2" r="2.5"/>
	<circle class="st5" cx="144.3" cy="111.2" r="2.5"/>
	<circle class="st5" cx="156.2" cy="111.2" r="2.5"/>
	<circle class="st5" cx="168.2" cy="111.2" r="2.5"/>
	<g>
		<path class="st5" d="M111.9,96.6h9.7c2,0,3.7,1.6,3.7,3.7v9.7c0,2-1.6,3.7-3.7,3.7h-9.7c-2,0-3.7-1.6-3.7-3.7v-9.7
			C108.2,98.2,109.8,96.6,111.9,96.6z"/>
	</g>
</g>
</svg>
