<?xml version="1.0" encoding="utf-8"?>
<!-- Generator: Adobe Illustrator 26.0.3, SVG Export Plug-In . SVG Version: 6.00 Build 0)  -->
<svg version="1.1" id="Layer_1" xmlns="http://www.w3.org/2000/svg" xmlns:xlink="http://www.w3.org/1999/xlink" x="0px" y="0px"
	 viewBox="0 0 190 130" style="enable-background:new 0 0 190 130;" xml:space="preserve">
<style type="text/css">
	.st0{fill:#5AC0FF;stroke:#1D1D1B;stroke-width:0.5;stroke-miterlimit:10;}
	.st1{fill:#383838;stroke:#1D1D1B;stroke-width:0.5;stroke-miterlimit:10;}
	.st2{fill:#383838;}
</style>
<g>
	<g>
		<path class="st0" d="M72.9,2h64.5c2.6-0.2,4.8,1.5,4.8,3.5v120c0,2-2.2,3.5-4.8,3.5H52.9c-2.7,0-4.8-1.6-4.8-3.5V25.2"/>
	</g>
	<g>
		<path class="st1" d="M73.2,1.8L73.3,22c0,2-2.2,3.5-4.8,3.5H47.8"/>
	</g>
</g>
<g>
	<path class="st2" d="M75.7,63.3c-0.2-0.1-0.4-0.2-0.7-0.2c-0.3,0-0.6,0.1-0.8,0.2c-0.2,0.1-0.3,0.3-0.5,0.7s-0.3,0.8-0.5,1.3
		l-2.5,7.1l-2.6-7.6c-0.2-0.5-0.4-0.9-0.6-1.2s-0.6-0.4-1-0.4c-0.3,0-0.5,0.1-0.7,0.2c-0.2,0.1-0.4,0.3-0.6,0.5S65,64.4,65,64.6
		c0,0.2,0.1,0.6,0.4,1.2l3.8,9.6l-0.3,0.7c-0.2,0.5-0.4,0.9-0.6,1.1c-0.2,0.3-0.3,0.4-0.5,0.5s-0.5,0.2-0.8,0.2
		c-0.1,0-0.3,0-0.5-0.1c-0.2,0-0.3-0.1-0.5-0.1c-0.4,0-0.7,0.1-1,0.3c-0.2,0.2-0.3,0.5-0.3,0.8c0,0.5,0.2,0.9,0.7,1.1
		c0.5,0.2,1.1,0.3,2,0.3c0.9,0,1.7-0.1,2.2-0.4c0.5-0.3,1-0.7,1.3-1.2c0.3-0.5,0.7-1.3,1-2.2l4-10.5c0.1-0.3,0.2-0.5,0.2-0.8
		c0.1-0.3,0.1-0.5,0.1-0.6c0-0.2-0.1-0.5-0.2-0.7C76.1,63.6,75.9,63.5,75.7,63.3z"/>
	<polygon class="st2" points="78,76.5 79.7,76.5 82.7,62.8 81,62.8 	"/>
	<path class="st2" d="M101,63.7c-0.6-0.3-1.3-0.5-2.2-0.5c-0.7,0-1.4,0.2-2,0.5c-0.6,0.3-1.2,0.8-1.7,1.4c-0.4-0.6-0.8-1.1-1.4-1.4
		c-0.6-0.3-1.2-0.5-2-0.5c-0.7,0-1.4,0.2-2,0.5c-0.6,0.3-1.2,0.8-1.7,1.4v-0.3c0-0.5-0.1-0.9-0.4-1.2c-0.3-0.3-0.6-0.4-1.1-0.4
		c-0.4,0-0.8,0.2-1.1,0.5c-0.3,0.3-0.4,0.7-0.4,1.3v8.8c0,0.6,0.1,1.1,0.4,1.5c0.3,0.3,0.7,0.5,1.1,0.5c0.5,0,0.9-0.2,1.1-0.5
		c0.3-0.3,0.4-0.8,0.4-1.5v-4.2c0-1.3,0.2-2.3,0.5-3c0.3-0.7,1-1,2-1c0.5,0,0.9,0.1,1.1,0.4c0.2,0.3,0.4,0.6,0.4,1.1s0.1,1,0.1,1.8
		v4.9c0,0.6,0.1,1.1,0.4,1.5c0.3,0.3,0.7,0.5,1.1,0.5c0.5,0,0.9-0.2,1.2-0.5c0.3-0.3,0.4-0.8,0.4-1.5v-4.1c0-1.3,0.1-2.2,0.3-2.8
		c0.2-0.4,0.5-0.7,0.9-1c0.4-0.2,0.8-0.4,1.2-0.4c0.5,0,0.9,0.1,1.1,0.4s0.4,0.6,0.5,1c0.1,0.4,0.1,0.9,0.1,1.6v5.2
		c0,0.6,0.1,1.1,0.4,1.5s0.7,0.5,1.1,0.5c0.5,0,0.9-0.2,1.2-0.5c0.3-0.3,0.4-0.8,0.4-1.5v-6c0-1.2-0.1-2.1-0.4-2.6
		C102,64.5,101.6,64,101,63.7z"/>
	<polygon class="st2" points="105.2,76.5 106.9,76.5 109.9,62.8 108.2,62.8 	"/>
	<path class="st2" d="M123.4,59c-0.3-0.3-0.6-0.4-1.1-0.4c-0.5,0-0.8,0.2-1.1,0.5c-0.3,0.3-0.4,0.8-0.4,1.4V65
		c-0.6-0.6-1.2-1.1-1.8-1.4c-0.6-0.3-1.4-0.5-2.2-0.5c-1.5,0-2.8,0.5-3.7,1.6c-0.9,1.1-1.4,2.6-1.4,4.5c0,0.9,0.1,1.8,0.4,2.5
		s0.6,1.5,1,2c0.5,0.6,1,1,1.6,1.3c0.6,0.3,1.3,0.5,2.1,0.5c0.6,0,1.1-0.1,1.5-0.2c0.5-0.2,0.9-0.4,1.3-0.7c0.4-0.3,0.8-0.7,1.2-1.2
		v0.3c0,0.6,0.1,1,0.4,1.3c0.3,0.3,0.6,0.5,1,0.5c0.4,0,0.8-0.1,1.1-0.4s0.4-0.7,0.4-1.3V60.3C123.8,59.7,123.7,59.3,123.4,59z
		 M120.3,71.6c-0.3,0.6-0.6,1-1.1,1.3c-0.4,0.3-0.9,0.4-1.5,0.4c-0.5,0-1-0.1-1.5-0.4c-0.5-0.3-0.8-0.7-1.1-1.3
		c-0.3-0.6-0.4-1.3-0.4-2.1c0-0.8,0.1-1.5,0.4-2.1c0.2-0.6,0.6-1.1,1-1.4c0.4-0.3,0.9-0.5,1.5-0.5c0.5,0,1,0.2,1.5,0.5
		s0.8,0.8,1.1,1.4s0.4,1.3,0.4,2.1C120.7,70.3,120.6,71,120.3,71.6z"/>
</g>
</svg>
