<?xml version="1.0" encoding="utf-8"?>
<!-- Generator: Adobe Illustrator 26.0.3, SVG Export Plug-In . SVG Version: 6.00 Build 0)  -->
<svg version="1.1" id="Layer_1" xmlns="http://www.w3.org/2000/svg" xmlns:xlink="http://www.w3.org/1999/xlink" x="0px" y="0px"
	 viewBox="0 0 190 130" style="enable-background:new 0 0 190 130;" xml:space="preserve">
<style type="text/css">
	.st0{fill:#00FFB0;stroke:#1D1D1B;stroke-width:0.5;stroke-miterlimit:10;}
	.st1{fill:#383838;stroke:#1D1D1B;stroke-width:0.5;stroke-miterlimit:10;}
	.st2{fill:none;stroke:#383838;stroke-width:2;stroke-linecap:round;stroke-linejoin:round;stroke-miterlimit:10;}
	.st3{fill:#383838;}
</style>
<g>
	<g>
		<path class="st0" d="M72.9,2h64.5c2.6-0.2,4.8,1.5,4.8,3.5v120c0,2-2.2,3.5-4.8,3.5H52.9c-2.7,0-4.8-1.6-4.8-3.5V25.2"/>
	</g>
	<g>
		<path class="st1" d="M73.2,1.8L73.3,22c0,2-2.2,3.5-4.8,3.5H47.8"/>
	</g>
</g>
<g>
	<g>
		<line class="st2" x1="99.3" y1="41.7" x2="124.7" y2="41.7"/>
		<line class="st2" x1="99.3" y1="54.4" x2="124.7" y2="54.4"/>
		<line class="st2" x1="99.3" y1="67.2" x2="124.7" y2="67.2"/>
		<line class="st2" x1="65.3" y1="80.1" x2="124.7" y2="80.1"/>
		<line class="st2" x1="65.3" y1="93" x2="124.7" y2="93"/>
		<line class="st2" x1="65.3" y1="105.9" x2="124.7" y2="105.9"/>
	</g>
	<g>
		<path class="st3" d="M88.1,69.4l-1.5-4h-13L72,69.5c-0.6,1.6-1.1,2.7-1.5,3.2c-0.4,0.6-1.1,0.8-2.1,0.8c-0.8,0-1.5-0.3-2.2-0.9
			c-0.6-0.6-0.9-1.3-0.9-2c0-0.4,0.1-0.9,0.2-1.4c0.1-0.5,0.4-1.1,0.7-1.9l8.2-20.8c0.2-0.6,0.5-1.3,0.8-2.2c0.3-0.8,0.7-1.5,1-2.1
			c0.4-0.6,0.9-1,1.5-1.3c0.6-0.3,1.4-0.5,2.2-0.5c0.9,0,1.7,0.2,2.3,0.5c0.6,0.3,1.1,0.8,1.5,1.3c0.4,0.5,0.7,1.1,0.9,1.7
			c0.3,0.6,0.6,1.4,1,2.5L94,67.2c0.7,1.6,1,2.7,1,3.4c0,0.7-0.3,1.4-0.9,2c-0.6,0.6-1.4,0.9-2.2,0.9c-0.5,0-0.9-0.1-1.3-0.3
			c-0.4-0.2-0.7-0.4-0.9-0.7c-0.2-0.3-0.5-0.8-0.8-1.4S88.3,69.9,88.1,69.4z M75.2,60.5h9.6L80,47.3L75.2,60.5z"/>
	</g>
</g>
</svg>
