<?xml version="1.0" encoding="utf-8"?>
<!-- Generator: Adobe Illustrator 26.0.3, SVG Export Plug-In . SVG Version: 6.00 Build 0)  -->
<svg version="1.1" id="Layer_1" xmlns="http://www.w3.org/2000/svg" xmlns:xlink="http://www.w3.org/1999/xlink" x="0px" y="0px"
	 viewBox="0 0 190 130" style="enable-background:new 0 0 190 130;" xml:space="preserve">
<style type="text/css">
	.st0{fill:#FFDACC;stroke:#1D1D1B;stroke-width:0.5;stroke-miterlimit:10;}
	.st1{fill:#383838;stroke:#1D1D1B;stroke-width:0.5;stroke-miterlimit:10;}
</style>
<g>
	<g>
		<path class="st0" d="M72.9,2h64.5c2.6-0.2,4.8,1.5,4.8,3.5v120c0,2-2.2,3.5-4.8,3.5H52.9c-2.7,0-4.8-1.6-4.8-3.5V25.2"/>
	</g>
	<g>
		<path class="st1" d="M73.2,1.8L73.3,22c0,2-2.2,3.5-4.8,3.5H47.8"/>
	</g>
</g>
<path d="M113,90.8c-1.6,0.4-7-4.5-8.8-4.5c-5.1,0-9.7-1.9-12.6-4.9c8.3-1.2,14.6-7,14.6-14c0-2-0.5-3.9-1.4-5.6
	C113.2,62,120,67.4,120,74c0,4.2-2.8,8-6.9,10.2C111.9,84.8,114.4,90.5,113,90.8z"/>
<path d="M78.2,84.3c-0.2,0-0.3,0-0.5-0.1c-1.6-0.4-1.2-2.5-0.8-4.5c0.1-0.7,0.4-1.9,0.3-2.3c-4.5-2.5-7.2-6.5-7.2-10.9
	c0-7.3,7.5-13.3,16.7-13.3s16.7,5.9,16.7,13.3S96,79.7,86.8,79.7c-0.5,0-2.5,1.3-3.6,2.1C80.8,83.4,79.3,84.3,78.2,84.3L78.2,84.3z"
	/>
</svg>
