<?xml version="1.0" encoding="utf-8"?>
<!-- Generator: Adobe Illustrator 26.0.3, SVG Export Plug-In . SVG Version: 6.00 Build 0)  -->
<svg version="1.1" id="Layer_1" xmlns="http://www.w3.org/2000/svg" xmlns:xlink="http://www.w3.org/1999/xlink" x="0px" y="0px"
	 viewBox="0 0 190 130" style="enable-background:new 0 0 190 130;" xml:space="preserve">
<style type="text/css">
	.st0{fill:#00CFFF;stroke:#1D1D1B;stroke-width:0.5;stroke-miterlimit:10;}
	.st1{fill:#383838;stroke:#1D1D1B;stroke-width:0.5;stroke-miterlimit:10;}
	.st2{fill:#383838;}
</style>
<g>
	<g>
		<path class="st0" d="M72.9,2h64.5c2.6-0.2,4.8,1.5,4.8,3.5v120c0,2-2.2,3.5-4.8,3.5H52.9c-2.7,0-4.8-1.6-4.8-3.5V25.2"/>
	</g>
	<g>
		<path class="st1" d="M73.2,1.8L73.3,22c0,2-2.2,3.5-4.8,3.5H47.8"/>
	</g>
</g>
<g>
	<path class="st2" d="M118.1,55.1h-15.9v45.1c0,3-0.7,5.2-2,6.7c-1.3,1.5-3.1,2.2-5.2,2.2c-2.2,0-3.9-0.7-5.3-2.2s-2-3.7-2-6.7V55.1
		H71.8c-2.5,0-4.3-0.5-5.5-1.6c-1.2-1.1-1.8-2.5-1.8-4.3c0-1.9,0.6-3.3,1.9-4.4c1.3-1.1,3.1-1.6,5.5-1.6h46.2c2.5,0,4.4,0.6,5.6,1.7
		c1.2,1.1,1.8,2.6,1.8,4.4c0,1.8-0.6,3.2-1.9,4.3C122.4,54.5,120.5,55.1,118.1,55.1z"/>
</g>
</svg>
