<?xml version="1.0" encoding="utf-8"?>
<!-- Generator: Adobe Illustrator 26.0.3, SVG Export Plug-In . SVG Version: 6.00 Build 0)  -->
<svg version="1.1" id="Layer_1" xmlns="http://www.w3.org/2000/svg" xmlns:xlink="http://www.w3.org/1999/xlink" x="0px" y="0px"
	 viewBox="0 0 190 130" style="enable-background:new 0 0 190 130;" xml:space="preserve">
<style type="text/css">
	.st0{fill:#CFFFDA;stroke:#1D1D1B;stroke-width:0.5;stroke-miterlimit:10;}
	.st1{fill:#383838;stroke:#1D1D1B;stroke-width:0.5;stroke-miterlimit:10;}
	.st2{fill:none;stroke:#383838;stroke-width:2;stroke-linecap:round;stroke-linejoin:round;stroke-miterlimit:10;}
</style>
<g>
	<g>
		<path class="st0" d="M72.9,2h64.5c2.6-0.2,4.8,1.5,4.8,3.5v120c0,2-2.2,3.5-4.8,3.5H52.9c-2.7,0-4.8-1.6-4.8-3.5V25.2"/>
	</g>
	<g>
		<path class="st1" d="M73.2,1.8L73.3,22c0,2-2.2,3.5-4.8,3.5H47.8"/>
	</g>
</g>
<g>
	<rect x="68.8" y="54.5" class="st2" width="10.9" height="10.9"/>
	<rect x="89.7" y="54.5" class="st2" width="10.9" height="10.9"/>
	<rect x="110.5" y="54.5" class="st2" width="10.9" height="10.9"/>
	<rect x="68.8" y="73.2" class="st2" width="10.9" height="10.9"/>
	<rect x="110.6" y="73.2" class="st2" width="10.9" height="10.9"/>
	<rect x="68.9" y="92" class="st2" width="10.9" height="10.9"/>
	<rect x="89.8" y="92" class="st2" width="10.9" height="10.9"/>
	<rect x="110.6" y="92" class="st2" width="10.9" height="10.9"/>
</g>
</svg>
