<?xml version="1.0" encoding="utf-8"?>
<!-- Generator: Adobe Illustrator 26.0.3, SVG Export Plug-In . SVG Version: 6.00 Build 0)  -->
<svg version="1.1" id="Layer_1" xmlns="http://www.w3.org/2000/svg" xmlns:xlink="http://www.w3.org/1999/xlink" x="0px" y="0px"
	 viewBox="0 0 190 130" style="enable-background:new 0 0 190 130;" xml:space="preserve">
<style type="text/css">
	.st0{fill:#BBFF00;stroke:#1D1D1B;stroke-width:0.5;stroke-miterlimit:10;}
	.st1{fill:#383838;stroke:#1D1D1B;stroke-width:0.5;stroke-miterlimit:10;}
	.st2{fill:none;stroke:#383838;stroke-width:2;stroke-linecap:round;stroke-linejoin:round;stroke-miterlimit:10;}
</style>
<g>
	<g>
		<path class="st0" d="M72.9,2h64.5c2.6-0.2,4.8,1.5,4.8,3.5v120c0,2-2.2,3.5-4.8,3.5H52.9c-2.7,0-4.8-1.6-4.8-3.5V25.2"/>
	</g>
	<g>
		<path class="st1" d="M73.2,1.8L73.3,22c0,2-2.2,3.5-4.8,3.5H47.8"/>
	</g>
</g>
<g>
	<g>
		<line class="st2" x1="65.3" y1="46.8" x2="124.7" y2="46.8"/>
		<line class="st2" x1="65.3" y1="59.7" x2="124.7" y2="59.7"/>
		<line class="st2" x1="65.3" y1="72.6" x2="124.7" y2="72.6"/>
	</g>
</g>
<rect x="65.3" y="85.3" class="st2" width="12.3" height="12.3"/>
<rect x="88.9" y="85.3" class="st2" width="12.3" height="12.3"/>
<rect x="112.4" y="85.3" class="st2" width="12.3" height="12.3"/>
</svg>
