<?xml version="1.0" encoding="utf-8"?>
<!-- Generator: Adobe Illustrator 26.0.3, SVG Export Plug-In . SVG Version: 6.00 Build 0)  -->
<svg version="1.1" id="Layer_1" xmlns="http://www.w3.org/2000/svg" xmlns:xlink="http://www.w3.org/1999/xlink" x="0px" y="0px"
	 viewBox="0 0 190 130" style="enable-background:new 0 0 190 130;" xml:space="preserve">
<style type="text/css">
	.st0{fill:#FFEBD2;stroke:#1D1D1B;stroke-width:0.5;stroke-miterlimit:10;}
	.st1{fill:#383838;stroke:#1D1D1B;stroke-width:0.5;stroke-miterlimit:10;}
	.st2{fill:none;stroke:#383838;stroke-width:2;stroke-linecap:round;stroke-linejoin:round;stroke-miterlimit:10;}
	.st3{fill:none;stroke:#383838;stroke-width:5;stroke-linecap:round;stroke-linejoin:round;stroke-miterlimit:10;}
	.st4{clip-path:url(#SVGID_00000156558663000491397810000005973755066430252467_);}
	.st5{fill:#FFC25F;}
</style>
<g>
	<g>
		<path class="st0" d="M72.9,2h64.5c2.6-0.2,4.8,1.5,4.8,3.5v120c0,2-2.2,3.5-4.8,3.5H52.9c-2.7,0-4.8-1.6-4.8-3.5V25.2"/>
	</g>
	<g>
		<path class="st1" d="M73.2,1.8L73.3,22c0,2-2.2,3.5-4.8,3.5H47.8"/>
	</g>
</g>
<g>
	<g>
		<line class="st2" x1="99.3" y1="36" x2="124.7" y2="36"/>
		<line class="st2" x1="99.3" y1="48.7" x2="124.7" y2="48.7"/>
		<line class="st2" x1="99.3" y1="61.5" x2="124.7" y2="61.5"/>
		<line class="st2" x1="65.3" y1="74.4" x2="124.7" y2="74.4"/>
		<line class="st2" x1="65.3" y1="87.3" x2="124.7" y2="87.3"/>
		<line class="st2" x1="65.3" y1="100.2" x2="124.7" y2="100.2"/>
	</g>
</g>
<g>
	<g>
		<line class="st3" x1="21.5" y1="74.5" x2="30.9" y2="65"/>
		<line class="st3" x1="21.5" y1="74.5" x2="30.9" y2="83.9"/>
	</g>
	<g>
		<line class="st3" x1="168.5" y1="74.5" x2="159.1" y2="83.9"/>
		<line class="st3" x1="168.5" y1="74.5" x2="159.1" y2="65"/>
	</g>
</g>
<g>
	<g>
		<g>
			<g>
				<defs>
					<path id="SVGID_1_" d="M67.9,39.7H92c1.4,0,2.6,1.1,2.6,2.6v15.6c0,1.4-1.1,2.6-2.6,2.6H67.9c-1.4,0-2.6-1.1-2.6-2.6V42.3
						C65.3,40.9,66.5,39.7,67.9,39.7z"/>
				</defs>
				<clipPath id="SVGID_00000032612833887866142030000003669617726905520797_">
					<use xlink:href="#SVGID_1_"  style="overflow:visible;"/>
				</clipPath>
				<g style="clip-path:url(#SVGID_00000032612833887866142030000003669617726905520797_);">
					<path class="st5" d="M62.8,60.5l8.5-8.5c0.7-0.7,1.8-0.7,2.5,0l8.7,8.7"/>
					<path class="st5" d="M70.7,60.5L82.2,49c0.9-0.9,2.3-0.9,3.3,0l11.5,11.5"/>
					<circle class="st5" cx="76.5" cy="47" r="3"/>
				</g>
			</g>
		</g>
	</g>
	<path class="st2" d="M68.3,35h23.2c1.7,0,3,1.3,3,3v20.3c0,1.7-1.3,3-3,3H68.3c-1.7,0-3-1.3-3-3V38C65.3,36.3,66.7,35,68.3,35z"/>
</g>
</svg>
