<svg xmlns="http://www.w3.org/2000/svg" id="Layer_1" data-name="Layer 1" viewBox="0 0 160 160"><defs><style>.cls-1,.cls-5{fill:#fff;}.cls-2{fill:none;}.cls-2,.cls-5{stroke:#1d1d1b;stroke-miterlimit:10;}.cls-3{fill:#fa3154;}.cls-4{fill:#ededed;}</style></defs><rect class="cls-1" x="1" y="38.63" width="57.46" height="82.8" rx="7.18"></rect><rect class="cls-2" x="1" y="38.63" width="57.46" height="82.8" rx="7.18"></rect><rect class="cls-1" x="101.54" y="38.63" width="57.46" height="82.8" rx="7.18"></rect><rect class="cls-2" x="101.54" y="38.63" width="57.46" height="82.8" rx="7.18"></rect><rect class="cls-3" x="46.5" y="24.57" width="68.54" height="110.92" rx="9.07"></rect><path class="cls-4" d="M67.76,18.63,60.43,11.3a1.56,1.56,0,0,0-2.22,0L52,17.52,45.76,11.3a1.56,1.56,0,0,0-2.22,0l-6.22,6.22L31.1,11.3a1.56,1.56,0,0,0-2.22,0l-6.22,6.22L16.43,11.3a1.56,1.56,0,0,0-2.22,0L6.88,18.63a1.58,1.58,0,0,0,0,2.22,1.57,1.57,0,0,0,2.22,0l6.22-6.22,6.23,6.22a1.58,1.58,0,0,0,2.22,0L30,14.63l6.22,6.22h0a1.9,1.9,0,0,0,.45.31,1.71,1.71,0,0,0,.66.15,1.62,1.62,0,0,0,1.11-.46l6.22-6.22,6.23,6.22a1.53,1.53,0,0,0,1.11.46,1.56,1.56,0,0,0,1.11-.46l6.22-6.22,6.22,6.22a1.57,1.57,0,1,0,2.22-2.22Z"></path><path class="cls-5" d="M120.08,77.17,117.66,76V55.52a18.11,18.11,0,0,1,3.4,1.07,31.3,31.3,0,0,1,7.5,4.76L135,54.88a30.14,30.14,0,0,0-9.67-6.25,29.13,29.13,0,0,0-7.62-1.72V33h-6.29V46.8q-7.64.53-12.08,4.57Q94.17,56,94.18,64.5A15.89,15.89,0,0,0,97.72,75a28,28,0,0,0,10.14,7.25l3.51,1.6v21a38.84,38.84,0,0,1-8.05-1.08,61,61,0,0,1-9.68-3.26l-1.19,9.21a42,42,0,0,0,8.91,2.67,57.55,57.55,0,0,0,10,.88V127h6.29v-14c4.82-.59,8.62-1.93,11.38-4.06q5.73-4.39,5.72-13.2A15.82,15.82,0,0,0,131,84.79,33.07,33.07,0,0,0,120.08,77.17Zm-9.48-4.46a14.67,14.67,0,0,1-5-3.54A7.61,7.61,0,0,1,103.94,64c0-3,.86-5.17,2.58-6.68a9.25,9.25,0,0,1,4.85-2.08V73.07Zm11.3,30a11.29,11.29,0,0,1-4.24,1.74V86.74l1.42.65Q125,90.08,125,95.87,125,100.43,121.9,102.66Z"></path></svg>