<?xml version="1.0" encoding="utf-8"?>
<!-- Generator: Adobe Illustrator 26.0.3, SVG Export Plug-In . SVG Version: 6.00 Build 0)  -->
<svg version="1.1" id="Layer_1" xmlns="http://www.w3.org/2000/svg" xmlns:xlink="http://www.w3.org/1999/xlink" x="0px" y="0px"
	 viewBox="0 0 190 130" style="enable-background:new 0 0 190 130;" xml:space="preserve">
<style type="text/css">
	.st0{fill:#FDFFD2;stroke:#1D1D1B;stroke-width:0.5;stroke-miterlimit:10;}
	.st1{fill:#383838;stroke:#1D1D1B;stroke-width:0.5;stroke-miterlimit:10;}
	.st2{fill:#383838;}
	.st3{fill:#FFA705;stroke:#000000;stroke-width:3.3314;stroke-miterlimit:10;}
	.st4{fill:none;stroke:#000000;stroke-width:3.3314;stroke-linecap:round;stroke-linejoin:round;stroke-miterlimit:10;}
</style>
<g>
	<g>
		<path class="st0" d="M72.9,2h64.5c2.6-0.2,4.8,1.5,4.8,3.5v120c0,2-2.2,3.5-4.8,3.5H52.9c-2.7,0-4.8-1.6-4.8-3.5V25.2"/>
	</g>
	<g>
		<path class="st1" d="M73.2,1.8L73.3,22c0,2-2.2,3.5-4.8,3.5H47.8"/>
	</g>
</g>
<path class="st2" d="M121.4,53.5h-4.7v-9.6c0-0.6-0.4-1-1-1h-9.4v-9.1c0-0.6-0.4-1-1-1H84.6c-0.6,0-1,0.4-1,1v9.1h-9.4
	c-0.6,0-1,0.4-1,1v9.6h-4.5c-0.6,0-1,0.4-1,1v10.9c0,0.6,0.4,1,1,1h10.9c0.6,0,1-0.4,1-1V54.5c0-0.6-0.4-1-1-1h-4.5v-8.6H94v8.6
	h-4.3c-0.6,0-1,0.4-1,1v10.9c0,0.6,0.4,1,1,1h10.9c0.6,0,1-0.4,1-1V54.5c0-0.6-0.4-1-1-1H96v-8.6h18.8v8.6h-4.2c-0.6,0-1,0.4-1,1
	v10.9c0,0.6,0.4,1,1,1h10.9c0.6,0,1-0.4,1-1V54.5C122.4,53.9,122,53.5,121.4,53.5z M78.7,64.4h-8.9v-8.9h8.9V64.4z M99.6,64.4h-8.9
	v-8.9h8.9V64.4z M85.6,42.9v-8.1h18.8v8.1H95H85.6z M120.4,64.4h-8.9v-8.9h8.9V64.4z"/>
<g>
	<path class="st3" d="M160.6,86l-5,21.2c-0.5,2.3-2.4,3.8-4.8,3.8h-36.7c-1.2,0-2.4-0.4-3.5-1.1c-1.5-1-2.6-2.6-3.1-4.3l-5.4-19
		c-0.1-0.5-0.3-0.9-0.5-1.4c-1.8-3.9,0.3-7.9,4.3-7.9h47.8C157.9,77.3,161.6,81.9,160.6,86z"/>
	<circle class="st4" cx="145.2" cy="122.4" r="5.3"/>
	<circle class="st4" cx="119.4" cy="122.4" r="5.3"/>
	<path class="st4" d="M155.8,106.8l5.5-24.3c0,0,3-16.1,19-16.1"/>
</g>
</svg>
