<?xml version="1.0" encoding="utf-8"?>
<!-- Generator: Adobe Illustrator 26.0.3, SVG Export Plug-In . SVG Version: 6.00 Build 0)  -->
<svg version="1.1" id="Layer_1" xmlns="http://www.w3.org/2000/svg" xmlns:xlink="http://www.w3.org/1999/xlink" x="0px" y="0px"
	 viewBox="0 0 190 130" style="enable-background:new 0 0 190 130;" xml:space="preserve">
<style type="text/css">
	.st0{fill:#6ED6FF;stroke:#1D1D1B;stroke-width:0.5;stroke-miterlimit:10;}
	.st1{fill:#383838;stroke:#1D1D1B;stroke-width:0.5;stroke-miterlimit:10;}
	.st2{clip-path:url(#SVGID_00000011029676749009501070000002096346378149337775_);}
	.st3{fill:#EDEDED;}
	.st4{fill:none;stroke:#1D1D1B;stroke-width:0.6849;stroke-miterlimit:10;}
	.st5{fill:#FFA705;stroke:#000000;stroke-width:3.3314;stroke-miterlimit:10;}
	.st6{fill:none;stroke:#000000;stroke-width:3.3314;stroke-linecap:round;stroke-linejoin:round;stroke-miterlimit:10;}
</style>
<g>
	<g>
		<path class="st0" d="M56.8,2h64.5c2.6-0.2,4.8,1.5,4.8,3.5v120c0,2-2.2,3.5-4.8,3.5H36.8c-2.7,0-4.8-1.6-4.8-3.5V25.2"/>
	</g>
	<g>
		<path class="st1" d="M57.1,1.8L57.2,22c0,2-2.2,3.5-4.8,3.5H31.7"/>
	</g>
</g>
<g>
	<g>
		<g>
			<defs>
				<path id="SVGID_1_" d="M19.8,33.9h49.3c2.9,0,5.3,2.3,5.3,5.3v32c0,2.9-2.3,5.3-5.3,5.3H19.8c-2.9,0-5.3-2.3-5.3-5.3v-32
					C14.6,36.2,16.9,33.9,19.8,33.9z"/>
			</defs>
			<clipPath id="SVGID_00000092426469851563857600000010597182053462895039_">
				<use xlink:href="#SVGID_1_"  style="overflow:visible;"/>
			</clipPath>
			<g style="clip-path:url(#SVGID_00000092426469851563857600000010597182053462895039_);">
				<path class="st3" d="M9.5,76.4l17.5-17.5c1.4-1.4,3.7-1.4,5.1,0l17.8,17.8"/>
				<path class="st3" d="M25.5,76.3L49,52.9c1.9-1.9,4.8-1.9,6.7,0l23.5,23.5"/>
				<circle class="st3" cx="37.5" cy="48.7" r="6.2"/>
			</g>
		</g>
	</g>
</g>
<path class="st4" d="M19.8,33.9h49.3c2.9,0,5.3,2.3,5.3,5.3v32c0,2.9-2.3,5.3-5.3,5.3H19.8c-2.9,0-5.3-2.3-5.3-5.3v-32
	C14.6,36.2,16.9,33.9,19.8,33.9z"/>
<g>
	<path class="st5" d="M154.2,85.1l-5,21.2c-0.5,2.3-2.4,3.8-4.8,3.8h-36.7c-1.2,0-2.4-0.4-3.5-1.1c-1.5-1-2.6-2.6-3.1-4.3l-5.4-19
		c-0.1-0.5-0.3-0.9-0.5-1.4c-1.8-3.9,0.3-7.9,4.3-7.9h47.8C151.5,76.4,155.2,81,154.2,85.1z"/>
	<circle class="st6" cx="138.8" cy="121.5" r="5.3"/>
	<circle class="st6" cx="113" cy="121.5" r="5.3"/>
	<path class="st6" d="M149.4,105.9l5.5-24.3c0,0,3-16.1,19-16.1"/>
</g>
</svg>
