<?xml version="1.0" encoding="utf-8"?>
<!-- Generator: Adobe Illustrator 26.0.3, SVG Export Plug-In . SVG Version: 6.00 Build 0)  -->
<svg version="1.1" id="Layer_1" xmlns="http://www.w3.org/2000/svg" xmlns:xlink="http://www.w3.org/1999/xlink" x="0px" y="0px"
	 viewBox="0 0 190 130" style="enable-background:new 0 0 190 130;" xml:space="preserve">
<style type="text/css">
	.st0{fill:#FFD4F3;stroke:#1D1D1B;stroke-width:0.5;stroke-miterlimit:10;}
	.st1{fill:#383838;stroke:#1D1D1B;stroke-width:0.5;stroke-miterlimit:10;}
	.st2{fill:#FFA705;stroke:#000000;stroke-width:3.3314;stroke-miterlimit:10;}
	.st3{fill:none;stroke:#000000;stroke-width:3.3314;stroke-linecap:round;stroke-linejoin:round;stroke-miterlimit:10;}
	.st4{fill:#00A8A8;stroke:#1D1D1B;stroke-width:0.3801;stroke-miterlimit:10;}
</style>
<g>
	<g>
		<path class="st0" d="M72.9,2h64.5c2.6-0.2,4.8,1.5,4.8,3.5v120c0,2-2.2,3.5-4.8,3.5H52.9c-2.7,0-4.8-1.6-4.8-3.5V25.2"/>
	</g>
	<g>
		<path class="st1" d="M73.2,1.8L73.3,22c0,2-2.2,3.5-4.8,3.5H47.8"/>
	</g>
</g>
<g>
	<path class="st2" d="M160.6,86l-5,21.2c-0.5,2.3-2.4,3.8-4.8,3.8h-36.7c-1.2,0-2.4-0.4-3.5-1.1c-1.5-1-2.6-2.6-3.1-4.3l-5.4-19
		c-0.1-0.5-0.3-0.9-0.5-1.4c-1.8-3.9,0.3-7.9,4.3-7.9h47.8C157.9,77.3,161.6,81.9,160.6,86z"/>
	<circle class="st3" cx="145.2" cy="122.4" r="5.3"/>
	<circle class="st3" cx="119.4" cy="122.4" r="5.3"/>
	<path class="st3" d="M155.8,106.8l5.5-24.3c0,0,3-16.1,19-16.1"/>
</g>
<path class="st4" d="M95.7,76.4l13.4-13.4c2.1-2.1,2.1-5.5,0-7.5L89.5,35.8c-0.8-0.8-1.9-1.3-3-1.5l-15.6-2.2c-3.5-0.5-6.5,2.5-6,6
	L67,53.7c0.2,1.1,0.7,2.2,1.5,3l19.6,19.6C90.2,78.5,93.6,78.5,95.7,76.4z M73.2,40.5c1.5-1.5,3.8-1.5,5.3,0c1.5,1.5,1.5,3.8,0,5.3
	c-1.5,1.5-3.8,1.5-5.3,0C71.7,44.3,71.7,41.9,73.2,40.5z"/>
</svg>
