<svg xmlns="http://www.w3.org/2000/svg" id="Layer_1" data-name="Layer 1" viewBox="0 0 160 160"><defs><style>.cls-1,.cls-3{fill:none;stroke-miterlimit:10;}.cls-1{stroke:#dadada;stroke-width:2px;}.cls-2{fill:#fff;}.cls-3{stroke:#1d1d1b;}.cls-4{fill:#ac33e6;}.cls-5{fill:#fa3154;}</style></defs><circle class="cls-1" cx="100.99" cy="80.03" r="29.46"></circle><circle class="cls-1" cx="100.99" cy="80.03" r="19.32"></circle><circle class="cls-1" cx="100.99" cy="80.03" r="8.98"></circle><circle class="cls-1" cx="100.99" cy="80.03" r="41.4"></circle><rect class="cls-2" x="3.11" y="63.25" width="155.33" height="33.57" rx="7.51"></rect><rect class="cls-3" x="3.11" y="63.25" width="155.33" height="33.57" rx="7.51"></rect><path class="cls-4" d="M61.93,82.59,54.6,75.26a1.56,1.56,0,0,0-2.22,0l-6.22,6.22-6.22-6.22a1.56,1.56,0,0,0-2.22,0L31.5,81.48l-6.23-6.22a1.56,1.56,0,0,0-2.22,0l-6.22,6.22-6.22-6.22a1.56,1.56,0,0,0-2.22,0L1.06,82.59a1.57,1.57,0,0,0,1.11,2.68,1.6,1.6,0,0,0,1.11-.46L9.5,78.59l6.22,6.22a1.58,1.58,0,0,0,2.22,0l6.22-6.22,6.22,6.22h0a1.57,1.57,0,0,0,.45.31,1.67,1.67,0,0,0,.66.15,1.58,1.58,0,0,0,.86-.26,2.43,2.43,0,0,0,.25-.2l6.22-6.22,6.22,6.22a1.57,1.57,0,0,0,2.22,0l6.22-6.22,6.23,6.22a1.57,1.57,0,1,0,2.21-2.22Z"></path><path class="cls-5" d="M157.49,125.76l-25.31-25.41a36.52,36.52,0,1,0-9.74,9.73l25.31,25.41a3.25,3.25,0,0,0,4.61,0l5.13-5.12A3.27,3.27,0,0,0,157.49,125.76ZM83.88,101.19a28,28,0,1,1,36.18,0A28,28,0,0,1,83.88,101.19Z"></path></svg>