<?xml version="1.0" encoding="utf-8"?>
<!-- Generator: Adobe Illustrator 28.2.0, SVG Export Plug-In . SVG Version: 6.00 Build 0)  -->
<svg version="1.1" id="Layer_1" xmlns="http://www.w3.org/2000/svg" xmlns:xlink="http://www.w3.org/1999/xlink" x="0px" y="0px"
	 viewBox="0 0 190 130" style="enable-background:new 0 0 190 130;" xml:space="preserve">
<style type="text/css">
	.st0{fill:#8F00FF;}
	.st1{fill:#FFFFFF;}
	.st2{fill:none;stroke:#FFFFFF;stroke-width:3;stroke-linecap:round;stroke-linejoin:round;stroke-miterlimit:133.3333;}
	.st3{fill:#FF0000;}
	.st4{fill:#FFFF00;}
	.st5{fill:#00FF7F;}
</style>
<g>
	<path class="st0" d="M5.9,129.5h178.8c3.1,0,5.6-2.5,5.6-5.6V6.1c0-3.1-2.5-5.6-5.6-5.6H5.9C2.8,0.5,0.3,3,0.3,6.1v118
		C0.3,127,2.8,129.5,5.9,129.5z"/>
</g>
<g>
	<polygon class="st1" points="20.5,50.4 17.4,50.4 17.4,81.5 32.5,81.5 32.5,78.5 20.5,78.5 	"/>
	<path class="st1" d="M48,57.9c-3.5,0-6.5,1.3-8.9,3.9c-2.1,2.4-3.2,5.1-3.2,8.3c0,3.2,1.1,6.1,3.4,8.4c2.3,2.4,5.1,3.6,8.7,3.6
		c3.5,0,6.5-1.2,8.7-3.6C58.9,76,60,73.2,60,70c0-3.2-1.1-6-3.2-8.4C54.5,59.2,51.6,57.9,48,57.9z M55.9,74.8
		c-0.8,1.4-1.9,2.5-3.3,3.3c-1.4,0.8-2.9,1.2-4.6,1.2c-1.7,0-3.2-0.4-4.6-1.2c-1.4-0.8-2.4-1.9-3.3-3.3c-0.8-1.4-1.2-3-1.2-4.7
		c0-2.6,0.9-4.8,2.7-6.6c1.8-1.8,3.9-2.8,6.4-2.8c2.4,0,4.6,0.9,6.4,2.8c1.8,1.8,2.7,4,2.7,6.6C57,71.8,56.6,73.4,55.9,74.8z"/>
	<path class="st1" d="M85.6,62.5c-1.4-1.7-2.8-2.8-4.3-3.5c-1.5-0.7-3.2-1.1-4.9-1.1c-2.1,0-4.1,0.6-6,1.6C68.5,60.5,67,62,66,63.8
		c-1.1,1.8-1.6,3.9-1.6,6c0,2.1,0.5,4.1,1.5,5.8c1,1.8,2.4,3.2,4.3,4.3c1.9,1,3.9,1.6,6,1.6c1.8,0,3.5-0.4,5.1-1.1
		c1.7-0.8,3-1.8,4.1-3.2v1.2c0,2.5-0.3,4.4-0.9,5.5c-0.6,1.1-1.6,2-3,2.8c-1.4,0.8-3.2,1.1-5.1,1.1c-2,0-3.8-0.4-5.2-1.1
		c-1.4-0.7-2.5-1.9-3.4-3.4h-3.2c0.9,1.8,1.7,3.2,2.8,4.1c1,0.9,2.3,1.7,3.9,2.3c1.6,0.6,3.4,0.9,5.4,0.9c2.7,0,5-0.6,6.9-1.7
		c1.9-1.2,3.3-2.8,4.1-4.9c0.6-1.5,0.9-3.9,0.9-7.1V58.5h-3L85.6,62.5L85.6,62.5z M83.2,76.3c-1.7,1.7-3.9,2.4-6.6,2.4
		c-2.7,0-4.9-0.8-6.6-2.4c-1.7-1.7-2.5-3.8-2.5-6.3c0-1.7,0.4-3.2,1.3-4.7c0.8-1.4,2-2.5,3.4-3.4c1.4-0.8,3-1.2,4.7-1.2
		c1.7,0,3.2,0.4,4.6,1.2c1.4,0.8,2.5,1.9,3.2,3.2c0.7,1.3,1.2,2.9,1.2,4.7C85.7,72.5,84.9,74.6,83.2,76.3z"/>
	<path class="st1" d="M114.8,61.7c-2.4-2.6-5.3-3.9-8.9-3.9c-3.5,0-6.5,1.3-8.9,3.9c-2.1,2.4-3.2,5.1-3.2,8.3c0,3.2,1.1,6.1,3.4,8.4
		c2.3,2.4,5.1,3.6,8.7,3.6c3.5,0,6.5-1.2,8.7-3.6c2.3-2.4,3.4-5.2,3.4-8.4C118,66.8,116.9,64.1,114.8,61.7z M113.8,74.8
		c-0.8,1.4-1.9,2.5-3.3,3.3c-1.4,0.8-2.9,1.2-4.6,1.2c-1.7,0-3.2-0.4-4.6-1.2c-1.4-0.8-2.4-1.9-3.3-3.3c-0.8-1.4-1.2-3-1.2-4.7
		c0-2.6,0.9-4.8,2.7-6.6c1.8-1.8,3.9-2.8,6.4-2.8s4.6,0.9,6.4,2.8s2.7,4,2.7,6.6C115,71.8,114.6,73.4,113.8,74.8z"/>
</g>
<path class="st2" d="M159.2,71.6V59.2 M159.2,59.2h-12.4 M159.2,59.2l-16.5,16.5 M137.7,89.5h26.4c3.1,0,4.6,0,5.8-0.6
	c1-0.5,1.9-1.4,2.4-2.4c0.6-1.2,0.6-2.7,0.6-5.8V54.2c0-3.1,0-4.6-0.6-5.8c-0.5-1-1.4-1.9-2.4-2.4c-1.2-0.6-2.7-0.6-5.8-0.6h-26.4
	c-3.1,0-4.6,0-5.8,0.6c-1,0.5-1.9,1.4-2.4,2.4c-0.6,1.2-0.6,2.7-0.6,5.8v26.4c0,3.1,0,4.6,0.6,5.8c0.5,1,1.4,1.9,2.4,2.4
	C133.1,89.5,134.6,89.5,137.7,89.5z"/>
<g>
	<circle class="st3" cx="17.7" cy="21.4" r="4.6"/>
	<circle class="st4" cx="32.5" cy="21.4" r="4.6"/>
	<circle class="st5" cx="47.3" cy="21.4" r="4.6"/>
</g>
</svg>
