<?xml version="1.0" encoding="utf-8"?>
<!-- Generator: Adobe Illustrator 26.0.3, SVG Export Plug-In . SVG Version: 6.00 Build 0)  -->
<svg version="1.1" id="Layer_1" xmlns="http://www.w3.org/2000/svg" xmlns:xlink="http://www.w3.org/1999/xlink" x="0px" y="0px"
	 viewBox="0 0 190 130" style="enable-background:new 0 0 190 130;" xml:space="preserve">
<style type="text/css">
	.st0{fill:#CCA9FF;stroke:#1D1D1B;stroke-miterlimit:10;}
	.st1{fill:#FF0000;}
	.st2{fill:#FFFF00;}
	.st3{fill:#00FF7F;}
	.st4{fill:#FDE34B;}
	.st5{fill:#383838;stroke:#1D1D1B;stroke-width:0.5;stroke-miterlimit:10;}
</style>
<g>
	<path class="st0" d="M14.1,122.4h161.8c2.8,0,5.1-2.2,5.1-5V12.6c0-2.8-2.3-5-5.1-5H14.1c-2.8,0-5.1,2.2-5.1,5v105
		C9,120.2,11.3,122.4,14.1,122.4z"/>
</g>
<g>
	<circle class="st1" cx="20.4" cy="18.8" r="4.6"/>
	<circle class="st2" cx="35.2" cy="18.8" r="4.6"/>
	<circle class="st3" cx="50" cy="18.8" r="4.6"/>
</g>
<circle class="st4" cx="110.4" cy="69.3" r="2.5"/>
<circle class="st4" cx="122.3" cy="69.3" r="2.5"/>
<circle class="st4" cx="134.2" cy="69.3" r="2.5"/>
<circle class="st4" cx="146.2" cy="69.3" r="2.5"/>
<circle class="st4" cx="110.4" cy="81.4" r="2.5"/>
<circle class="st4" cx="122.3" cy="81.4" r="2.5"/>
<circle class="st4" cx="134.2" cy="81.4" r="2.5"/>
<circle class="st4" cx="146.2" cy="81.4" r="2.5"/>
<g>
	<path class="st5" d="M107.3,52.1h-8.5v24.2c0,1.6-0.4,2.8-1.1,3.6c-0.7,0.8-1.6,1.2-2.8,1.2s-2.1-0.4-2.8-1.2s-1-2-1-3.6V52.1h-8.5
		c-1.3,0-2.3-0.2-3-0.9c-0.6-0.6-0.9-1.3-0.9-2.3s0.3-1.8,1-2.3c0.7-0.6,1.6-0.9,3-0.9h24.7c1.3,0,2.3,0.3,3,0.9
		c0.6,0.6,0.9,1.4,0.9,2.3s-0.3,1.7-1,2.3C109.6,51.8,108.6,52.1,107.3,52.1z"/>
</g>
</svg>
