<?xml version="1.0" encoding="utf-8"?>
<!-- Generator: Adobe Illustrator 28.2.0, SVG Export Plug-In . SVG Version: 6.00 Build 0)  -->
<svg version="1.1" id="Layer_1" xmlns="http://www.w3.org/2000/svg" xmlns:xlink="http://www.w3.org/1999/xlink" x="0px" y="0px"
	 viewBox="0 0 190 129" style="enable-background:new 0 0 190 129;" xml:space="preserve">
<style type="text/css">
	.st0{fill:#0E5F4C;stroke:#E9D718;stroke-miterlimit:10;}
	.st1{fill:none;stroke:#FF9700;stroke-width:2;stroke-linecap:round;stroke-linejoin:round;stroke-miterlimit:133.3333;}
	.st2{opacity:0.5;fill:#E6ED58;}
	.st3{opacity:0.5;fill:#62BB46;}
	.st4{fill:none;stroke:#000000;stroke-width:2;stroke-linecap:round;stroke-linejoin:round;stroke-miterlimit:133.3333;}
	.st5{fill:none;stroke:#73FFC6;stroke-width:2;stroke-linecap:round;stroke-linejoin:round;stroke-miterlimit:133.3333;}
</style>
<g>
	<path class="st0" d="M36.1,108.1h120.9c2.1,0,3.8-1.7,3.8-3.8V24.7c0-2.1-1.7-3.8-3.8-3.8H36.1c-2.1,0-3.8,1.7-3.8,3.8v79.8
		C32.3,106.4,34,108.1,36.1,108.1z"/>
</g>
<path class="st1" d="M161.6,70.2l5.7-5.7 M167.3,64.5l-5.7-5.7 M167.3,64.5h-15.1"/>
<circle class="st2" cx="48.7" cy="43.7" r="34.4"/>
<circle class="st3" cx="152.2" cy="98.5" r="17.2"/>
<path class="st4" d="M28.9,58.8l-5.7,5.7 M23.2,64.5l5.7,5.7 M23.2,64.5h15.1"/>
<g>
	<line class="st5" x1="59.5" y1="53.1" x2="133.5" y2="53.1"/>
	<line class="st5" x1="59.5" y1="64.5" x2="133.5" y2="64.5"/>
	<line class="st5" x1="59.5" y1="75.8" x2="133.5" y2="75.8"/>
</g>
</svg>
