<svg xmlns="http://www.w3.org/2000/svg" id="Layer_1" data-name="Layer 1" viewBox="0 0 160 160"><defs><style>.cls-1{fill:#e30613;}.cls-2{fill:#fdc021;}.cls-3{fill:#fff;}.cls-4{fill:none;stroke:#e30613;stroke-linecap:round;stroke-linejoin:round;stroke-width:2px;}</style></defs><circle class="cls-1" cx="17.97" cy="49.66" r="1.95"></circle><circle class="cls-1" cx="27.3" cy="49.66" r="1.95"></circle><circle class="cls-1" cx="36.63" cy="49.66" r="1.95"></circle><circle class="cls-1" cx="45.96" cy="49.66" r="1.95"></circle><circle class="cls-1" cx="17.97" cy="59.18" r="1.95"></circle><circle class="cls-1" cx="27.3" cy="59.18" r="1.95"></circle><circle class="cls-1" cx="36.63" cy="59.18" r="1.95"></circle><circle class="cls-1" cx="45.96" cy="59.18" r="1.95"></circle><circle class="cls-1" cx="17.97" cy="68.7" r="1.95"></circle><circle class="cls-1" cx="27.3" cy="68.7" r="1.95"></circle><circle class="cls-1" cx="36.63" cy="68.7" r="1.95"></circle><circle class="cls-1" cx="45.96" cy="68.7" r="1.95"></circle><circle class="cls-1" cx="17.97" cy="78.23" r="1.95"></circle><circle class="cls-1" cx="27.3" cy="78.23" r="1.95"></circle><circle class="cls-1" cx="36.63" cy="78.23" r="1.95"></circle><circle class="cls-1" cx="45.96" cy="78.23" r="1.95"></circle><circle class="cls-2" cx="80" cy="80.51" r="38.07"></circle><path class="cls-3" d="M81.34,98.66l-15.84-14a5,5,0,0,1,0-7.12l15.84-14A5,5,0,0,1,90,67.13v28A5,5,0,0,1,81.34,98.66Z"></path><path class="cls-4" d="M20.2,116.47a7.87,7.87,0,0,0,7.87,5.93c5.76,0,7.29-5.61,7.39-5.93.67-2,2.61-6.56,7.52-6.56,6.64,0,7.12,6.56,7.12,6.56"></path><path class="cls-4" d="M50.1,116.44A7.87,7.87,0,0,0,58,122.37c5.76,0,7.29-5.61,7.4-5.93.67-2,2.6-13.65,7.52-13.65,6.63,0,7.11,13.65,7.11,13.65"></path><path class="cls-4" d="M80,116.41a7.88,7.88,0,0,0,7.87,5.93c5.76,0,7.29-5.61,7.4-5.93.67-2,2.61-8.3,7.52-8.3,6.63,0,7.11,8.3,7.11,8.3"></path><path class="cls-4" d="M109.9,116.38s.9,12.65,7.47,12.65c5.76,0,7.7-12.33,7.8-12.65.67-2,2.61-6.57,7.52-6.57,6.63,0,7.11,6.57,7.11,6.57"></path></svg>