<?xml version="1.0" encoding="utf-8"?>
<!-- Generator: Adobe Illustrator 26.0.3, SVG Export Plug-In . SVG Version: 6.00 Build 0)  -->
<svg version="1.1" id="Layer_1" xmlns="http://www.w3.org/2000/svg" xmlns:xlink="http://www.w3.org/1999/xlink" x="0px" y="0px"
	 viewBox="0 0 190 130" style="enable-background:new 0 0 190 130;" xml:space="preserve">
<style type="text/css">
	.st0{fill:#FFFED9;stroke:#1D1D1B;stroke-width:0.5;stroke-miterlimit:10;}
	.st1{fill:#FDC021;}
	.st2{fill:#AC33E6;}
	.st3{fill:#F89B0B;stroke:#1D1D1B;stroke-width:0.4281;stroke-miterlimit:10;}
	.st4{fill:#F89B0B;stroke:#1D1D1B;stroke-width:0.5856;stroke-miterlimit:10;}
</style>
<path class="st0" d="M179.3,17.3h-47.7c-4,0-7.3,3.3-7.3,7.3v24.1c0,3.6-2.9,6.5-6.5,6.5H9.2c-3.3,0-6,2.7-6,6V108c0,3.3,2.7,6,6,6
	h171.3c3.3,0,6-2.7,6-6V77.7V58.4V24.5C186.6,20.5,183.3,17.3,179.3,17.3z"/>
<g>
	<g>
		<path class="st1" d="M131.3,20.7h48.3c2.1,0,3.7,1.7,3.7,3.7v23.7c0,2.1-1.7,3.7-3.7,3.7h-48.3c-2.1,0-3.7-1.7-3.7-3.7V24.4
			C127.5,22.4,129.2,20.7,131.3,20.7z"/>
	</g>
	<g>
		<path class="st2" d="M68.7,20.7H117c2.1,0,3.7,1.7,3.7,3.7v23.7c0,2.1-1.7,3.7-3.7,3.7H68.7c-2.1,0-3.7-1.7-3.7-3.7V24.4
			C65,22.4,66.7,20.7,68.7,20.7z"/>
	</g>
	<g>
		<path class="st2" d="M10.2,20.7h48.3c2.1,0,3.7,1.7,3.7,3.7v23.7c0,2.1-1.7,3.7-3.7,3.7H10.2c-2.1,0-3.7-1.7-3.7-3.7V24.4
			C6.5,22.4,8.1,20.7,10.2,20.7z"/>
	</g>
</g>
<g>
	<path class="st1" d="M40.8,78.2c0-0.9-0.7-1.6-1.6-1.6c-0.9,0-1.6,0.7-1.6,1.6s0.7,1.6,1.6,1.6C40.1,79.8,40.8,79.1,40.8,78.2z"/>
	<path class="st1" d="M40.8,86c0-0.9-0.7-1.6-1.6-1.6c-0.9,0-1.6,0.7-1.6,1.6s0.7,1.6,1.6,1.6C40.1,87.7,40.8,86.9,40.8,86z"/>
	<path class="st1" d="M40.8,93.9c0-0.9-0.7-1.6-1.6-1.6c-0.9,0-1.6,0.7-1.6,1.6s0.7,1.6,1.6,1.6C40.1,95.5,40.8,94.8,40.8,93.9z"/>
	<path class="st1" d="M40.8,101.7c0-0.9-0.7-1.6-1.6-1.6c-0.9,0-1.6,0.7-1.6,1.6c0,0.9,0.7,1.6,1.6,1.6
		C40.1,103.3,40.8,102.6,40.8,101.7z"/>
	<path class="st1" d="M32.8,78.2c0-0.9-0.7-1.6-1.6-1.6c-0.9,0-1.6,0.7-1.6,1.6s0.7,1.6,1.6,1.6C32.1,79.8,32.8,79.1,32.8,78.2z"/>
	<path class="st1" d="M32.8,86c0-0.9-0.7-1.6-1.6-1.6c-0.9,0-1.6,0.7-1.6,1.6s0.7,1.6,1.6,1.6C32.1,87.7,32.8,86.9,32.8,86z"/>
	<path class="st1" d="M32.8,93.9c0-0.9-0.7-1.6-1.6-1.6c-0.9,0-1.6,0.7-1.6,1.6s0.7,1.6,1.6,1.6C32.1,95.5,32.8,94.8,32.8,93.9z"/>
	<path class="st1" d="M32.8,101.7c0-0.9-0.7-1.6-1.6-1.6c-0.9,0-1.6,0.7-1.6,1.6c0,0.9,0.7,1.6,1.6,1.6
		C32.1,103.3,32.8,102.6,32.8,101.7z"/>
	<circle class="st1" cx="23.2" cy="78.2" r="1.6"/>
	<circle class="st1" cx="23.2" cy="86" r="1.6"/>
	<path class="st1" d="M24.8,93.9c0-0.9-0.7-1.6-1.6-1.6c-0.9,0-1.6,0.7-1.6,1.6s0.7,1.6,1.6,1.6C24.1,95.5,24.8,94.8,24.8,93.9z"/>
	<circle class="st1" cx="23.2" cy="101.7" r="1.6"/>
	<circle class="st1" cx="15.2" cy="86" r="1.6"/>
	<path class="st1" d="M16.8,93.9c0-0.9-0.7-1.6-1.6-1.6c-0.9,0-1.6,0.7-1.6,1.6s0.7,1.6,1.6,1.6C16.1,95.5,16.8,94.8,16.8,93.9z"/>
	<path class="st1" d="M73.1,86c0-0.9-0.7-1.6-1.6-1.6c-0.9,0-1.6,0.7-1.6,1.6s0.7,1.6,1.6,1.6C72.4,87.7,73.1,86.9,73.1,86z"/>
	<path class="st1" d="M73.1,93.9c0-0.9-0.7-1.6-1.6-1.6c-0.9,0-1.6,0.7-1.6,1.6s0.7,1.6,1.6,1.6C72.4,95.5,73.1,94.8,73.1,93.9z"/>
	<circle class="st1" cx="63.5" cy="78.2" r="1.6"/>
	<circle class="st1" cx="63.5" cy="86" r="1.6"/>
	<path class="st1" d="M65.1,93.9c0-0.9-0.7-1.6-1.6-1.6c-0.9,0-1.6,0.7-1.6,1.6s0.7,1.6,1.6,1.6C64.4,95.5,65.1,94.8,65.1,93.9z"/>
	<circle class="st1" cx="63.5" cy="101.7" r="1.6"/>
	<circle class="st1" cx="55.5" cy="78.2" r="1.6"/>
	<circle class="st1" cx="55.5" cy="86" r="1.6"/>
	<path class="st1" d="M57.1,93.9c0-0.9-0.7-1.6-1.6-1.6s-1.6,0.7-1.6,1.6s0.7,1.6,1.6,1.6S57.1,94.8,57.1,93.9z"/>
	<circle class="st1" cx="55.5" cy="101.7" r="1.6"/>
	<circle class="st1" cx="47.5" cy="78.2" r="1.6"/>
	<circle class="st1" cx="47.5" cy="86" r="1.6"/>
	<path class="st1" d="M49.1,93.9c0-0.9-0.7-1.6-1.6-1.6s-1.6,0.7-1.6,1.6s0.7,1.6,1.6,1.6S49.1,94.8,49.1,93.9z"/>
	<circle class="st1" cx="47.5" cy="101.7" r="1.6"/>
</g>
<g>
	<polygon class="st3" points="168.3,98.3 165.2,99.6 163.9,102.7 162.6,99.6 159.5,98.3 162.6,97.1 163.9,94 165.2,97.1 	"/>
</g>
<g>
	<polygon class="st4" points="177.9,91.4 173.7,93.2 172,97.4 170.3,93.2 166,91.4 170.2,89.7 172,85.5 173.7,89.7 	"/>
</g>
</svg>
