<?xml version="1.0" encoding="utf-8"?>
<!-- Generator: Adobe Illustrator 26.0.3, SVG Export Plug-In . SVG Version: 6.00 Build 0)  -->
<svg version="1.1" id="Layer_1" xmlns="http://www.w3.org/2000/svg" xmlns:xlink="http://www.w3.org/1999/xlink" x="0px" y="0px"
	 viewBox="0 0 190 130" style="enable-background:new 0 0 190 130;" xml:space="preserve">
<style type="text/css">
	.st0{fill:#FFFFFF;stroke:#1D1D1B;stroke-miterlimit:10;}
	.st1{fill:#FFFFFF;stroke:#000000;stroke-miterlimit:10;}
	.st2{fill:#69B42D;stroke:#1D1D1B;stroke-miterlimit:10;}
	.st3{fill:#26E5F9;stroke:#000000;stroke-miterlimit:10;}
	.st4{fill:#FFFFFF;stroke:#1D1D1B;stroke-width:1.1742;stroke-miterlimit:10;}
</style>
<circle class="st0" cx="75.2" cy="52.8" r="23.9"/>
<path class="st1" d="M113.9,118.7c0-21.4-17.4-38.8-38.8-38.8s-38.8,17.4-38.8,38.8"/>
<ellipse transform="matrix(0.1091 -0.994 0.994 0.1091 61.9093 148.677)" class="st2" cx="113.9" cy="39.8" rx="28.5" ry="28.5"/>
<path class="st3" d="M160.3,118.7c0-25.6-20.8-46.4-46.4-46.4s-46.4,20.8-46.4,46.4"/>
<path class="st4" d="M162.1,78.4l12.3-12.3l0,0l0,0c0.4-0.4,0.4-1.1,0-1.5l-12.3-12.3c-0.9-0.9-2.4-0.9-3.3,0l0,0
	c-0.9,0.9-0.9,2.4,0,3.3l8.8,8.8c0.5,0.5,0.5,1.3,0,1.9l-8.9,8.8c-0.9,0.9-0.9,2.4,0,3.3l0,0C159.7,79.3,161.2,79.3,162.1,78.4z"/>
<path class="st4" d="M28,52.3L15.7,64.6l0,0l0,0c-0.4,0.4-0.4,1.1,0,1.5L28,78.4c0.9,0.9,2.4,0.9,3.3,0l0,0c0.9-0.9,0.9-2.4,0-3.3
	l-8.9-8.8c-0.5-0.5-0.5-1.3,0-1.8l0,0l8.8-8.8c0.9-0.9,0.9-2.4,0-3.3l0,0C30.4,51.4,28.9,51.4,28,52.3z"/>
</svg>
