<svg xmlns="http://www.w3.org/2000/svg" id="Layer_1" data-name="Layer 1" viewBox="0 0 160 160"><defs><style>.cls-1{fill:#ededed;}.cls-2,.cls-6{fill:#fff;}.cls-3{fill:none;}.cls-3,.cls-4,.cls-6{stroke:#1d1d1b;stroke-miterlimit:10;}.cls-4{fill:#f89b0b;}.cls-5{fill:#389c48;}</style></defs><path class="cls-1" d="M59.58,60.12a11.75,11.75,0,0,1-5.08,6.06,11.33,11.33,0,0,1-6.89,1.67,10.5,10.5,0,0,1-7-3.8,12.2,12.2,0,0,1-2.85-8,12.43,12.43,0,0,1,.34-2.71,49.32,49.32,0,0,1,6-13.79Q48.52,32.2,53,29.77a7.15,7.15,0,0,1,4-.77c1.25.24,2,.8,2.19,1.71a4.59,4.59,0,0,1-.35,2.89A7.55,7.55,0,0,1,57,36.17a26.32,26.32,0,0,0-7.1,11.28,8.1,8.1,0,0,1,8,3.45A9.69,9.69,0,0,1,59.58,60.12Z"></path><path class="cls-1" d="M33.69,60.12a11.77,11.77,0,0,1-5.09,6.06,11.3,11.3,0,0,1-6.89,1.67,10.5,10.5,0,0,1-7-3.8,12.3,12.3,0,0,1-2.85-8,11.91,11.91,0,0,1,.35-2.71,49.27,49.27,0,0,1,6-13.79q4.45-7.38,8.91-9.81A7.15,7.15,0,0,1,31,29c1.25.24,2,.8,2.19,1.71a4.58,4.58,0,0,1-.34,2.89,7.57,7.57,0,0,1-1.78,2.57A26.42,26.42,0,0,0,24,47.45a8.12,8.12,0,0,1,8,3.45A9.71,9.71,0,0,1,33.69,60.12Z"></path><rect class="cls-2" x="9.56" y="57.07" width="134.12" height="58.55" rx="9.22"></rect><rect class="cls-3" x="9.56" y="57.07" width="134.12" height="58.55" rx="9.22"></rect><polygon class="cls-4" points="34.99 86.34 27.79 89.31 24.82 96.52 21.85 89.32 14.64 86.35 21.83 83.38 24.8 76.17 27.77 83.37 34.99 86.34"></polygon><polygon class="cls-4" points="53.27 71.64 46.08 74.61 43.11 81.82 40.14 74.63 32.93 71.66 40.12 68.69 43.09 61.48 46.06 68.67 53.27 71.64"></polygon><rect class="cls-5" x="57.79" y="62.8" width="97.13" height="27.24" rx="5.35"></rect><path class="cls-1" d="M32.81,103.87a1.64,1.64,0,1,0-1.64,1.64A1.63,1.63,0,0,0,32.81,103.87Z"></path><path class="cls-1" d="M32.81,111.7a1.64,1.64,0,1,0-1.64,1.64A1.64,1.64,0,0,0,32.81,111.7Z"></path><path class="cls-1" d="M32.81,119.53a1.64,1.64,0,1,0-1.64,1.64A1.64,1.64,0,0,0,32.81,119.53Z"></path><path class="cls-1" d="M32.81,127.37A1.64,1.64,0,1,0,31.17,129,1.63,1.63,0,0,0,32.81,127.37Z"></path><path class="cls-1" d="M24.81,103.87a1.64,1.64,0,1,0-1.64,1.64A1.63,1.63,0,0,0,24.81,103.87Z"></path><path class="cls-1" d="M24.81,111.7a1.64,1.64,0,1,0-1.64,1.64A1.64,1.64,0,0,0,24.81,111.7Z"></path><path class="cls-1" d="M24.81,119.53a1.64,1.64,0,1,0-1.64,1.64A1.64,1.64,0,0,0,24.81,119.53Z"></path><path class="cls-1" d="M24.81,127.37A1.64,1.64,0,1,0,23.17,129,1.63,1.63,0,0,0,24.81,127.37Z"></path><circle class="cls-1" cx="15.18" cy="103.87" r="1.64"></circle><circle class="cls-1" cx="15.18" cy="111.7" r="1.64"></circle><path class="cls-1" d="M16.81,119.53a1.64,1.64,0,1,0-1.63,1.64A1.64,1.64,0,0,0,16.81,119.53Z"></path><circle class="cls-1" cx="15.18" cy="127.37" r="1.64"></circle><circle class="cls-1" cx="7.18" cy="111.7" r="1.64"></circle><path class="cls-1" d="M8.82,119.53a1.64,1.64,0,1,0-1.64,1.64A1.65,1.65,0,0,0,8.82,119.53Z"></path><path class="cls-1" d="M65.1,111.7a1.64,1.64,0,1,0-1.63,1.64A1.64,1.64,0,0,0,65.1,111.7Z"></path><path class="cls-1" d="M65.1,119.53a1.64,1.64,0,1,0-1.63,1.64A1.64,1.64,0,0,0,65.1,119.53Z"></path><circle class="cls-1" cx="55.47" cy="103.87" r="1.64"></circle><circle class="cls-1" cx="55.47" cy="111.7" r="1.64"></circle><path class="cls-1" d="M57.11,119.53a1.64,1.64,0,1,0-1.64,1.64A1.65,1.65,0,0,0,57.11,119.53Z"></path><circle class="cls-1" cx="55.47" cy="127.37" r="1.64"></circle><circle class="cls-1" cx="47.47" cy="103.87" r="1.64"></circle><circle class="cls-1" cx="47.47" cy="111.7" r="1.64"></circle><path class="cls-1" d="M49.11,119.53a1.64,1.64,0,1,0-1.64,1.64A1.64,1.64,0,0,0,49.11,119.53Z"></path><circle class="cls-1" cx="47.47" cy="127.37" r="1.64"></circle><circle class="cls-1" cx="39.47" cy="103.87" r="1.64"></circle><circle class="cls-1" cx="39.47" cy="111.7" r="1.64"></circle><path class="cls-1" d="M41.11,119.53a1.64,1.64,0,1,0-1.64,1.64A1.64,1.64,0,0,0,41.11,119.53Z"></path><circle class="cls-1" cx="39.47" cy="127.37" r="1.64"></circle><path class="cls-6" d="M107.33,104.85a8.41,8.41,0,0,1,3.65-4.34,8,8,0,0,1,4.94-1.2,7.48,7.48,0,0,1,5,2.72,8.84,8.84,0,0,1,2.05,5.71,9.29,9.29,0,0,1-.25,2,35.52,35.52,0,0,1-4.3,9.88q-3.19,5.3-6.38,7a5.15,5.15,0,0,1-2.85.55c-.9-.17-1.42-.57-1.57-1.22a3.25,3.25,0,0,1,.25-2.07,5.35,5.35,0,0,1,1.27-1.85,18.82,18.82,0,0,0,5.09-8.09,5.81,5.81,0,0,1-5.74-2.47A7,7,0,0,1,107.33,104.85Z"></path><path class="cls-6" d="M125.9,104.85a8.41,8.41,0,0,1,3.65-4.34,8,8,0,0,1,4.94-1.2,7.48,7.48,0,0,1,5,2.72,8.78,8.78,0,0,1,2,5.71,8.68,8.68,0,0,1-.25,2,35.17,35.17,0,0,1-4.29,9.88q-3.19,5.3-6.39,7a5.11,5.11,0,0,1-2.84.55c-.9-.17-1.42-.57-1.57-1.22a3.25,3.25,0,0,1,.25-2.07,5.35,5.35,0,0,1,1.27-1.85,18.91,18.91,0,0,0,5.09-8.09,5.8,5.8,0,0,1-5.74-2.47A7,7,0,0,1,125.9,104.85Z"></path></svg>