<svg xmlns="http://www.w3.org/2000/svg" id="Layer_1" data-name="Layer 1" viewBox="0 0 160 160"><defs><style>.cls-1{fill:#389c48;stroke:#9d9d9c;stroke-linecap:round;stroke-linejoin:round;stroke-width:3px;}.cls-2{fill:#f79808;stroke:#f39200;}.cls-2,.cls-4{stroke-miterlimit:10;}.cls-3{fill:#fff;}.cls-4{fill:none;stroke:#1d1d1b;}.cls-5{fill:#ededed;}</style></defs><line class="cls-1" x1="83.45" y1="2.43" x2="83.45" y2="160"></line><circle class="cls-2" cx="74.82" cy="86.45" r="13.47"></circle><circle class="cls-2" cx="83.45" cy="124.49" r="7.2"></circle><circle class="cls-2" cx="89.33" cy="42.02" r="25.71"></circle><rect class="cls-3" x="8.65" y="31.53" width="66.17" height="29.6" rx="4.61"></rect><rect class="cls-4" x="8.65" y="31.53" width="66.17" height="29.6" rx="4.61"></rect><rect class="cls-3" x="90.76" y="71.65" width="66.17" height="29.6" rx="4.61"></rect><rect class="cls-4" x="90.76" y="71.65" width="66.17" height="29.6" rx="4.61"></rect><rect class="cls-3" x="8.09" y="109.65" width="66.73" height="29.6" rx="4.62"></rect><rect class="cls-4" x="8.09" y="109.65" width="66.73" height="29.6" rx="4.62"></rect><path class="cls-5" d="M63.86,150.16,57,143.3a1.46,1.46,0,0,0-2.08,0l-5.83,5.82-5.83-5.82a1.45,1.45,0,0,0-2.07,0l-5.83,5.82-5.83-5.82a1.46,1.46,0,0,0-2.08,0l-5.82,5.82L15.8,143.3a1.46,1.46,0,0,0-2.08,0l-6.87,6.86a1.47,1.47,0,0,0,1,2.51,1.45,1.45,0,0,0,1-.43l5.83-5.83,5.83,5.83a1.45,1.45,0,0,0,2.07,0l5.83-5.83,5.83,5.83h0a1.32,1.32,0,0,0,.42.29,1.47,1.47,0,0,0,1.43-.1,1.37,1.37,0,0,0,.23-.19l5.83-5.83,5.82,5.83a1.47,1.47,0,0,0,1,.43,1.45,1.45,0,0,0,1-.43L56,146.41l5.83,5.83a1.47,1.47,0,0,0,2.07-2.08Z"></path></svg>