<?xml version="1.0" encoding="utf-8"?>
<!-- Generator: Adobe Illustrator 26.0.3, SVG Export Plug-In . SVG Version: 6.00 Build 0)  -->
<svg version="1.1" id="Layer_1" xmlns="http://www.w3.org/2000/svg" xmlns:xlink="http://www.w3.org/1999/xlink" x="0px" y="0px"
	 viewBox="0 0 190 130" style="enable-background:new 0 0 190 130;" xml:space="preserve">
<style type="text/css">
	.st0{fill:#E7FFD5;}
	.st1{fill:#C700EA;}
</style>
<circle class="st0" cx="135" cy="56.3" r="54.3"/>
<g>
	<path class="st1" d="M186.1,74.7c0-0.1,0.1-0.2,0.1-0.3c0-0.1,0.1-0.2,0.1-0.3c0-0.1,0.1-0.2,0.1-0.3c0-0.1,0.1-0.2,0.1-0.4
		c0-0.1,0-0.2,0.1-0.3c0-0.1,0.1-0.2,0.1-0.4c0-0.1,0-0.2,0-0.3c0-0.1,0-0.2,0-0.3c0-0.1,0-0.2,0-0.4c0-0.1,0-0.2,0-0.3
		c0-0.1,0-0.3,0-0.4c0-0.1,0-0.2,0-0.2c0-0.1,0-0.3-0.1-0.4c0-0.1,0-0.2-0.1-0.2c0-0.1-0.1-0.2-0.1-0.3c0-0.1-0.1-0.2-0.1-0.3
		c0-0.1-0.1-0.2-0.1-0.3c0-0.1-0.1-0.2-0.1-0.3c0,0,0-0.1,0-0.1c0,0-0.1-0.1-0.1-0.1c-0.1-0.1-0.1-0.2-0.2-0.3
		c0-0.1-0.1-0.2-0.2-0.2c-0.1-0.1-0.1-0.2-0.2-0.3c-0.1-0.1-0.1-0.2-0.2-0.2c-0.1-0.1-0.1-0.2-0.2-0.2c-0.1-0.1-0.2-0.2-0.2-0.3
		c-0.1-0.1-0.1-0.1-0.2-0.2c-0.1-0.1-0.2-0.2-0.3-0.3c-0.1-0.1-0.1-0.1-0.2-0.2c-0.1-0.1-0.2-0.2-0.3-0.2c0,0-0.1-0.1-0.1-0.1
		l-45.4-28.4c-3.1-1.9-7.2-1-9.1,2.1c-1.9,3.1-1,7.2,2.1,9.1l35.3,22.1l-36.3,17.9c-3.3,1.6-4.6,5.6-3,8.9c1.2,2.3,3.5,3.7,5.9,3.7
		c1,0,2-0.2,2.9-0.7l47-23.1c0,0,0.1,0,0.1-0.1c0.1,0,0.2-0.1,0.3-0.1c0.1-0.1,0.3-0.2,0.4-0.3c0.1-0.1,0.2-0.1,0.2-0.2
		c0.2-0.1,0.3-0.3,0.5-0.4c0,0,0.1-0.1,0.1-0.1c0.2-0.2,0.4-0.4,0.5-0.6c0,0,0.1-0.1,0.1-0.1c0.1-0.2,0.3-0.4,0.4-0.5
		c0,0,0-0.1,0.1-0.1c0,0,0-0.1,0.1-0.1c0.1-0.1,0.1-0.2,0.2-0.3C186,74.9,186.1,74.8,186.1,74.7z"/>
	<path class="st1" d="M61.2,40.6c-1.6-3.3-5.6-4.6-8.9-3l-47,23.1c0,0-0.1,0.1-0.1,0.1c-0.1,0.1-0.2,0.1-0.3,0.2
		c-0.1,0-0.2,0.1-0.2,0.1c-0.1,0.1-0.2,0.1-0.3,0.2c-0.1,0.1-0.2,0.1-0.2,0.2c-0.1,0.1-0.2,0.1-0.2,0.2c-0.1,0.1-0.2,0.2-0.2,0.2
		c-0.1,0.1-0.1,0.1-0.2,0.2c-0.1,0.1-0.2,0.2-0.2,0.3C3,62.6,3,62.6,2.9,62.7c-0.1,0.1-0.2,0.2-0.2,0.3c0,0-0.1,0.1-0.1,0.1
		c0,0,0,0.1-0.1,0.1c-0.1,0.1-0.1,0.2-0.2,0.3c0,0.1-0.1,0.2-0.1,0.3c0,0.1-0.1,0.2-0.1,0.3c0,0.1-0.1,0.2-0.1,0.3
		c0,0.1-0.1,0.2-0.1,0.3c0,0.1-0.1,0.2-0.1,0.4c0,0.1,0,0.2-0.1,0.2c0,0.1-0.1,0.2-0.1,0.4c0,0.1,0,0.2,0,0.3c0,0.1,0,0.2,0,0.3
		c0,0.1,0,0.2,0,0.3c0,0.1,0,0.2,0,0.3c0,0.1,0,0.3,0,0.4c0,0.1,0,0.2,0,0.2c0,0.1,0,0.3,0.1,0.4c0,0.1,0,0.2,0.1,0.3
		c0,0.1,0.1,0.2,0.1,0.3c0,0.1,0.1,0.2,0.1,0.3c0,0.1,0.1,0.2,0.1,0.3c0,0.1,0.1,0.2,0.1,0.3c0,0,0,0.1,0,0.1c0,0,0,0.1,0.1,0.1
		c0.1,0.2,0.3,0.5,0.4,0.7c0,0,0,0,0,0.1c0.2,0.2,0.3,0.4,0.5,0.7c0.1,0.1,0.1,0.1,0.2,0.2c0.1,0.1,0.3,0.3,0.5,0.4
		C4,71.7,4,71.8,4.1,71.9c0.2,0.2,0.4,0.3,0.6,0.4l0,0c0,0,0,0,0,0l45.3,28.3c1.1,0.7,2.3,1,3.5,1c2.2,0,4.4-1.1,5.6-3.1
		c1.9-3.1,1-7.2-2.1-9.1L21.8,67.4l36.3-17.9C61.4,47.9,62.8,43.9,61.2,40.6z"/>
	<path class="st1" d="M119.8,25.2c-3.2-1.9-7.2-0.8-9.1,2.3l-45.2,76.7c-1.9,3.2-0.8,7.2,2.3,9.1c1.1,0.6,2.2,0.9,3.4,0.9
		c2.3,0,4.5-1.2,5.7-3.3l45.2-76.7C124,31.1,122.9,27.1,119.8,25.2z"/>
</g>
<g>
	<path d="M19.9,24.8c-0.5,0-0.9,0.2-1.2,0.5c-0.2,0.3-0.5,0.7-0.6,1.2c-0.4,1.1-1,1.9-1.8,2.4c-0.8,0.6-1.7,0.8-2.8,0.8
		c-1,0-1.9-0.2-2.7-0.7c-0.8-0.5-1.4-1.2-1.8-2.2s-0.6-2.2-0.6-3.7c0-2.2,0.5-4,1.4-5.2c0.9-1.2,2.2-1.8,3.8-1.8
		c1,0,1.9,0.2,2.5,0.7c0.7,0.5,1.3,1.2,1.8,2.1c0.3,0.6,0.6,1,0.8,1.2c0.2,0.2,0.6,0.4,1.1,0.4c0.4,0,0.8-0.2,1.1-0.5
		s0.5-0.7,0.5-1.2c0-0.8-0.3-1.7-1-2.6c-0.6-0.9-1.6-1.7-2.8-2.3c-1.2-0.6-2.6-0.9-4.2-0.9c-1.3,0-2.5,0.2-3.6,0.7
		c-1.1,0.5-2.1,1.1-3,2c-0.8,0.9-1.5,1.9-1.9,3.1S4.5,21.4,4.5,23c0,1,0.1,1.9,0.3,2.7c0.2,0.8,0.4,1.6,0.8,2.4
		c0.4,0.7,0.8,1.4,1.3,2c0.6,0.7,1.2,1.2,1.9,1.6c0.7,0.4,1.4,0.7,2.3,0.9c0.8,0.2,1.8,0.3,2.8,0.3c1.3,0,2.5-0.2,3.5-0.6
		c1-0.4,1.8-1,2.5-1.7c0.6-0.7,1.1-1.4,1.4-2.1c0.3-0.7,0.5-1.4,0.5-2c0-0.5-0.2-0.9-0.5-1.2C20.8,24.9,20.4,24.8,19.9,24.8z"/>
	<path d="M37.9,22.7c-0.6-0.4-1.4-0.8-2.2-1.1c-0.9-0.3-1.9-0.6-2.9-0.8c-0.9-0.2-1.5-0.4-1.9-0.5c-0.4-0.1-0.7-0.3-1.1-0.5
		c-0.4-0.2-0.7-0.4-0.9-0.7c-0.2-0.3-0.3-0.6-0.3-1c0-0.6,0.3-1.2,0.9-1.6c0.6-0.4,1.4-0.7,2.4-0.7c1.1,0,1.9,0.2,2.4,0.6
		c0.5,0.4,0.9,1,1.3,1.7c0.3,0.5,0.5,0.9,0.8,1.1c0.2,0.2,0.6,0.3,1,0.3c0.5,0,0.9-0.2,1.2-0.6c0.3-0.4,0.5-0.8,0.5-1.3
		c0-0.5-0.1-1-0.4-1.6c-0.3-0.5-0.7-1-1.2-1.5c-0.6-0.5-1.3-0.9-2.1-1.2c-0.9-0.3-1.9-0.4-3.1-0.4c-1.5,0-2.8,0.2-3.9,0.7
		c-1.1,0.4-1.9,1.1-2.5,1.9c-0.6,0.8-0.9,1.8-0.9,2.8c0,1.1,0.3,2,0.8,2.8c0.5,0.7,1.3,1.3,2.2,1.8s2.1,0.8,3.5,1.1
		c1,0.2,1.9,0.5,2.5,0.7s1.1,0.5,1.5,0.9c0.4,0.4,0.6,0.9,0.6,1.6c0,0.8-0.4,1.5-1.1,2S33.2,30,32.1,30c-0.8,0-1.5-0.1-2-0.4
		c-0.5-0.3-0.9-0.6-1.2-1s-0.5-0.9-0.8-1.5c-0.2-0.5-0.4-0.9-0.7-1.2c-0.3-0.3-0.6-0.4-1-0.4c-0.5,0-0.9,0.2-1.3,0.5
		c-0.3,0.3-0.5,0.7-0.5,1.2c0,0.8,0.3,1.7,0.8,2.5c0.5,0.9,1.3,1.6,2.1,2.1c1.2,0.7,2.8,1.1,4.7,1.1c1.6,0,3-0.3,4.1-0.8
		s2-1.3,2.6-2.2c0.6-0.9,0.9-2,0.9-3.1c0-1-0.2-1.8-0.5-2.5C39,23.7,38.5,23.1,37.9,22.7z"/>
	<path d="M57.2,24.3c-0.3-0.7-0.8-1.2-1.4-1.7c-0.6-0.4-1.4-0.8-2.2-1.1c-0.9-0.3-1.9-0.6-2.9-0.8c-0.9-0.2-1.5-0.4-1.9-0.5
		c-0.4-0.1-0.7-0.3-1.1-0.5c-0.4-0.2-0.7-0.4-0.9-0.7c-0.2-0.3-0.3-0.6-0.3-1c0-0.6,0.3-1.2,0.9-1.6c0.6-0.4,1.4-0.7,2.4-0.7
		c1.1,0,1.9,0.2,2.4,0.6c0.5,0.4,0.9,1,1.3,1.7c0.3,0.5,0.5,0.9,0.8,1.1c0.2,0.2,0.6,0.3,1,0.3c0.5,0,0.9-0.2,1.2-0.6
		c0.3-0.4,0.5-0.8,0.5-1.3c0-0.5-0.1-1-0.4-1.6c-0.3-0.5-0.7-1-1.2-1.5c-0.6-0.5-1.3-0.9-2.1-1.2C52.2,13.1,51.2,13,50,13
		c-1.5,0-2.8,0.2-3.9,0.7c-1.1,0.4-1.9,1.1-2.5,1.9c-0.6,0.8-0.9,1.8-0.9,2.8c0,1.1,0.3,2,0.8,2.8c0.5,0.7,1.3,1.3,2.2,1.8
		s2.1,0.8,3.5,1.1c1,0.2,1.9,0.5,2.5,0.7s1.1,0.5,1.5,0.9c0.4,0.4,0.6,0.9,0.6,1.6c0,0.8-0.4,1.5-1.1,2S51.1,30,50,30
		c-0.8,0-1.5-0.1-2-0.4c-0.5-0.3-0.9-0.6-1.2-1s-0.5-0.9-0.8-1.5c-0.2-0.5-0.4-0.9-0.7-1.2c-0.3-0.3-0.6-0.4-1-0.4
		c-0.5,0-0.9,0.2-1.3,0.5c-0.3,0.3-0.5,0.7-0.5,1.2c0,0.8,0.3,1.7,0.8,2.5c0.5,0.9,1.3,1.6,2.1,2.1c1.2,0.7,2.8,1.1,4.7,1.1
		c1.6,0,3-0.3,4.1-0.8s2-1.3,2.6-2.2c0.6-0.9,0.9-2,0.9-3.1C57.7,25.8,57.5,25,57.2,24.3z"/>
</g>
<g>
	<path d="M163.2,98c-0.7,0-1.2,0.2-1.6,0.7s-0.6,1.1-0.6,2v12.1c0,2.9-1,4.3-2.9,4.3c-0.7,0-1.3-0.2-1.7-0.5
		c-0.4-0.3-0.7-0.7-0.9-1.2c-0.2-0.5-0.3-1.1-0.5-1.8c-0.2-0.7-0.4-1.2-0.7-1.6c-0.3-0.3-0.7-0.5-1.3-0.5c-0.6,0-1.1,0.2-1.5,0.6
		c-0.4,0.4-0.6,0.9-0.6,1.6c0,0.7,0.1,1.3,0.3,2.1c0.2,0.7,0.5,1.4,0.8,1.9c0.6,1,1.4,1.8,2.4,2.3c1,0.5,2.2,0.7,3.7,0.7
		c1.6,0,3-0.3,4.2-1s2-1.6,2.5-2.8c0.3-0.7,0.5-1.4,0.6-2.1c0.1-0.7,0.1-1.5,0.1-2.5v-11.5c0-0.9-0.2-1.6-0.6-2S163.9,98,163.2,98z"
		/>
	<path d="M185.2,110.9c-0.4-0.8-0.9-1.4-1.6-1.9c-0.7-0.5-1.6-0.9-2.6-1.3c-1-0.3-2.1-0.7-3.4-1c-1-0.2-1.7-0.4-2.1-0.6
		c-0.4-0.1-0.9-0.3-1.3-0.5c-0.4-0.2-0.7-0.5-1-0.8c-0.2-0.3-0.4-0.7-0.4-1.1c0-0.7,0.4-1.3,1.1-1.8c0.7-0.5,1.6-0.8,2.8-0.8
		c1.2,0,2.1,0.2,2.7,0.7c0.6,0.5,1,1.1,1.4,1.9c0.3,0.6,0.6,1,0.9,1.2c0.3,0.3,0.6,0.4,1.2,0.4c0.6,0,1-0.2,1.4-0.6
		c0.4-0.4,0.6-0.9,0.6-1.4c0-0.6-0.1-1.2-0.4-1.8c-0.3-0.6-0.8-1.2-1.4-1.7c-0.6-0.6-1.5-1-2.4-1.3S178.3,98,177,98
		c-1.7,0-3.1,0.3-4.4,0.8c-1.2,0.5-2.2,1.2-2.9,2.2c-0.7,0.9-1,2-1,3.2c0,1.3,0.3,2.3,0.9,3.2c0.6,0.9,1.5,1.5,2.5,2
		c1.1,0.5,2.4,0.9,4,1.3c1.2,0.3,2.1,0.5,2.8,0.8c0.7,0.2,1.3,0.6,1.7,1c0.4,0.5,0.7,1,0.7,1.8c0,0.9-0.4,1.7-1.2,2.3
		c-0.8,0.6-1.9,0.9-3.2,0.9c-1,0-1.7-0.2-2.3-0.5c-0.6-0.3-1-0.7-1.4-1.2c-0.3-0.5-0.6-1.1-0.9-1.7c-0.2-0.6-0.5-1-0.8-1.3
		c-0.3-0.3-0.7-0.4-1.2-0.4c-0.6,0-1.1,0.2-1.4,0.6c-0.4,0.4-0.6,0.8-0.6,1.4c0,0.9,0.3,1.9,0.9,2.9c0.6,1,1.4,1.8,2.4,2.4
		c1.4,0.8,3.2,1.2,5.3,1.2c1.8,0,3.4-0.3,4.7-0.9c1.3-0.6,2.3-1.4,3-2.5c0.7-1.1,1-2.2,1-3.6C185.8,112.6,185.6,111.7,185.2,110.9z"
		/>
</g>
</svg>
