<svg xmlns="http://www.w3.org/2000/svg" id="Layer_1" data-name="Layer 1" viewBox="0 0 190 150"><defs><style>.cls-1{fill:#40d1e6;}.cls-1,.cls-3{stroke:#1d1d1b;}.cls-1,.cls-2,.cls-3{stroke-miterlimit:10;}.cls-2{fill:none;stroke:#e30613;stroke-width:3px;}.cls-3{fill:#fff;}.cls-4{fill:#ac33e6;}.cls-5{fill:#fde34b;}</style></defs><circle class="cls-1" cx="93.61" cy="73.15" r="37.29"></circle><circle class="cls-2" cx="87.45" cy="87.58" r="37.29"></circle><path class="cls-3" d="M140.64,47.05,111.71,18.13h0l-.06-.05a2.22,2.22,0,0,0-3.16,0L79.56,47a2.25,2.25,0,0,0,0,3.17l4,4a2.23,2.23,0,0,0,3.17,0l23.3-23.3,23.37,23.36a2.22,2.22,0,0,0,3.16,0l4-4A2.25,2.25,0,0,0,140.64,47.05Z"></path><path class="cls-4" d="M140.64,75.1,111.71,46.18h0l-.06-.05a2.24,2.24,0,0,0-3.16,0L79.56,75.05a2.24,2.24,0,0,0,0,3.16l4,4a2.25,2.25,0,0,0,3.17,0l23.3-23.31,23.37,23.37a2.24,2.24,0,0,0,3.16,0l4-4A2.25,2.25,0,0,0,140.64,75.1Z"></path><path class="cls-5" d="M140.64,103.16,111.71,74.23h0l-.06,0a2.24,2.24,0,0,0-3.16,0L79.56,103.1a2.24,2.24,0,0,0,0,3.16l4,4a2.25,2.25,0,0,0,3.17,0L110.07,87l23.37,23.37a2.24,2.24,0,0,0,3.16,0l4-4A2.24,2.24,0,0,0,140.64,103.16Z"></path></svg>