<?xml version="1.0" encoding="utf-8"?>
<!-- Generator: Adobe Illustrator 26.0.3, SVG Export Plug-In . SVG Version: 6.00 Build 0)  -->
<svg version="1.1" id="Layer_1" xmlns="http://www.w3.org/2000/svg" xmlns:xlink="http://www.w3.org/1999/xlink" x="0px" y="0px"
	 viewBox="0 0 190 130" style="enable-background:new 0 0 190 130;" xml:space="preserve">
<style type="text/css">
	.st0{fill:#EA009C;}
	.st1{fill:none;stroke:#FF8B00;stroke-width:8;stroke-linecap:round;stroke-miterlimit:133.3333;}
</style>
<g>
	<circle class="st0" cx="49.5" cy="108.8" r="3.1"/>
	<circle class="st0" cx="34.5" cy="108.8" r="3.1"/>
	<circle class="st0" cx="19.6" cy="108.8" r="3.1"/>
	<circle class="st0" cx="64.3" cy="93.6" r="3.1"/>
	<circle class="st0" cx="34.5" cy="93.6" r="3.1"/>
	<circle class="st0" cx="19.6" cy="93.6" r="3.1"/>
</g>
<g>
	<path class="st1" d="M95,12c-10.5,0-20.7,3.1-29.4,8.9C56.8,26.8,50,35,46,44.7c-4,9.7-5.1,20.3-3,30.6c2,10.3,7.1,19.7,14.5,27.1
		c7.4,7.4,16.9,12.5,27.1,14.5c10.3,2,20.9,1,30.6-3c9.7-4,18-10.8,23.8-19.5c5.8-8.7,8.9-19,8.9-29.4"/>
	<path class="st1" d="M140.9,38.5c0.6,1,1.1,2,1.6,3"/>
</g>
<path class="st1" d="M127.4,65c0-6.4-1.9-12.7-5.5-18c-3.6-5.3-8.6-9.5-14.6-11.9c-5.9-2.5-12.4-3.1-18.7-1.8
	c-6.3,1.3-12.1,4.3-16.6,8.9c-4.5,4.5-7.6,10.3-8.9,16.6C61.9,65,62.6,71.5,65,77.4c2.5,5.9,6.6,11,11.9,14.6
	c5.3,3.6,11.6,5.5,18,5.5"/>
</svg>
