<?xml version="1.0" encoding="utf-8"?>
<!-- Generator: Adobe Illustrator 26.0.3, SVG Export Plug-In . SVG Version: 6.00 Build 0)  -->
<svg version="1.1" id="Layer_1" xmlns="http://www.w3.org/2000/svg" xmlns:xlink="http://www.w3.org/1999/xlink" x="0px" y="0px"
	 viewBox="0 0 190 130" style="enable-background:new 0 0 190 130;" xml:space="preserve">
<style type="text/css">
	.st0{fill:#D2FFD2;}
	.st1{fill:none;stroke:#0009AF;stroke-width:2;stroke-miterlimit:10;}
	.st2{fill:#F89B0B;stroke:#1D1D1B;stroke-width:1.2385;stroke-miterlimit:10;}
</style>
<g>
	<g>
		<circle class="st0" cx="156.1" cy="96.1" r="2.9"/>
		<circle class="st0" cx="142.1" cy="96.1" r="2.9"/>
		<circle class="st0" cx="128.2" cy="96.1" r="2.9"/>
		<circle class="st0" cx="114.3" cy="96.1" r="2.9"/>
		<circle class="st0" cx="156.1" cy="81.9" r="2.9"/>
		<circle class="st0" cx="142.1" cy="81.9" r="2.9"/>
		<circle class="st0" cx="128.2" cy="81.9" r="2.9"/>
		<circle class="st0" cx="114.3" cy="81.9" r="2.9"/>
	</g>
	<g>
		<circle class="st1" cx="91.3" cy="69.1" r="32.5"/>
		<circle class="st1" cx="91.3" cy="69.1" r="21.4"/>
		<circle class="st1" cx="91.3" cy="69.1" r="9.8"/>
		<circle class="st1" cx="91.3" cy="69.1" r="45.8"/>
	</g>
	<polygon class="st2" points="57.2,26.8 48.9,30.3 45.6,38.6 42.1,30.3 33.8,26.8 42.1,23.4 45.5,15.1 48.9,23.4 	"/>
	<polygon class="st2" points="45.5,50.2 40.4,52.4 38.3,57.5 36.2,52.4 31,50.2 36.2,48.1 38.3,42.9 40.4,48.1 	"/>
</g>
</svg>
