<?xml version="1.0" encoding="utf-8"?>
<!-- Generator: Adobe Illustrator 26.0.3, SVG Export Plug-In . SVG Version: 6.00 Build 0)  -->
<svg version="1.1" id="Layer_1" xmlns="http://www.w3.org/2000/svg" xmlns:xlink="http://www.w3.org/1999/xlink" x="0px" y="0px"
	 viewBox="0 0 190 130" style="enable-background:new 0 0 190 130;" xml:space="preserve">
<style type="text/css">
	.st0{fill:none;stroke:#000000;stroke-width:1.4036;stroke-miterlimit:10;}
	.st1{fill:#EA009C;}
	.st2{fill:#E0E0E0;}
</style>
<path class="st0" d="M80.1,5.4h74.7c5.3,0,9.6,4.3,9.6,9.6v11.9c0,5.3-4.3,9.6-9.6,9.6H80.1c-5.3,0.1-9.6-4.2-9.6-9.5V15
	C70.5,9.7,74.8,5.4,80.1,5.4z"/>
<path d="M152.2,19.2c-0.5-0.6-1.2-1.4-2.1-2.3l-2.7-2.7c-0.9-0.9-1.7-1.7-2.3-2.1c-0.6-0.5-1.3-0.8-2.1-0.6
	c-0.8,0.2-1.3,0.7-1.7,1.5c-0.4,0.7-0.7,1.7-1.2,2.9l-0.6,1.7c-0.2,0.7-0.3,0.9-0.5,1c-0.1,0.1-0.1,0.1-0.2,0.2
	c-0.2,0.1-0.3,0.2-1.1,0.4c-0.8,0.2-1.4,0.4-1.8,0.6c-0.5,0.2-0.9,0.4-1.1,0.9c-0.2,0.3-0.3,0.7-0.3,1c0,0.5,0.3,0.9,0.6,1.3
	c0.3,0.4,0.8,0.8,1.3,1.4l1.3,1.3l-3.6,3.6c-0.3,0.3-0.3,0.7,0,0.9s0.7,0.3,0.9,0l3.6-3.6L140,28c0.6,0.6,1,1,1.4,1.3
	c0.4,0.3,0.8,0.6,1.3,0.6c0.4,0,0.7-0.1,1-0.3c0.4-0.3,0.7-0.7,0.9-1.2c0.2-0.5,0.4-1.1,0.6-1.8c0.2-0.7,0.3-0.9,0.4-1.1
	c0.1-0.1,0.1-0.2,0.2-0.2c0.1-0.1,0.3-0.2,1-0.5l1.7-0.6c1.2-0.4,2.2-0.8,2.9-1.2c0.7-0.4,1.3-0.9,1.4-1.7
	C153,20.6,152.7,19.9,152.2,19.2z M151.5,21.1c-0.1,0.2-0.2,0.5-0.8,0.8c-0.6,0.3-1.4,0.7-2.7,1.1l-1.7,0.6
	c-0.6,0.2-1.1,0.4-1.4,0.7c-0.1,0.1-0.3,0.3-0.4,0.4c-0.3,0.4-0.4,0.9-0.6,1.5c-0.2,0.8-0.4,1.3-0.5,1.7c-0.1,0.4-0.2,0.5-0.3,0.5
	c-0.1,0.1-0.2,0.1-0.4,0.1c-0.1,0-0.2,0-0.5-0.3c-0.3-0.3-0.7-0.6-1.3-1.2l-3.6-3.6c-0.6-0.6-1-1-1.2-1.3c-0.3-0.3-0.3-0.5-0.3-0.5
	c0-0.1,0-0.3,0.1-0.4c0-0.1,0.1-0.2,0.5-0.3c0.4-0.2,0.9-0.3,1.7-0.5c0.6-0.2,1.1-0.3,1.5-0.6c0.2-0.1,0.3-0.3,0.4-0.4
	c0.3-0.4,0.5-0.8,0.7-1.5l0.6-1.7c0.5-1.3,0.8-2.1,1.1-2.7c0.3-0.6,0.6-0.7,0.8-0.8c0.2-0.1,0.5,0,1,0.4c0.5,0.4,1.2,1.1,2.1,2
	l2.7,2.7c0.9,0.9,1.6,1.6,2,2.1C151.5,20.6,151.6,20.8,151.5,21.1z"/>
<path class="st1" d="M151.5,21.1c-0.1,0.2-0.2,0.5-0.8,0.8c-0.6,0.3-1.4,0.7-2.7,1.1l-1.7,0.6c-0.6,0.2-1.1,0.4-1.4,0.7
	c-0.1,0.1-0.3,0.3-0.4,0.4c-0.3,0.4-0.4,0.9-0.6,1.5c-0.2,0.8-0.4,1.3-0.5,1.7c-0.1,0.4-0.2,0.5-0.3,0.5c-0.1,0.1-0.2,0.1-0.4,0.1
	c-0.1,0-0.2,0-0.5-0.3c-0.3-0.3-0.7-0.6-1.3-1.2l-3.6-3.6c-0.6-0.6-1-1-1.2-1.3c-0.3-0.3-0.3-0.5-0.3-0.5c0-0.1,0-0.3,0.1-0.4
	c0-0.1,0.1-0.2,0.5-0.3c0.4-0.2,0.9-0.3,1.7-0.5c0.6-0.2,1.1-0.3,1.5-0.6c0.2-0.1,0.3-0.3,0.4-0.4c0.3-0.4,0.5-0.8,0.7-1.5l0.6-1.7
	c0.5-1.3,0.8-2.1,1.1-2.7c0.3-0.6,0.6-0.7,0.8-0.8c0.2-0.1,0.5,0,1,0.4c0.5,0.4,1.2,1.1,2.1,2l2.7,2.7c0.9,0.9,1.6,1.6,2,2.1
	C151.5,20.6,151.6,20.8,151.5,21.1z"/>
<path class="st2" d="M154.8,39.6H80.1c-5.3,0-9.6,4.3-9.6,9.6v12.5c0,6.7-5.4,12.1-12.1,12.1H36c-5.3,0-9.6,4.3-9.6,9.6v33
	c0,5.3,4.3,9.6,9.6,9.5h118.8c5.3,0,9.6-4.2,9.6-9.6V86.9v-3.6V49.1C164.4,43.9,160.2,39.6,154.8,39.6z"/>
<path class="st1" d="M35.9,22h21.3c5.3,0,9.6,4.3,9.6,9.6V61c0,5.3-4.3,9.6-9.6,9.6H35.9c-5.3,0.1-9.6-4.2-9.6-9.5V31.6
	C26.3,26.3,30.6,22,35.9,22z"/>
<path d="M61,16.7c-0.7-0.9-1.7-1.9-3-3.2l-3.9-3.9c-1.3-1.3-2.4-2.4-3.3-3c-0.9-0.7-1.9-1.1-3-0.9c-1.1,0.3-1.8,1.1-2.4,2.1
	c-0.5,1-1.1,2.4-1.7,4.1l-0.9,2.4c-0.4,1-0.5,1.3-0.7,1.5c-0.1,0.1-0.2,0.2-0.3,0.3c-0.2,0.1-0.5,0.2-1.5,0.5
	c-1.1,0.3-1.9,0.5-2.6,0.8c-0.7,0.3-1.3,0.6-1.6,1.3c-0.3,0.4-0.4,1-0.4,1.5c0,0.7,0.4,1.4,0.8,1.9c0.4,0.5,1.1,1.2,1.9,2l1.9,1.9
	L35.1,31c-0.4,0.4-0.4,1,0,1.3c0.4,0.4,1,0.4,1.3,0l5.2-5.2l2,2c0.8,0.8,1.4,1.4,2,1.9c0.6,0.4,1.2,0.8,1.9,0.8c0.5,0,1-0.1,1.5-0.4
	c0.6-0.4,1-1,1.3-1.6c0.3-0.7,0.5-1.5,0.8-2.6c0.3-1,0.4-1.3,0.5-1.5c0.1-0.1,0.2-0.2,0.3-0.3c0.2-0.2,0.5-0.3,1.5-0.7l2.4-0.9
	c1.7-0.6,3.1-1.2,4.1-1.7c1-0.6,1.8-1.3,2.1-2.4C62.1,18.6,61.7,17.6,61,16.7z M60,19.3c-0.1,0.3-0.3,0.7-1.1,1.1
	c-0.8,0.5-2.1,0.9-3.8,1.6l-2.4,0.9c-0.9,0.3-1.5,0.6-2.1,1c-0.2,0.2-0.4,0.4-0.6,0.6c-0.4,0.6-0.6,1.2-0.8,2.1
	c-0.3,1.1-0.5,1.9-0.7,2.4c-0.2,0.5-0.4,0.7-0.4,0.7c-0.2,0.1-0.3,0.1-0.5,0.1c-0.1,0-0.3,0-0.7-0.4c-0.4-0.4-1-0.9-1.8-1.7
	l-5.2-5.2c-0.8-0.8-1.4-1.4-1.7-1.8c-0.4-0.5-0.4-0.7-0.4-0.7c0-0.2,0-0.4,0.1-0.5c0-0.1,0.2-0.2,0.7-0.4c0.5-0.2,1.3-0.4,2.4-0.7
	c0.9-0.2,1.6-0.4,2.1-0.8c0.2-0.2,0.4-0.4,0.6-0.6c0.4-0.5,0.7-1.2,1-2.1l0.9-2.4c0.7-1.8,1.1-3,1.6-3.9c0.5-0.8,0.8-1.1,1.1-1.1
	c0.3-0.1,0.7,0,1.5,0.6c0.8,0.6,1.7,1.5,3.1,2.9l3.9,3.9c1.3,1.3,2.3,2.3,2.8,3C60,18.6,60.1,19,60,19.3z"/>
<path d="M60,19.3c-0.1,0.3-0.3,0.7-1.1,1.1c-0.8,0.5-2.1,0.9-3.8,1.6l-2.4,0.9c-0.9,0.3-1.5,0.6-2.1,1c-0.2,0.2-0.4,0.4-0.6,0.6
	c-0.4,0.6-0.6,1.2-0.8,2.1c-0.3,1.1-0.5,1.9-0.7,2.4c-0.2,0.5-0.4,0.7-0.4,0.7c-0.2,0.1-0.3,0.1-0.5,0.1c-0.1,0-0.3,0-0.7-0.4
	c-0.4-0.4-1-0.9-1.8-1.7l-5.2-5.2c-0.8-0.8-1.4-1.4-1.7-1.8c-0.4-0.5-0.4-0.7-0.4-0.7c0-0.2,0-0.4,0.1-0.5c0-0.1,0.2-0.2,0.7-0.4
	c0.5-0.2,1.3-0.4,2.4-0.7c0.9-0.2,1.6-0.4,2.1-0.8c0.2-0.2,0.4-0.4,0.6-0.6c0.4-0.5,0.7-1.2,1-2.1l0.9-2.4c0.7-1.8,1.1-3,1.6-3.9
	c0.5-0.8,0.8-1.1,1.1-1.1c0.3-0.1,0.7,0,1.5,0.6c0.8,0.6,1.7,1.5,3.1,2.9l3.9,3.9c1.3,1.3,2.3,2.3,2.8,3C60,18.6,60.1,19,60,19.3z"
	/>
<g>
	<circle class="st1" cx="171.5" cy="104.4" r="3.1"/>
	<circle class="st1" cx="156.6" cy="104.4" r="3.1"/>
	<circle class="st1" cx="141.7" cy="104.4" r="3.1"/>
	<circle class="st1" cx="126.8" cy="104.4" r="3.1"/>
	<circle class="st1" cx="171.5" cy="89.2" r="3.1"/>
	<circle class="st1" cx="156.6" cy="89.2" r="3.1"/>
	<circle class="st1" cx="141.7" cy="89.2" r="3.1"/>
	<circle class="st1" cx="126.8" cy="89.2" r="3.1"/>
</g>
</svg>
