<?xml version="1.0" encoding="utf-8"?>
<!-- Generator: Adobe Illustrator 26.0.3, SVG Export Plug-In . SVG Version: 6.00 Build 0)  -->
<svg version="1.1" id="Layer_1" xmlns="http://www.w3.org/2000/svg" xmlns:xlink="http://www.w3.org/1999/xlink" x="0px" y="0px"
	 viewBox="0 0 190 130" style="enable-background:new 0 0 190 130;" xml:space="preserve">
<style type="text/css">
	.st0{fill:#E7FFD5;}
	.st1{fill:#379600;}
	.st2{opacity:0.5;fill:#E7FFD5;}
</style>
<circle class="st0" cx="121" cy="65" r="45.6"/>
<path class="st1" d="M130.3,94h0.4l-6.4-6.4L74.5,38.2l-7.1-7.1l-8.5-8.5l-6.3,6.3l7.1,7.1c-10.1,7.1-17.8,17.3-21.8,29
	c8.2,24.3,31.5,40.3,57.1,39.3c9.4,0.1,18.7-1.8,27.3-5.6l8.8,8.8l6.3-6.3L130.3,94z M85.4,61.7l11.9,11.9c-0.9,0.1-1.7,0.1-2.6,0
	c-5.1,0.3-9.6-3.5-10.1-8.6C84.7,63.9,84.9,62.7,85.4,61.7z M95,95.3C80.4,96,66.3,90.1,56.5,79.3c-3.8-4.2-6.9-9.1-9.1-14.3
	c2.2-5.2,5.3-10,9.1-14.3c2.9-3.2,6.3-6,10-8.3l12.4,12.8c-2.1,2.9-3.2,6.3-3.1,9.8c0.3,10.2,8.9,18.2,19.1,17.8H95
	c3.3,0,6.5-0.8,9.4-2.4l11.3,11.3C109.1,94.2,102.1,95.4,95,95.3z M95,25.7c-6.1,0-12.2,0.7-18.1,2.3l7.1,7.5
	c3.6-0.6,7.3-0.9,10.9-0.9c14.6-0.6,28.7,5.3,38.5,16.1c3.8,4.2,6.9,9.1,9.1,14.3c-2.2,5.2-5.3,10-9.1,14.3
	c-0.9,0.9-1.7,1.8-2.6,2.7l6.4,6.4c6.7-6.5,11.8-14.5,14.8-23.3C143.9,40.7,120.6,24.7,95,25.7z"/>
<path class="st2" d="M115.7,91.8c-6.6,2.5-13.6,3.7-20.7,3.6C80.4,96,66.3,90.1,56.5,79.3c-3.8-4.2-6.9-9.1-9.1-14.3
	c2.2-5.2,5.3-10,9.1-14.3c2.9-3.2,6.3-6,10-8.3l12.4,12.8c-2.1,2.9-3.2,6.3-3.1,9.8c0.3,10.2,8.9,18.2,19.1,17.8H95
	c3.3,0,6.5-0.8,9.4-2.4L115.7,91.8z"/>
</svg>
