<?xml version="1.0" encoding="utf-8"?>
<!-- Generator: Adobe Illustrator 26.0.3, SVG Export Plug-In . SVG Version: 6.00 Build 0)  -->
<svg version="1.1" id="Layer_1" xmlns="http://www.w3.org/2000/svg" xmlns:xlink="http://www.w3.org/1999/xlink" x="0px" y="0px"
	 viewBox="0 0 190 130" style="enable-background:new 0 0 190 130;" xml:space="preserve">
<style type="text/css">
	.st0{fill:#FFFFFF;stroke:#008C10;stroke-width:1.9109;stroke-miterlimit:10;}
	.st1{fill:none;stroke:#009FE3;stroke-width:4.3668;stroke-linecap:round;stroke-linejoin:round;stroke-miterlimit:10;}
	.st2{fill:#CEECFF;}
	.st3{fill:#FFFFFF;stroke:#006D15;stroke-width:8.8231;stroke-miterlimit:10;}
	.st4{fill:none;stroke:#006D15;stroke-width:8.8231;stroke-linecap:round;stroke-linejoin:round;stroke-miterlimit:10;}
</style>
<path class="st0" d="M17.2,21.6h156.2c8.4,0,15.1,6.8,15.1,15.1v59.7c0,8.4-6.8,15.1-15.1,15.1H17.2C8.8,111.6,2,104.8,2,96.4V36.7
	C2,28.3,8.8,21.6,17.2,21.6z"/>
<polyline class="st1" points="16.2,106.4 26.6,96.1 37,106.5 47.2,96.3 57.3,106.5 67.3,96.5 "/>
<g>
	<circle class="st2" cx="175" cy="11" r="4.4"/>
	<circle class="st2" cx="175" cy="32" r="4.4"/>
	<circle class="st2" cx="175" cy="53" r="4.4"/>
	<circle class="st2" cx="175" cy="74" r="4.4"/>
	<circle class="st2" cx="153.5" cy="11" r="4.4"/>
	<circle class="st2" cx="153.5" cy="32" r="4.4"/>
	<circle class="st2" cx="153.5" cy="53" r="4.4"/>
	<circle class="st2" cx="153.5" cy="74" r="4.4"/>
</g>
<g>
	<path class="st3" d="M68.9,59.9l-19-19c-5.8-5.8-5.8-15.3,0-21.2l0,0c5.8-5.8,15.3-5.8,21.2,0l19,19c5.8,5.8,5.8,15.3,0,21.2l0,0
		C84.2,65.7,74.8,65.7,68.9,59.9z"/>
	<path class="st3" d="M119.3,110.3l-19-19c-5.8-5.8-5.8-15.3,0-21.2l0,0c5.8-5.8,15.3-5.8,21.2,0l19,19c5.8,5.8,5.8,15.3,0,21.2l0,0
		C134.6,116.2,125.1,116.2,119.3,110.3z"/>
	<line class="st4" x1="69.9" y1="39.8" x2="120.4" y2="90.2"/>
</g>
</svg>
