<svg id="Layer_1" data-name="Layer 1" xmlns="http://www.w3.org/2000/svg" viewBox="0 0 172.27 130"><defs><style>.cls-1{fill:#40d1e6;}.cls-2{fill:#fa3154;}.cls-3{fill:#1d1d1b;}.cls-4{fill:#fff;stroke:#1d1d1b;stroke-miterlimit:10;stroke-width:1.34px;}</style></defs><rect class="cls-1" x="15.01" y="42.88" width="45.61" height="45.61" rx="6.7" transform="translate(-27.87 103.49) rotate(-90)"/><rect class="cls-2" x="112.32" y="42.88" width="45.61" height="45.61" rx="6.7" transform="translate(69.44 200.8) rotate(-90)"/><path class="cls-3" d="M170.88,64.72l-8.27-8.26a1.33,1.33,0,0,0-1.89,1.88l7.34,7.34L160.72,73a1.34,1.34,0,0,0,1.89,1.89l8.27-8.27a1.4,1.4,0,0,0,0-1.92Z"/><path class="cls-3" d="M1.06,66.64l8.27,8.27A1.33,1.33,0,1,0,11.21,73L3.87,65.68l7.34-7.34a1.33,1.33,0,0,0,0-1.88,1.31,1.31,0,0,0-1.88,0L1.06,64.72a1.38,1.38,0,0,0,0,1.92Z"/><rect class="cls-4" x="63.66" y="42.88" width="45.61" height="45.61" rx="6.7" transform="translate(20.79 152.15) rotate(-90)"/></svg>