<svg id="Layer_1" data-name="Layer 1" xmlns="http://www.w3.org/2000/svg" viewBox="0 0 130 130"><defs><style>.cls-1{fill:#40d1e6;}.cls-2{fill:#fff;stroke-width:1.34px;}.cls-2,.cls-3,.cls-4{stroke:#1d1d1b;stroke-miterlimit:10;}.cls-3{fill:#fdc021;}.cls-4{fill:#ffe3a4;}.cls-5{fill:#fa3154;}</style></defs><rect class="cls-1" x="89.03" y="88.54" width="39.75" height="39.75" rx="5.84" transform="translate(217.32 -0.49) rotate(90)"/><rect class="cls-2" x="45.3" y="88.54" width="39.75" height="39.75" rx="5.84" transform="translate(173.59 43.24) rotate(90)"/><rect class="cls-3" x="89.03" y="44.51" width="39.75" height="39.75" rx="5.84" transform="translate(173.28 -44.52) rotate(90)"/><rect class="cls-2" x="45.3" y="44.51" width="39.75" height="39.75" rx="5.84" transform="translate(129.56 -0.8) rotate(90)"/><rect class="cls-2" x="89.03" y="0.78" width="39.75" height="39.75" rx="5.84" transform="translate(129.56 -88.24) rotate(90)"/><rect class="cls-2" x="45.3" y="0.78" width="39.75" height="39.75" rx="5.84" transform="translate(85.84 -44.52) rotate(90)"/><rect class="cls-2" x="1.47" y="44.51" width="39.75" height="39.75" rx="5.84" transform="translate(42.7 128.76) rotate(180)"/><rect class="cls-4" x="1.47" y="88.54" width="39.75" height="39.75" rx="5.84" transform="translate(42.7 216.83) rotate(180)"/><rect class="cls-5" x="1.47" y="0.78" width="39.75" height="39.75" rx="5.84" transform="translate(42.7 41.32) rotate(180)"/></svg>