<svg width="394" height="40" viewBox="0 0 394 40" fill="none" xmlns="http://www.w3.org/2000/svg">
<g clip-path="url(#clip0_522_81)">
<path d="M88.0946 10.1538H88.0319C85.9238 10.1408 83.8362 10.5597 81.9025 11.3838C78.1007 12.9775 75.0722 15.9494 73.448 19.6802C72.6094 21.5867 72.1826 23.6431 72.1946 25.7196V35.7872C72.1914 36.2393 72.2898 36.6866 72.4829 37.0972C72.663 37.4877 72.9208 37.839 73.2412 38.1304C73.5711 38.4289 73.9533 38.6664 74.3693 38.8315C74.8063 39.0093 75.2751 39.0992 75.7481 39.0959C76.1969 39.1004 76.6415 39.0102 77.0517 38.8315C77.4462 38.6613 77.8069 38.4239 78.1171 38.1304C78.4306 37.8328 78.6744 37.4718 78.8316 37.0726C79.0001 36.6558 79.0852 36.211 79.0823 35.7626V25.6335C79.0747 24.4632 79.3248 23.3052 79.8156 22.2386C80.2825 21.2055 80.9389 20.2653 81.7521 19.4649C82.5703 18.6784 83.5339 18.0522 84.5912 17.6199C85.681 17.1648 86.8538 16.9325 88.0382 16.9373H88.1008C88.5735 16.9375 89.0418 16.8477 89.4796 16.6728C89.8964 16.4934 90.2765 16.2413 90.6015 15.9287C90.9323 15.6278 91.1967 15.2636 91.3786 14.8585C91.5723 14.4373 91.6706 13.9799 91.6669 13.5178C91.6824 13.0743 91.6078 12.6322 91.4475 12.2173C91.2872 11.8023 91.0443 11.4228 90.7331 11.1009C90.3831 10.7738 89.9682 10.5209 89.5142 10.358C89.0603 10.195 88.5771 10.1255 88.0946 10.1538Z" fill="#92153F"/>
<path d="M120.684 30.615C120.111 30.0795 119.351 29.7802 118.56 29.7786C118.074 29.7761 117.595 29.8879 117.162 30.1045C116.721 30.3182 116.315 30.596 115.959 30.9287C115.26 31.548 114.439 32.0191 113.546 32.3124C112.633 32.6018 111.679 32.7451 110.719 32.7368C109.107 32.7506 107.527 32.2985 106.175 31.4366C104.823 30.5748 103.76 29.3415 103.117 27.8905C102.693 26.9192 102.48 25.8721 102.491 24.8155V16.9127H113.54C114.008 16.9135 114.473 16.8236 114.906 16.6482C115.317 16.4758 115.693 16.232 116.015 15.9287C116.331 15.6265 116.584 15.2673 116.761 14.8708C116.939 14.4627 117.031 14.0233 117.031 13.5793C117.034 13.1285 116.946 12.6816 116.772 12.2645C116.598 11.8474 116.34 11.4685 116.015 11.1501C115.691 10.831 115.305 10.5786 114.88 10.4075C114.455 10.2365 113.999 10.1502 113.54 10.1537H102.447V3.63468C102.451 3.17638 102.36 2.72206 102.177 2.30012C102.001 1.90441 101.755 1.5422 101.45 1.23001C101.142 0.911281 100.774 0.654362 100.366 0.473552C99.9501 0.298849 99.5023 0.208879 99.0499 0.209099C98.5915 0.210073 98.1378 0.299946 97.7149 0.473552C97.3003 0.655475 96.924 0.912057 96.6056 1.23001C96.2854 1.54657 96.0264 1.91747 95.841 2.32472C95.6517 2.74493 95.5556 3.19984 95.559 3.65928V24.754C95.5437 26.7411 95.9492 28.7097 96.7498 30.5351C97.5144 32.282 98.6193 33.8655 100.002 35.1968C101.388 36.5343 103.019 37.6026 104.809 38.3456C108.391 39.7938 112.394 39.8771 116.034 38.5793C117.671 37.9733 119.165 37.0439 120.421 35.8487C120.798 35.5006 121.1 35.0825 121.311 34.6187C121.518 34.1704 121.641 33.6892 121.675 33.198C121.706 32.719 121.642 32.2385 121.487 31.7835C121.325 31.3334 121.049 30.9312 120.684 30.615Z" fill="#92153F"/>
<path d="M53.2927 9.57564C50.9267 9.56961 48.5919 10.1046 46.4733 11.1382C44.3548 12.1717 42.5107 13.6754 41.0875 15.5301C39.6642 17.3847 38.7008 19.5393 38.2738 21.8228C37.8468 24.1064 37.9678 26.4562 38.6273 28.6859C39.2868 30.9156 40.4666 32.9639 42.0731 34.6682C43.6797 36.3726 45.6688 37.6862 47.8828 38.5049C50.0968 39.3236 52.4747 39.6249 54.8279 39.3848C57.1812 39.1447 59.4451 38.3699 61.4401 37.1218C62.2005 36.6463 62.7374 35.8939 62.9325 35.03C63.1276 34.1661 62.965 33.2616 62.4805 32.5154C61.9959 31.7691 61.2292 31.2424 60.3488 31.0509C59.4685 30.8594 58.5467 31.019 57.7863 31.4945C56.3347 32.4033 54.6343 32.8542 52.9139 32.7863C51.1934 32.7185 49.5353 32.1353 48.1627 31.1151C46.7901 30.0949 45.7688 28.6867 45.2362 27.0799C44.7036 25.4731 44.6852 23.7448 45.1835 22.1274C45.6817 20.51 46.6728 19.0812 48.0234 18.033C49.374 16.9849 51.0192 16.3678 52.7379 16.2647C54.4566 16.1616 56.1662 16.5775 57.6368 17.4564C59.1074 18.3353 60.2685 19.635 60.9638 21.1808H53.8505C52.974 21.2177 52.1459 21.5854 51.539 22.2071C50.9321 22.8287 50.5934 23.6563 50.5934 24.5172C50.5934 25.3781 50.9321 26.2057 51.539 26.8274C52.1459 27.449 52.974 27.8167 53.8505 27.8536H65.1315C66.033 27.8536 66.8976 27.5026 67.5357 26.8777C68.1737 26.2527 68.533 25.4049 68.5346 24.5203C68.5296 20.5561 66.9218 16.7558 64.0641 13.9539C61.2064 11.1519 57.3324 9.57727 53.2927 9.57564Z" fill="#92153F"/>
<path d="M139.423 9.57564C137.057 9.56961 134.723 10.1046 132.604 11.1382C130.485 12.1717 128.641 13.6754 127.218 15.5301C125.795 17.3847 124.831 19.5393 124.404 21.8228C123.977 24.1064 124.098 26.4562 124.758 28.6859C125.417 30.9156 126.597 32.9639 128.204 34.6682C129.81 36.3726 131.799 37.6862 134.013 38.5049C136.227 39.3236 138.605 39.6249 140.959 39.3848C143.312 39.1447 145.576 38.3699 147.571 37.1218C148.301 36.6326 148.809 35.8835 148.986 35.0332C149.164 34.1829 148.997 33.2983 148.521 32.5667C148.045 31.8351 147.298 31.314 146.437 31.1139C145.577 30.9137 144.67 31.0502 143.911 31.4945C142.459 32.4023 140.758 32.852 139.038 32.783C137.317 32.7141 135.66 32.1299 134.288 31.1089C132.916 30.088 131.896 28.6793 131.364 27.0723C130.832 25.4652 130.815 23.737 131.314 22.12C131.813 20.503 132.805 19.0747 134.156 18.0274C135.507 16.98 137.153 16.3637 138.871 16.2614C140.59 16.1592 142.299 16.5758 143.769 17.4552C145.239 18.3347 146.4 19.6348 147.094 21.1808H139.95C139.491 21.1615 139.033 21.2335 138.603 21.3924C138.174 21.5514 137.781 21.794 137.45 22.1057C137.118 22.4174 136.854 22.7918 136.674 23.2062C136.494 23.6207 136.401 24.0666 136.401 24.5172C136.401 24.9678 136.494 25.4138 136.674 25.8282C136.854 26.2426 137.118 26.617 137.45 26.9287C137.781 27.2404 138.174 27.4831 138.603 27.642C139.033 27.801 139.491 27.873 139.95 27.8536H151.231C152.132 27.8536 152.996 27.5024 153.633 26.8773C154.27 26.2522 154.628 25.4043 154.628 24.5203C154.624 20.562 153.022 16.7664 150.172 13.9651C147.322 11.1638 143.457 9.58541 139.423 9.57564Z" fill="#92153F"/>
<path d="M180.706 10.5535L157.448 33.3702C156.845 34.0033 156.516 34.8416 156.531 35.7081C156.546 36.5746 156.904 37.4014 157.529 38.0138C158.154 38.6261 158.997 38.9762 159.88 38.9899C160.763 39.0036 161.617 38.68 162.261 38.0873L185.513 15.2706C185.828 14.9609 186.079 14.5932 186.249 14.1885C186.42 13.7838 186.508 13.3501 186.508 12.9121C186.508 12.474 186.42 12.0403 186.249 11.6356C186.079 11.2309 185.828 10.8632 185.513 10.5535C185.197 10.2438 184.822 9.99808 184.41 9.83046C183.998 9.66284 183.556 9.57656 183.109 9.57656C182.663 9.57656 182.221 9.66284 181.808 9.83046C181.396 9.99808 181.021 10.2438 180.706 10.5535Z" fill="#92153F"/>
<path d="M163.208 20.9102C163.852 21.5029 164.706 21.8265 165.589 21.8128C166.472 21.7991 167.315 21.449 167.94 20.8366C168.565 20.2242 168.922 19.3975 168.937 18.531C168.953 17.6645 168.624 16.8262 168.021 16.1931L162.261 10.5412C161.617 9.94855 160.763 9.6249 159.88 9.63863C158.997 9.65236 158.154 10.0024 157.529 10.6148C156.904 11.2272 156.546 12.0539 156.531 12.9204C156.516 13.7869 156.845 14.6253 157.448 15.2583L163.208 20.9102Z" fill="#92153F"/>
<path d="M179.753 27.7183C179.437 27.4086 179.063 27.1629 178.65 26.9953C178.238 26.8277 177.796 26.7414 177.349 26.7414C176.903 26.7414 176.461 26.8277 176.049 26.9953C175.636 27.1629 175.262 27.4086 174.946 27.7183C174.63 28.0281 174.38 28.3958 174.209 28.8004C174.038 29.2051 173.95 29.6388 173.95 30.0769C173.95 30.5149 174.038 30.9486 174.209 31.3533C174.38 31.758 174.63 32.1257 174.946 32.4354L180.706 38.0873C181.021 38.3971 181.396 38.6427 181.808 38.8104C182.221 38.978 182.663 39.0643 183.109 39.0643C183.555 39.0643 183.997 38.978 184.41 38.8104C184.822 38.6427 185.197 38.3971 185.513 38.0873C185.828 37.7776 186.079 37.4099 186.249 37.0052C186.42 36.6005 186.508 36.1668 186.508 35.7288C186.508 35.2908 186.42 34.857 186.249 34.4523C186.079 34.0477 185.828 33.68 185.513 33.3702L179.753 27.7183Z" fill="#92153F"/>
<path d="M35.7695 1.23002C35.449 0.903539 35.0597 0.649587 34.6289 0.485858C34.23 0.328337 33.8053 0.242912 33.3755 0.233705C32.7074 0.230058 32.0532 0.420508 31.4953 0.781061C30.9296 1.14494 30.4919 1.67108 30.2418 2.28783L18.9608 28.2472L7.57322 2.28783C7.3179 1.6692 6.88178 1.13853 6.31977 0.762611C5.7596 0.408898 5.10566 0.224941 4.4396 0.233705C4.00971 0.242912 3.58506 0.328337 3.18615 0.485858C2.74297 0.646967 2.3409 0.900911 2.00791 1.23002C1.69364 1.53606 1.43692 1.89416 1.24957 2.28783C1.07237 2.6746 0.980532 3.09377 0.980079 3.51784C0.976421 3.98191 1.07475 4.4413 1.26837 4.8647L15.7144 37.9151C15.9241 38.3995 16.2435 38.8306 16.6482 39.1759C17.0258 39.4927 17.4714 39.7218 17.9518 39.8462L18.2651 39.9385H18.3591H18.4218C18.569 39.9609 18.7178 39.9712 18.8668 39.9692C19.551 39.9722 20.2207 39.7756 20.7909 39.4044C21.3611 39.0332 21.8061 38.5042 22.0693 37.8844L36.4965 4.83395C36.6836 4.41776 36.7756 3.96646 36.766 3.51169C36.7539 3.08892 36.6626 2.67196 36.4965 2.28168C36.3257 1.88832 36.0788 1.53118 35.7695 1.23002Z" fill="#92153F"/>
<path d="M213.283 0.836405C213.199 0.59286 213.045 0.378904 212.838 0.221399L212.587 0.0983979C212.419 0.0185071 212.235 -0.0235172 212.048 -0.0246033C211.781 -0.0265558 211.519 0.0436608 211.29 0.178349C211.048 0.321566 210.859 0.537102 210.751 0.793355L194.487 37.8782C194.417 38.0343 194.381 38.2029 194.381 38.3733C194.381 38.5438 194.417 38.7124 194.487 38.8684C194.626 39.2029 194.891 39.4718 195.227 39.6187C195.4 39.6771 195.582 39.7082 195.766 39.7109C196.035 39.7199 196.3 39.6466 196.524 39.5011C196.749 39.3557 196.922 39.1453 197.019 38.8991L212.017 4.62484L220.12 23.1365H207.893C207.519 23.1365 207.16 23.2823 206.896 23.5418C206.631 23.8013 206.483 24.1533 206.483 24.5203C206.483 24.8873 206.631 25.2393 206.896 25.4988C207.16 25.7583 207.519 25.9041 207.893 25.9041H221.33L227.014 38.8991C227.106 39.1556 227.285 39.3729 227.522 39.5141C227.751 39.6488 228.013 39.719 228.28 39.7171C228.464 39.7144 228.646 39.6833 228.819 39.6248C229.145 39.4682 229.403 39.202 229.546 38.8745C229.618 38.7181 229.653 38.5475 229.648 38.3759C229.642 38.2043 229.597 38.0361 229.515 37.8844L213.283 0.836405Z" fill="#92153F"/>
<path d="M393.14 28.3518C392.555 27.4317 391.777 26.6436 390.859 26.0394C389.823 25.3427 388.7 24.7785 387.519 24.3604C386.265 23.893 384.918 23.4502 383.526 23.0381C382.661 22.786 381.828 22.5215 381.019 22.2263C380.268 21.9651 379.554 21.6096 378.895 21.1685C378.308 20.7823 377.811 20.2794 377.435 19.6925C377.06 19.0672 376.873 18.3509 376.896 17.6261C376.867 16.8153 377.085 16.0144 377.522 15.3259C377.942 14.7104 378.502 14.1988 379.158 13.8315C379.858 13.449 380.615 13.1772 381.402 13.0258C382.204 12.8611 383.02 12.7767 383.84 12.7737C385.18 12.7442 386.51 13.0023 387.738 13.5301C388.961 14.1246 390.014 15.008 390.803 16.1009C390.977 16.1982 391.172 16.253 391.373 16.2608C391.533 16.2578 391.692 16.2231 391.838 16.1586C391.985 16.0942 392.116 16.0013 392.225 15.8856C392.401 15.708 392.513 15.4792 392.545 15.2337C392.581 14.9431 392.524 14.6487 392.382 14.3911C391.597 12.957 390.343 11.8239 388.822 11.1747C387.206 10.4906 385.462 10.147 383.702 10.166C382.525 10.1641 381.353 10.3151 380.217 10.615C379.122 10.8951 378.087 11.3636 377.159 11.9988C376.273 12.6132 375.533 13.4083 374.99 14.3296C374.423 15.3372 374.139 16.4751 374.169 17.6261C374.142 18.6521 374.381 19.6682 374.865 20.5781C375.319 21.4142 375.936 22.1541 376.682 22.7552C377.467 23.3732 378.336 23.8804 379.265 24.262C380.221 24.672 381.189 25.0307 382.166 25.3383C383.37 25.6704 384.51 26.0209 385.601 26.3961C386.606 26.7202 387.572 27.1491 388.484 27.6753C389.25 28.1168 389.928 28.692 390.483 29.3727C390.979 30.0087 391.24 30.7918 391.222 31.5929C391.222 32.3963 391.006 33.1855 390.596 33.8807C390.185 34.58 389.63 35.1874 388.966 35.6642C388.254 36.1741 387.462 36.5686 386.622 36.8327C385.737 37.1115 384.813 37.2526 383.884 37.2509C382.216 37.292 380.561 36.9508 379.051 36.2546C377.732 35.6399 376.638 34.6414 375.918 33.3948C375.749 33.2093 375.544 33.0592 375.314 32.9535C375.085 32.8478 374.836 32.7888 374.583 32.7798C374.374 32.7698 374.166 32.8168 373.982 32.9155C373.799 33.0143 373.646 33.1611 373.543 33.3395C373.427 33.5526 373.371 33.7923 373.382 34.0336C373.394 34.2749 373.47 34.5089 373.605 34.7109C374.032 35.5622 374.612 36.3309 375.316 36.9803C376.025 37.6295 376.83 38.1687 377.704 38.5793C378.631 39.0147 379.61 39.3329 380.618 39.5264C381.679 39.737 382.758 39.842 383.84 39.8401C385.174 39.8563 386.501 39.6483 387.763 39.2251C388.932 38.8335 390.022 38.2444 390.984 37.4846C391.884 36.77 392.622 35.88 393.153 34.8708C393.682 33.8568 393.953 32.7321 393.942 31.5929C393.992 30.4599 393.714 29.3362 393.14 28.3518Z" fill="#92153F"/>
<path d="M319.983 10.2337C317.008 10.2337 314.1 11.0994 311.626 12.7212C309.152 14.3431 307.225 16.6483 306.086 19.3454C304.948 22.0425 304.65 25.0102 305.23 27.8734C305.811 30.7366 307.243 33.3666 309.347 35.4309C311.45 37.4951 314.13 38.9009 317.048 39.4704C319.966 40.0399 322.99 39.7476 325.739 38.6305C328.487 37.5133 330.836 35.6214 332.489 33.1942C334.142 30.7669 335.024 27.9131 335.024 24.9939C335.014 21.0822 333.426 17.3336 330.607 14.5676C327.789 11.8017 323.969 10.2434 319.983 10.2337ZM319.983 37.0234C317.562 37.0234 315.195 36.3189 313.182 34.9991C311.17 33.6793 309.601 31.8035 308.674 29.6087C307.748 27.414 307.506 24.999 307.978 22.6691C308.45 20.3391 309.616 18.199 311.328 16.5192C313.039 14.8394 315.22 13.6955 317.595 13.232C319.969 12.7686 322.43 13.0064 324.667 13.9155C326.903 14.8246 328.815 16.3641 330.16 18.3393C331.505 20.3145 332.222 22.6367 332.222 25.0123C332.219 28.1968 330.929 31.25 328.634 33.5018C326.339 35.7536 323.228 37.0201 319.983 37.0234Z" fill="#92153F"/>
<path d="M262.123 1.93727C262.123 1.57027 261.975 1.21831 261.71 0.9588C261.446 0.699294 261.087 0.553505 260.713 0.553505C260.339 0.553505 259.981 0.699294 259.716 0.9588C259.452 1.21831 259.303 1.57027 259.303 1.93727V16.3592C257.2 13.5131 254.131 11.497 250.648 10.6737C247.165 9.85047 243.497 10.2741 240.304 11.8685C237.111 13.4628 234.603 16.1231 233.231 19.3706C231.859 22.6181 231.713 26.2395 232.82 29.5831C233.927 32.9267 236.213 35.7729 239.268 37.6094C242.323 39.4459 245.945 40.1522 249.484 39.6011C253.022 39.05 256.244 37.2778 258.569 34.6033C260.894 31.9289 262.17 28.5278 262.167 25.0123C262.167 24.6556 262.167 24.305 262.123 23.9545V1.93727ZM247.082 37.0234C244.697 37.0262 242.362 36.3449 240.366 35.0633C238.37 33.7818 236.799 31.9558 235.846 29.8098C234.893 27.6638 234.6 25.2914 235.003 22.9843C235.406 20.6771 236.487 18.5356 238.113 16.8232C239.74 15.1108 241.841 13.9021 244.158 13.3456C246.475 12.7891 248.907 12.9091 251.155 13.6909C253.404 14.4726 255.37 15.8821 256.813 17.746C258.256 19.6098 259.113 21.8468 259.278 24.182V25.8303C259.067 28.8603 257.695 31.6995 255.436 33.7763C253.178 35.8531 250.202 37.0133 247.107 37.0234H247.082Z" fill="#92153F"/>
<path d="M298.561 1.93727C298.561 1.57027 298.413 1.21831 298.148 0.9588C297.884 0.699294 297.525 0.553505 297.151 0.553505C296.777 0.553505 296.418 0.699294 296.154 0.9588C295.89 1.21831 295.741 1.57027 295.741 1.93727V16.3592C293.64 13.5115 290.572 11.4933 287.09 10.6676C283.608 9.84198 279.939 10.2632 276.745 11.8555C273.551 13.4477 271.041 16.1065 269.667 19.3531C268.292 22.5998 268.144 26.2212 269.249 29.5656C270.353 32.91 272.638 35.7576 275.692 37.5961C278.746 39.4345 282.368 40.143 285.906 39.594C289.445 39.0451 292.668 37.2747 294.995 34.6015C297.321 31.9283 298.6 28.5279 298.599 25.0123C298.599 24.6556 298.599 24.305 298.561 23.9545V1.93727ZM283.52 37.0234C281.135 37.0262 278.8 36.3449 276.804 35.0633C274.808 33.7818 273.237 31.9558 272.284 29.8098C271.331 27.6638 271.038 25.2914 271.441 22.9843C271.844 20.6771 272.925 18.5356 274.551 16.8232C276.178 15.1108 278.278 13.9021 280.595 13.3456C282.912 12.7891 285.345 12.9091 287.593 13.6909C289.842 14.4726 291.808 15.8821 293.251 17.746C294.694 19.6098 295.551 21.8468 295.716 24.182V25.8303C295.504 28.8598 294.131 31.6981 291.873 33.7747C289.615 35.8512 286.639 37.0119 283.545 37.0234H283.52Z" fill="#92153F"/>
<path d="M353.857 10.0184C350.203 10.0266 346.701 11.4547 344.117 13.9903C341.533 16.5259 340.077 19.9627 340.069 23.5486C340.069 23.7269 340.069 23.9483 340.069 24.1636V38.1304C340.093 38.4822 340.252 38.812 340.515 39.0529C340.777 39.2939 341.123 39.4279 341.482 39.4279C341.842 39.4279 342.188 39.2939 342.45 39.0529C342.712 38.812 342.872 38.4822 342.896 38.1304V24.385C342.892 24.3399 342.892 24.2947 342.896 24.2497C342.896 24.1574 342.896 24.0652 342.896 23.9729C342.896 23.8499 342.896 23.7208 342.896 23.5916C342.825 22.135 343.056 20.6793 343.575 19.3129C344.094 17.9465 344.89 16.6977 345.916 15.6421C346.941 14.5866 348.174 13.7463 349.54 13.1722C350.907 12.5981 352.377 12.302 353.863 12.302C355.349 12.302 356.82 12.5981 358.186 13.1722C359.552 13.7463 360.785 14.5866 361.811 15.6421C362.836 16.6977 363.633 17.9465 364.152 19.3129C364.671 20.6793 364.902 22.135 364.831 23.5916C364.831 23.7515 364.831 23.9114 364.831 24.0652C364.831 24.2189 364.831 24.1882 364.831 24.2497V38.1304C364.831 38.4974 364.98 38.8493 365.244 39.1089C365.508 39.3684 365.867 39.5141 366.241 39.5141C366.615 39.5141 366.974 39.3684 367.238 39.1089C367.503 38.8493 367.651 38.4974 367.651 38.1304V24.3542C367.651 24.0959 367.651 23.8376 367.651 23.5732C367.655 21.7938 367.3 20.0312 366.608 18.3864C365.916 16.7417 364.901 15.2469 363.619 13.9879C362.338 12.7288 360.816 11.7301 359.141 11.049C357.466 10.3678 355.67 10.0176 353.857 10.0184Z" fill="#92153F"/>
</g>
<defs>
<clipPath id="clip0_522_81">
<rect width="393" height="40" fill="white" transform="translate(0.97998)"/>
</clipPath>
</defs>
</svg>
