<svg width="156" height="156" viewBox="0 0 156 156" fill="none" xmlns="http://www.w3.org/2000/svg">
<g clip-path="url(#clip0_522_79)">
<path d="M78 0.0100098C62.5731 0.0100098 47.4926 4.58463 34.6656 13.1554C21.8385 21.7261 11.8411 33.9081 5.93743 48.1607C0.0337958 62.4133 -1.51086 78.0965 1.49878 93.2271C4.50843 108.358 11.9372 122.256 22.8457 133.164C33.7542 144.073 47.6525 151.502 62.783 154.511C77.9135 157.521 93.5967 155.976 107.849 150.073C122.102 144.169 134.284 134.172 142.855 121.344C151.425 108.517 156 93.437 156 78.01C156 57.3231 147.782 37.4835 133.154 22.8557C118.527 8.22784 98.6869 0.0100098 78 0.0100098ZM114.74 84.1H95.53C94.7089 84.1333 93.8894 84.0003 93.1209 83.709C92.3524 83.4176 91.6507 82.9741 91.058 82.4048C90.4652 81.8355 89.9935 81.1524 89.6714 80.3963C89.3492 79.6402 89.1831 78.8269 89.1831 78.005C89.1831 77.1832 89.3492 76.3698 89.6714 75.6137C89.9935 74.8576 90.4652 74.1745 91.058 73.6052C91.6507 73.036 92.3524 72.5924 93.1209 72.3011C93.8894 72.0098 94.7089 71.8767 95.53 71.91H107.34C106.213 69.3465 104.394 67.1473 102.088 65.5585C99.7817 63.9697 97.0788 63.054 94.2819 62.9139C91.4849 62.7738 88.7041 63.4148 86.2507 64.7652C83.7973 66.1155 81.768 68.122 80.39 70.56L79.39 72.66C78.2736 75.6266 78.1177 78.8691 78.9443 81.9291C79.771 84.9892 81.5385 87.712 83.997 89.7128C86.4554 91.7136 89.4805 92.8912 92.6447 93.0791C95.8088 93.267 98.952 92.4558 101.63 90.76C102.303 90.2891 103.063 89.959 103.867 89.7896C104.67 89.6202 105.5 89.615 106.305 89.7743C107.111 89.9337 107.875 90.2542 108.554 90.7167C109.232 91.1793 109.81 91.7742 110.253 92.4657C110.695 93.1573 110.993 93.9312 111.129 94.7409C111.265 95.5507 111.236 96.3795 111.043 97.1777C110.851 97.9758 110.498 98.7267 110.008 99.3853C109.518 100.044 108.899 100.597 108.19 101.01C105.127 102.965 101.704 104.288 98.1223 104.902C94.5407 105.516 90.8726 105.409 87.333 104.587C83.7935 103.764 80.4538 102.243 77.51 100.113C74.5662 97.9822 72.0776 95.2852 70.19 92.18L66.09 100.9C65.5784 102.057 64.7138 103.024 63.62 103.66C62.7246 104.204 61.7212 104.545 60.68 104.66C59.3772 104.71 58.0911 104.354 57 103.64C56.0089 102.954 55.2157 102.019 54.7 100.93L35.7 60.52C35.3267 59.7571 35.1318 58.9193 35.13 58.07C35.1175 56.4504 35.7176 54.8858 36.81 53.69C37.3701 53.082 38.0514 52.5983 38.81 52.27C39.2125 52.0883 39.631 51.9443 40.06 51.84C40.4739 51.749 40.8963 51.702 41.32 51.7C42.5054 51.6907 43.666 52.0392 44.65 52.7C45.6672 53.3786 46.466 54.3372 46.95 55.46L60.43 84.94L68.11 68.01C68.448 67.1258 68.8422 66.264 69.29 65.43C72.0984 59.9891 76.655 55.6508 82.227 53.1125C87.7991 50.5742 94.0628 49.9836 100.011 51.4354C105.959 52.8873 111.247 56.2974 115.023 61.1173C118.799 65.9373 120.844 71.8871 120.83 78.01C120.827 79.6261 120.184 81.1751 119.04 82.3169C117.896 83.4587 116.346 84.1 114.73 84.1H114.74Z" fill="#91153E"/>
</g>
<defs>
<clipPath id="clip0_522_79">
<rect width="155.98" height="155.98" fill="white" transform="translate(0 0.0100098)"/>
</clipPath>
</defs>
</svg>
