<svg width="88" height="88" viewBox="0 0 88 88" fill="none" xmlns="http://www.w3.org/2000/svg">
<path d="M39.5076 70.1624H52.3424C50.0764 67.8744 46.1692 63.0564 52.2588 55.5984C50.1512 56.0032 47.9204 56.5796 45.6412 56.5796C43.1728 56.5796 40.8012 55.9636 38.5352 55.4884C41.932 58.6828 45.6984 63.6152 39.5076 70.1624Z" fill="#FFAC48"/>
<path d="M46.8908 56.8568C46.8908 56.8568 44.0044 63.2456 46.86 69.5728C51.018 69.7048 52.2852 69.8412 52.2852 69.8412C52.2852 69.8412 45.1528 65.3488 51.6208 56.0296C49.6056 55.6556 46.8908 56.8568 46.8908 56.8568Z" fill="#FC992D"/>
<path d="M66.5808 16.5792H24.7412C22.8448 16.5792 21.3092 15.0436 21.3092 13.1472V12.54C21.3092 10.6436 22.8448 9.108 24.7412 9.108H66.5808C68.4772 9.108 70.0128 10.6436 70.0128 12.54V13.1472C70.0128 15.0392 68.4772 16.5792 66.5808 16.5792Z" fill="#FFAC48"/>
<path d="M63.6195 9.8164C63.6195 9.8164 66.0659 10.9648 66.0659 12.6368C66.0659 14.3088 65.6171 15.2592 63.0959 15.532C66.0659 15.532 69.1855 16.104 69.2603 12.7864C69.3351 9.4688 65.1155 9.8164 63.6195 9.8164Z" fill="#FC992D"/>
<path d="M47.3924 56.5708H44.88C34.1484 56.5708 25.454 47.872 25.454 37.1448V17.8464C25.454 17.5516 25.6916 17.3096 25.9908 17.3096H66.2904C66.5852 17.3096 66.8272 17.5472 66.8272 17.8464V37.1404C66.8184 47.872 58.124 56.5708 47.3924 56.5708Z" fill="#F2C336"/>
<path d="M61.996 16.5484V33.6556C61.996 37.4484 60.3328 53.6932 42.7592 56.0252C50.5472 56.0252 62.9948 54.692 66.792 37.5848C67.1264 21.6744 66.4884 16.5792 66.4884 16.5792L61.996 16.5484Z" fill="#E8A200"/>
<path d="M22.902 43.3224C11.5016 41.9804 11.3388 35.5608 11.3388 33.022V26.6068C11.3388 26.2064 11.6732 25.8852 12.0824 25.8852H20.2356V20.1344H13.8908C10.2212 20.1344 7.23364 23.0384 7.23364 26.6068V33.0264C7.23364 42.6492 13.6576 48.4484 25.322 49.3636C25.4012 49.368 25.4848 49.3724 25.564 49.3724C26.4088 49.3724 26.3296 48.752 26.0304 48.0524C24.7676 46.5564 23.738 45.1088 22.902 43.3224Z" fill="#FFAC48"/>
<path d="M17.0852 20.2752V24.9172C17.0852 24.9172 12.2672 24.5168 11.2948 24.5168C10.3224 24.5168 8.35122 24.4904 8.35122 26.9368V33.528C8.35122 34.3508 8.27642 41.316 15.8664 44.5852C18.0136 45.4344 20.1872 45.7072 20.1872 45.7072L21.9912 48.9588L24.354 48.6244L21.7228 44.198C21.7228 44.198 11.4048 41.734 10.8064 35.5124C10.208 29.2864 11.2376 26.092 11.2376 26.092L19.4568 25.96L19.822 20.4996L17.0852 20.2752Z" fill="#FC992D"/>
<path d="M76.8899 20.1608H70.0831V25.9072H78.6983C79.1075 25.9072 79.4419 26.2328 79.4419 26.6288V33.0484C79.4419 35.5916 79.4375 42.196 68.0239 43.5336C67.1879 45.3156 66.1275 46.97 64.8647 48.4616C65.1427 48.7556 65.4775 48.9899 65.849 49.1503C66.2204 49.3107 66.6206 49.3937 67.0251 49.3944C67.1043 49.3944 67.1835 49.3944 67.2671 49.3856C76.9031 48.2328 83.5471 42.6712 83.5471 33.0484V26.6332C83.5471 23.0648 80.5595 20.1608 76.8899 20.1608Z" fill="#FFAC48"/>
<path d="M78.3991 20.7504C76.2255 20.4248 74.9275 20.8736 74.9275 20.8736C74.9275 20.8736 80.5199 22.6952 80.5199 27.038V34.5268C80.5199 35.6752 79.7939 40.2204 76.9251 42.3148C74.2587 44.264 71.3107 45.8436 66.2683 46.596C65.8327 47.2384 65.3707 47.8676 64.8647 48.4616C65.1243 48.7344 65.4367 48.9588 65.7843 49.1172L71.4075 48.5584C71.7331 48.466 72.0587 48.3648 72.3755 48.2592C74.4171 47.036 83.3271 41.2764 83.0147 34.0252C82.6671 25.8412 82.9179 21.6216 78.3991 20.7504Z" fill="#FC992D"/>
<path d="M62.3876 79.2044H28.4988V73.7528C28.4988 73.2992 28.5881 72.8501 28.7617 72.431C28.9353 72.012 29.1897 71.6312 29.5104 71.3105C29.8312 70.9897 30.2119 70.7353 30.631 70.5617C31.05 70.3881 31.4992 70.2988 31.9528 70.2988H58.9336C59.3872 70.2988 59.8363 70.3881 60.2554 70.5617C60.6744 70.7353 61.0552 70.9897 61.3759 71.3105C61.6967 71.6312 61.9511 72.012 62.1247 72.431C62.2982 72.8501 62.3876 73.2992 62.3876 73.7528V79.2044Z" fill="#8F93FB"/>
<path d="M54.912 70.9148C54.912 70.9148 58.7488 71.5968 58.7488 73.854V78.3992H62.0268V71.4252L54.912 70.9148Z" fill="#787CF5"/>
<path d="M4.80926 33.4664C5.53966 33.4664 6.12926 32.8768 6.12926 32.1464V31.196C6.12926 30.4656 5.53966 29.876 4.80926 29.876C4.07886 29.876 3.48926 30.4656 3.48926 31.196V32.1464C3.48926 32.8724 4.07886 33.4664 4.80926 33.4664Z" fill="#333333"/>
<path d="M76.1507 18.8408H68.1383V18.106C68.1383 17.9476 68.1207 17.798 68.0987 17.644C69.9731 17.006 71.3327 15.2328 71.3327 13.1428V12.5356C71.3327 9.9132 69.1987 7.7836 66.5807 7.7836H38.5703C37.8399 7.7836 37.2503 8.3732 37.2503 9.1036C37.2503 9.834 37.8399 10.4236 38.5703 10.4236H66.5763C67.7423 10.4236 68.6883 11.3696 68.6883 12.5356V13.1428C68.6883 14.3088 67.7379 15.2548 66.5763 15.2548H65.7843C65.6083 15.2196 65.4279 15.202 65.2387 15.202H22.5499C22.3651 15.202 22.1803 15.2196 22.0043 15.2548H20.7767C19.6107 15.2548 18.6647 14.3088 18.6647 13.1428V12.5356C18.6647 11.3696 19.6151 10.4236 20.7767 10.4236H31.8999C32.6303 10.4236 33.2199 9.834 33.2199 9.1036C33.2199 8.3732 32.6303 7.7836 31.8999 7.7836H20.7767C18.1543 7.7836 16.0247 9.9176 16.0247 12.5356V13.1428C16.0247 15.3824 17.5867 17.2612 19.6723 17.7628C19.6591 17.8728 19.6503 17.9872 19.6503 18.1016V18.81H11.4619C7.06194 18.81 3.48474 22.3036 3.48474 26.6024C3.48474 27.3328 4.07434 27.9224 4.80474 27.9224C5.53514 27.9224 6.12474 27.3328 6.12474 26.6024C6.12474 23.76 8.51834 21.45 11.4619 21.45H18.7439V24.5564H11.4619C10.3223 24.5564 9.39834 25.4716 9.39834 26.598V33.0176C9.39834 35.5212 9.39834 43.0364 21.2475 44.7172C21.6831 45.5796 22.1715 46.4112 22.7127 47.212C22.8799 47.4892 23.0515 47.7664 23.2319 48.0348C23.1571 48.0392 23.0823 48.0436 23.0031 48.0348C16.2183 47.5024 7.81874 44.9636 6.34914 35.8776C6.32155 35.7065 6.26049 35.5425 6.16946 35.395C6.07843 35.2476 5.95921 35.1195 5.81862 35.0181C5.67803 34.9168 5.51884 34.8441 5.35015 34.8044C5.18147 34.7646 5.00659 34.7585 4.83554 34.7864C4.66449 34.8141 4.50057 34.8752 4.35315 34.9663C4.20573 35.0574 4.0777 35.1766 3.97637 35.3171C3.87503 35.4577 3.80238 35.6168 3.76257 35.7855C3.72276 35.9541 3.71657 36.129 3.74434 36.3C5.10394 44.7128 11.8711 49.8168 22.7963 50.6704C23.5306 50.7285 24.2674 50.5951 24.9347 50.2832C27.3855 53.13 30.5535 55.3388 34.1615 56.6236C34.2099 56.6764 34.2627 56.7248 34.3199 56.7688C36.5155 58.4232 39.0499 60.6452 39.1203 63.184C39.1731 64.9748 37.9939 66.9196 35.6311 68.97H28.8375C26.2063 68.97 24.0635 71.1128 24.0635 73.744C24.0635 74.4744 24.6531 75.064 25.3835 75.064C26.1139 75.064 26.7035 74.4744 26.7035 73.744C26.7035 72.5692 27.6583 71.61 28.8375 71.61H58.9335C60.1083 71.61 61.0675 72.5648 61.0675 73.744V77.8756H26.7035V77.3608C26.7035 76.6304 26.1139 76.0408 25.3835 76.0408C24.6531 76.0408 24.0635 76.6304 24.0635 77.3608V79.1956C24.0635 79.926 24.6531 80.5156 25.3835 80.5156H62.3831C63.1135 80.5156 63.7031 79.926 63.7031 79.1956V73.744C63.7031 71.1128 61.5603 68.97 58.9291 68.97H52.9759C51.2995 67.5928 49.6319 65.8944 49.5263 63.6592C49.4295 61.6132 50.6703 59.312 53.2223 56.8216C53.2487 56.7952 53.2663 56.7688 53.2927 56.738C56.9699 55.4931 60.2489 53.2909 62.7923 50.358C63.4302 50.631 64.1246 50.7457 64.8163 50.6924C77.0879 49.7332 84.1235 43.296 84.1235 33.0396V26.6332C84.1279 22.3344 80.5507 18.8408 76.1507 18.8408ZM12.0383 33.0264V27.2008H19.6503V36.0976C19.6503 38.1128 19.9319 40.062 20.4467 41.9188C12.0427 40.3216 12.0383 35.4464 12.0383 33.0264ZM46.8951 63.7956C46.9919 65.8724 47.9599 67.562 49.0335 68.8424H39.4679C41.0431 66.9416 41.8087 65.0232 41.7559 63.118C41.6987 61.072 40.7131 59.3032 39.3887 57.7896C40.0663 57.8556 40.7527 57.8908 41.4479 57.8908H46.3539C47.2427 57.8908 48.1139 57.8292 48.9763 57.728C47.4979 59.8004 46.8027 61.8332 46.8951 63.7956ZM46.3495 55.2508H41.4435C35.4463 55.2508 30.0871 52.4788 26.5715 48.1492C26.5275 47.9512 26.4395 47.7576 26.2987 47.5948C25.7916 46.991 25.3186 46.3593 24.8819 45.7028C23.1815 42.7892 22.2871 39.4755 22.2903 36.102V18.106C22.2903 18.018 22.3343 17.9476 22.4003 17.8992H65.3883C65.4543 17.9476 65.4983 18.018 65.4983 18.106V36.102C65.4983 38.742 64.9615 41.2588 63.9891 43.5512C63.2499 45.0076 62.3567 46.376 61.3095 47.6168C61.1159 47.85 61.0147 48.1272 61.0015 48.4132C57.4903 52.5888 52.2235 55.2508 46.3495 55.2508ZM81.4879 33.0484C81.4879 44.374 72.3139 47.4672 64.6139 48.07H64.5435C65.2126 47.0557 65.7954 45.9872 66.2859 44.8756C66.3079 44.8316 66.3299 44.792 66.3519 44.7524C78.2143 43.0716 78.2143 35.552 78.2143 33.0484V32.5556C78.2143 31.8252 77.6247 31.2356 76.8943 31.2356C76.1639 31.2356 75.5743 31.8252 75.5743 32.5556V33.0484C75.5743 35.4552 75.5699 40.2732 67.3463 41.9056C67.8703 40.014 68.1367 38.0604 68.1383 36.0976V27.2272H75.5743V28.4152C75.5743 29.1456 76.1639 29.7352 76.8943 29.7352C77.6247 29.7352 78.2143 29.1456 78.2143 28.4152V26.6288C78.2143 25.5024 77.2903 24.5872 76.1507 24.5872H68.8555V21.4808H76.1507C79.0943 21.4808 81.4879 23.7908 81.4879 26.6332V33.0484Z" fill="#333333"/>
<path d="M46.1384 26.2768L48.0833 30.1092C48.2329 30.3996 48.5189 30.602 48.8489 30.6504L53.1961 31.2664C54.0277 31.3852 54.362 32.3796 53.7593 32.9516L50.6133 35.9348C50.3757 36.1636 50.2657 36.4892 50.3229 36.8104L51.0664 41.0212C51.2072 41.8264 50.3361 42.4424 49.5925 42.064L45.7029 40.0752C45.4081 39.9256 45.0517 39.9256 44.7569 40.0752L40.8672 42.064C40.1237 42.4468 39.2524 41.8308 39.3932 41.0212L40.1368 36.8104C40.194 36.4892 40.0841 36.1636 39.8465 35.9348L36.7005 32.9516C36.0977 32.3796 36.4321 31.3852 37.2637 31.2664L41.6109 30.6504C41.9409 30.602 42.2269 30.3996 42.3765 30.1092L44.3213 26.2768C44.6909 25.542 45.7688 25.542 46.1384 26.2768Z" fill="#FF6339"/>
<path d="M52.7384 31.262C52.734 31.262 52.7296 31.2576 52.7252 31.2576L49.2316 29.634C48.9016 29.5856 48.6156 29.3832 48.466 29.0928L46.5432 27.9972L44.4048 25.7884C44.176 25.872 44.4224 25.8676 44.2992 26.1096L43.3972 28.0676C43.7536 28.6748 44.0616 29.2776 44.2992 29.744C44.6556 30.4392 45.8436 31.5876 47.3132 31.6668C48.7828 31.7416 49.5924 31.8384 49.5924 31.8384C49.5924 31.8384 47.8412 33.308 47.4452 33.7392C47.0492 34.1704 46.354 35.0592 46.596 36.3748C46.8424 37.6948 47.3484 40.876 47.3484 40.876L49.0248 41.932L49.8344 34.2892L52.7384 31.262Z" fill="#F94A21"/>
<path d="M49.346 44C48.95 44 48.554 43.9076 48.1844 43.7184L43.6392 41.3952L39.094 43.7184C38.2272 44.1584 37.2064 44.0748 36.4232 43.4984C35.662 42.9352 35.288 42.0112 35.4508 41.0828L36.3132 36.2032C36.0871 35.9565 35.9627 35.6333 35.9652 35.2986C35.9676 34.9639 36.0967 34.6426 36.3264 34.3992C36.5675 34.1455 36.8994 33.9979 37.2492 33.9888C37.599 33.9797 37.9382 34.1099 38.192 34.3508C38.7948 34.9228 39.072 35.7544 38.9268 36.5684L38.0996 41.2544L42.4776 39.0148C43.2036 38.6452 44.0704 38.6452 44.7964 39.0148L49.1744 41.2544L48.3472 36.5684C48.202 35.7544 48.4792 34.9228 49.082 34.3508L52.5492 31.064L47.7224 30.382C47.3214 30.3265 46.9397 30.1751 46.6096 29.9407C46.2795 29.7063 46.0107 29.3959 45.826 29.0356L43.6348 24.7148L41.4436 29.04C41.259 29.4003 40.9902 29.7107 40.6601 29.9451C40.33 30.1795 39.9482 30.3309 39.5472 30.3864L34.7292 31.0684L35.2924 31.5744C35.4214 31.6906 35.5261 31.8311 35.6006 31.9879C35.6751 32.1447 35.7178 32.3146 35.7264 32.488C35.735 32.6614 35.7093 32.8347 35.6506 32.9981C35.592 33.1615 35.5017 33.3116 35.3848 33.44C35.2686 33.569 35.1281 33.6737 34.9713 33.7482C34.8146 33.8227 34.6446 33.8654 34.4712 33.874C34.2979 33.8826 34.1245 33.8568 33.9611 33.7982C33.7978 33.7396 33.6476 33.6493 33.5192 33.5324L32.6744 32.7712C31.9572 32.0892 31.702 31.1168 31.9924 30.2104C32.2872 29.2908 33.0704 28.6352 34.0384 28.4944L39.1116 27.7772L41.3732 23.32C41.5848 22.905 41.9075 22.557 42.3052 22.3146C42.703 22.0722 43.1602 21.945 43.626 21.9472C44.5852 21.9472 45.4476 22.4752 45.8788 23.32L48.1404 27.7772L53.2136 28.4944C54.1816 28.6308 54.9648 29.2864 55.2596 30.2104C55.55 31.1168 55.2992 32.0892 54.5996 32.7492L50.952 36.2076L51.81 41.0828C51.9728 42.0068 51.6032 42.9352 50.8376 43.4984C50.402 43.8284 49.874 44 49.346 44Z" fill="#333333"/>
<path d="M28.182 37.3736C27.8902 37.3736 27.6104 37.2577 27.4041 37.0514C27.1979 36.8451 27.082 36.5653 27.082 36.2736V35.1076C27.082 34.8159 27.1979 34.5361 27.4041 34.3298C27.6104 34.1235 27.8902 34.0076 28.182 34.0076C28.4737 34.0076 28.7535 34.1235 28.9598 34.3298C29.1661 34.5361 29.282 34.8159 29.282 35.1076V36.2736C29.282 36.8808 28.7936 37.3736 28.182 37.3736ZM28.182 32.2388C27.8902 32.2388 27.6104 32.1229 27.4041 31.9166C27.1979 31.7103 27.082 31.4305 27.082 31.1388V22.9592C27.082 22.6675 27.1979 22.3877 27.4041 22.1814C27.6104 21.9751 27.8902 21.8592 28.182 21.8592C28.4737 21.8592 28.7535 21.9751 28.9598 22.1814C29.1661 22.3877 29.282 22.6675 29.282 22.9592V31.1388C29.282 31.746 28.7936 32.2388 28.182 32.2388ZM39.7364 74.9628H35.4948C35.203 74.9628 34.9232 74.8469 34.7169 74.6406C34.5107 74.4343 34.3948 74.1545 34.3948 73.8628C34.3948 73.5711 34.5107 73.2913 34.7169 73.085C34.9232 72.8787 35.203 72.7628 35.4948 72.7628H39.7364C40.0281 72.7628 40.3079 72.8787 40.5142 73.085C40.7205 73.2913 40.8364 73.5711 40.8364 73.8628C40.8364 74.1545 40.7205 74.4343 40.5142 74.6406C40.3079 74.8469 40.0281 74.9628 39.7364 74.9628ZM32.0584 74.9628H31.4248C31.133 74.9628 30.8532 74.8469 30.6469 74.6406C30.4407 74.4343 30.3248 74.1545 30.3248 73.8628C30.3248 73.5711 30.4407 73.2913 30.6469 73.085C30.8532 72.8787 31.133 72.7628 31.4248 72.7628H32.0584C32.3501 72.7628 32.6299 72.8787 32.8362 73.085C33.0425 73.2913 33.1584 73.5711 33.1584 73.8628C33.1584 74.1545 33.0425 74.4343 32.8362 74.6406C32.6299 74.8469 32.3501 74.9628 32.0584 74.9628ZM41.3556 13.9348H30.3424C30.0506 13.9348 29.7708 13.8189 29.5645 13.6126C29.3583 13.4063 29.2424 13.1265 29.2424 12.8348C29.2424 12.5431 29.3583 12.2633 29.5645 12.057C29.7708 11.8507 30.0506 11.7348 30.3424 11.7348H41.3556C41.6473 11.7348 41.9271 11.8507 42.1334 12.057C42.3397 12.2633 42.4556 12.5431 42.4556 12.8348C42.4556 13.1265 42.3397 13.4063 42.1334 13.6126C41.9271 13.8189 41.6473 13.9348 41.3556 13.9348ZM26.906 13.9348H26.2724C25.9806 13.9348 25.7008 13.8189 25.4945 13.6126C25.2883 13.4063 25.1724 13.1265 25.1724 12.8348C25.1724 12.5431 25.2883 12.2633 25.4945 12.057C25.7008 11.8507 25.9806 11.7348 26.2724 11.7348H26.906C27.1977 11.7348 27.4775 11.8507 27.6838 12.057C27.8901 12.2633 28.006 12.5431 28.006 12.8348C28.006 13.1265 27.8901 13.4063 27.6838 13.6126C27.4775 13.8189 27.1977 13.9348 26.906 13.9348Z" fill="white"/>
<path d="M39.6748 33.704C39.1468 33.704 38.6848 33.3256 38.5924 32.7888C38.4912 32.1904 38.8916 31.6228 39.49 31.5216L40.2028 31.3984C40.8012 31.2972 41.3688 31.6976 41.47 32.296C41.5712 32.8944 41.1708 33.462 40.5724 33.5632L39.8596 33.6864C39.798 33.6996 39.7364 33.704 39.6748 33.704Z" fill="white"/>
</svg>
