<svg width="48" height="48" viewBox="0 0 48 48" fill="none" xmlns="http://www.w3.org/2000/svg">
<g clip-path="url(#clip0_187_320)">
<path d="M31.2596 29.8378L30.8431 27.4101L36.4256 21.9688C36.6625 21.7377 36.7478 21.3924 36.6454 21.078C36.5433 20.7635 36.2714 20.5342 35.944 20.4866L28.2292 19.3655L24.7788 12.3749C24.6327 12.078 24.3307 11.8903 24 11.8903C23.6692 11.8903 23.367 12.078 23.2207 12.3749L19.7704 19.3655L12.0556 20.4866C11.7286 20.5341 11.4564 20.7633 11.3541 21.078C11.252 21.3923 11.3373 21.7377 11.5741 21.9688L17.1568 27.4101L15.8388 35.0938C15.7828 35.4196 15.9167 35.7491 16.1843 35.9436C16.4518 36.138 16.8068 36.1637 17.0994 36.0097L24.0001 32.3819L30.9001 36.0096C31.0273 36.0764 31.1662 36.1094 31.3045 36.1094C31.4846 36.1094 31.6641 36.0535 31.8154 35.9435C32.0829 35.7491 32.2168 35.4195 32.1611 35.0937L31.6664 32.2093" fill="#FFD960"/>
<g opacity="0.2">
<path d="M18.0959 34.451L19.3494 27.1421C19.4007 26.8432 19.3056 26.6754 19.2428 26.6007L19.1936 26.5527L13.8311 21.3259C13.5942 21.0948 13.509 20.7495 13.611 20.4352C13.6329 20.368 13.6638 20.3059 13.7 20.2476L12.0558 20.4864C11.7288 20.534 11.4565 20.7632 11.3542 21.0779C11.2521 21.3922 11.3375 21.7375 11.5743 21.9686L17.1569 27.41L15.839 35.0936C15.7829 35.4195 15.9169 35.7489 16.1844 35.9435C16.4519 36.1379 16.8069 36.1636 17.0995 36.0096L18.4445 35.3026C18.4434 35.3018 18.4423 35.3014 18.4414 35.3007C18.1739 35.1063 18.0399 34.7768 18.0959 34.451Z" fill="#231F20"/>
</g>
<path d="M16.6938 36.8693C16.3579 36.8694 16.0241 36.764 15.739 36.5566C15.2342 36.1898 14.9864 35.58 15.0921 34.9653L16.3426 27.6746L11.0453 22.5114C10.5987 22.0754 10.4411 21.4366 10.6335 20.8439C10.8266 20.2503 11.3299 19.8263 11.947 19.7365L19.2673 18.6728L22.5413 12.0395C22.8168 11.4802 23.3759 11.1324 24 11.1324C24.6241 11.1324 25.1831 11.4802 25.4588 12.04L28.7324 18.6728L36.0528 19.7365C36.6703 19.8262 37.1738 20.2506 37.3661 20.8441C37.559 21.4362 37.4014 22.0753 36.9547 22.5112L31.6573 27.6747L32.0064 29.7097C32.0772 30.1222 31.8001 30.514 31.3875 30.5848C30.9748 30.6556 30.5831 30.3785 30.5126 29.966L30.0961 27.5383C30.0538 27.2924 30.1354 27.0415 30.314 26.8674L35.8964 21.4261C35.9264 21.3969 35.9376 21.3523 35.9246 21.3128C35.9115 21.2723 35.8765 21.2427 35.835 21.2366L28.1201 20.1156C27.8733 20.0797 27.6598 19.9247 27.5495 19.7009L24.0991 12.7103C24.0801 12.6717 24.0422 12.6482 23.9999 12.6482C23.9574 12.6482 23.9193 12.6717 23.9006 12.7099L20.4501 19.7009C20.3396 19.9246 20.1263 20.0797 19.8793 20.1156L12.1646 21.2366C12.123 21.2427 12.0878 21.2725 12.0747 21.3126C12.0619 21.352 12.0731 21.3969 12.1033 21.4265L17.6857 26.8675C17.8644 27.0416 17.9458 27.2925 17.9036 27.5384L16.5856 35.2221C16.5784 35.2642 16.5955 35.3056 16.6298 35.3307C16.6636 35.3553 16.7093 35.3586 16.7463 35.3393L23.647 31.7115C23.8679 31.5954 24.1316 31.5955 24.3523 31.7115L31.2523 35.3391C31.2826 35.3549 31.319 35.3674 31.3693 35.3307C31.4032 35.3062 31.4207 35.2632 31.4136 35.2216L30.919 32.3377C30.8482 31.9252 31.1252 31.5333 31.5378 31.4625C31.9496 31.3917 32.3422 31.6689 32.413 32.0814L32.9076 34.9659C33.0127 35.5809 32.7647 36.1903 32.2607 36.5568C31.9808 36.7601 31.6501 36.8676 31.3041 36.8676C31.0415 36.8676 30.7797 36.803 30.5473 36.6809L24 33.2382L17.4523 36.6805C17.2122 36.8068 16.9524 36.8693 16.6938 36.8693Z" fill="#231F20"/>
<path d="M4.35769 24.7579H0.757875C0.339187 24.7579 0 24.4187 0 24.0001C0 23.5815 0.339187 23.2422 0.757875 23.2422H4.35769C4.77628 23.2422 5.11556 23.5816 5.11556 24.0001C5.11556 24.4187 4.77637 24.7579 4.35769 24.7579Z" fill="#231F20"/>
<path d="M47.2422 24.7579H43.6424C43.2237 24.7579 42.8845 24.4186 42.8845 24.0001C42.8845 23.5815 43.2237 23.2422 43.6424 23.2422H47.2422C47.6609 23.2422 48.0001 23.5816 48.0001 24.0001C48.0001 24.4187 47.6609 24.7579 47.2422 24.7579Z" fill="#231F20"/>
<path d="M7.56543 41.1925C7.37137 41.1925 7.17749 41.1185 7.02946 40.9705C6.73349 40.6745 6.73349 40.1946 7.02955 39.8988L9.57496 37.3534C9.87084 37.0575 10.3507 37.0575 10.6467 37.3534C10.9427 37.6494 10.9427 38.1293 10.6466 38.4252L8.10121 40.9706C7.95337 41.1185 7.7593 41.1925 7.56543 41.1925Z" fill="#231F20"/>
<path d="M37.889 10.8687C37.695 10.8687 37.5011 10.7947 37.3531 10.6467C37.0571 10.3507 37.0571 9.87079 37.3532 9.57482L39.8987 7.02951C40.1946 6.73344 40.6745 6.73354 40.9704 7.02951C41.2664 7.32548 41.2664 7.80538 40.9703 8.10126L38.4248 10.6466C38.277 10.7947 38.083 10.8687 37.889 10.8687Z" fill="#231F20"/>
<path d="M23.9999 48C23.5813 48 23.2421 47.6606 23.2421 47.2421V43.6424C23.2421 43.2238 23.5813 42.8845 23.9999 42.8845C24.4186 42.8845 24.7578 43.2239 24.7578 43.6424V47.2421C24.7578 47.6606 24.4186 48 23.9999 48Z" fill="#231F20"/>
<path d="M23.9999 5.11568C23.5813 5.11568 23.2421 4.77631 23.2421 4.35781V0.757997C23.2421 0.339403 23.5813 0.00012207 23.9999 0.00012207C24.4186 0.00012207 24.7578 0.339497 24.7578 0.757997V4.35781C24.7578 4.7764 24.4186 5.11568 23.9999 5.11568Z" fill="#231F20"/>
<path d="M40.4345 41.1926C40.2407 41.1926 40.0466 41.1186 39.8987 40.9706L37.3532 38.4252C37.0571 38.1292 37.0571 37.6493 37.3531 37.3534C37.6491 37.0575 38.129 37.0575 38.4248 37.3534L40.9703 39.8988C41.2664 40.1947 41.2664 40.6746 40.9704 40.9705C40.8225 41.1186 40.6285 41.1926 40.4345 41.1926Z" fill="#231F20"/>
<path d="M10.111 10.8689C9.91691 10.8689 9.72303 10.7949 9.575 10.6469L7.02959 8.10147C6.73363 7.8055 6.73363 7.32559 7.02959 7.02972C7.32575 6.73375 7.80556 6.73375 8.10144 7.02972L10.6468 9.57522C10.9428 9.87118 10.9428 10.3511 10.6468 10.6471C10.4989 10.7949 10.3048 10.8689 10.111 10.8689Z" fill="#231F20"/>
</g>
<defs>
<clipPath id="clip0_187_320">
<rect width="48" height="48" fill="white"/>
</clipPath>
</defs>
</svg>
