<svg width="48" height="48" viewBox="0 0 48 48" fill="none" xmlns="http://www.w3.org/2000/svg">
<path d="M32.6952 7.42078H10.6392C8.37356 7.42078 6.53516 9.25678 6.53516 11.5248V34.2456C6.53516 35.0256 7.41116 35.4816 8.05196 35.0352L12.336 32.0448H32.6952C34.9608 32.0448 36.7992 30.2088 36.7992 27.9408V11.5248C36.7992 9.25918 34.9608 7.42078 32.6952 7.42078Z" fill="#ECD300"/>
<path d="M3.96475 18.4368C3.56635 18.4368 3.24475 18.1152 3.24475 17.7168V16.344C3.24475 15.9456 3.56635 15.624 3.96475 15.624C4.36315 15.624 4.68475 15.9456 4.68475 16.344V17.7168C4.68475 18.1152 4.36315 18.4368 3.96475 18.4368Z" fill="#333333"/>
<path d="M33.7632 7.56482V26.6256C33.7632 27.96 33.5856 31.3416 31.4352 31.6896C34.3008 31.7136 36.7992 30.9144 36.7992 26.244V11.5248C36.7992 9.62882 35.5104 8.03762 33.7632 7.56482Z" fill="#E8A200"/>
<path d="M4.92963 35.9256C4.66323 35.9256 4.39683 35.8632 4.14963 35.7336C3.87628 35.5919 3.64724 35.3776 3.48764 35.1143C3.32803 34.8509 3.24403 34.5487 3.24483 34.2408V20.5176C3.24483 20.1192 3.56643 19.7976 3.96483 19.7976C4.36323 19.7976 4.68483 20.1192 4.68483 20.5176V34.2432C4.68483 34.3728 4.76643 34.4328 4.81683 34.4592C4.86483 34.4856 4.96323 34.5168 5.06883 34.4424L9.85443 31.1016C9.97443 31.0176 10.1184 30.972 10.2672 30.972H32.3424C34.404 30.972 36.0816 29.2944 36.0816 27.2328V9.40082C36.0816 7.33922 34.404 5.66162 32.3424 5.66162H8.42163C6.36003 5.66162 4.68243 7.33922 4.68243 9.40082V11.976C4.68243 12.3744 4.36083 12.696 3.96243 12.696C3.56403 12.696 3.24243 12.3744 3.24243 11.976V9.40082C3.24243 6.54482 5.56563 4.22162 8.42163 4.22162H32.34C35.196 4.22162 37.5192 6.54482 37.5192 9.40082V27.2328C37.5192 30.0888 35.196 32.412 32.34 32.412H10.4928L5.89443 35.6232C5.61131 35.8203 5.27459 35.9258 4.92963 35.9256Z" fill="#333333"/>
<path d="M39.7296 14.5824V28.2312C39.7296 31.7856 36.8496 34.6656 33.2952 34.6656H10.2456V35.796C10.2456 38.1264 12.1344 40.0152 14.4648 40.0152H37.8264L42.504 43.1856C43.1448 43.62 44.0088 43.1616 44.0088 42.3864V19.0296C44.0088 16.6296 42.108 14.676 39.7296 14.5824Z" fill="#FFAC48"/>
<path d="M44.0088 19.0296C44.0088 17.1072 42.7896 15.4752 41.0832 14.8512V34.0632C41.0832 36.4464 41.34 40.0128 37.4448 40.0128H37.8264L42.504 43.1832C43.1448 43.6176 44.0088 43.1592 44.0088 42.384V19.0296Z" fill="#FC992D"/>
<path d="M43.044 44.0712C42.7128 44.0712 42.384 43.9728 42.0984 43.7808L37.6056 40.7352H30.6864C30.288 40.7352 29.9664 40.4136 29.9664 40.0152C29.9664 39.6168 30.288 39.2952 30.6864 39.2952H37.8264C37.9704 39.2952 38.112 39.3384 38.2296 39.42L42.9072 42.5904C43.0128 42.6624 43.1088 42.6288 43.1592 42.6048C43.2096 42.5808 43.2888 42.516 43.2888 42.3888V19.032C43.2888 17.2776 42.0912 15.8064 40.4496 15.4056V28.2312C40.4496 32.1768 37.2408 35.3856 33.2952 35.3856H10.9656V35.796C10.9656 37.7256 12.5352 39.2952 14.4648 39.2952H26.8848C27.2832 39.2952 27.6048 39.6168 27.6048 40.0152C27.6048 40.4136 27.2832 40.7352 26.8848 40.7352H14.4648C11.7408 40.7352 9.52563 38.52 9.52563 35.796V34.6656C9.52563 34.2672 9.84723 33.9456 10.2456 33.9456H33.2952C36.4464 33.9456 39.0096 31.3824 39.0096 28.2312V14.5824C39.0096 14.3856 39.0888 14.1984 39.2304 14.064C39.372 13.9272 39.5664 13.86 39.7584 13.8648C42.5472 13.9752 44.7288 16.2456 44.7288 19.0344V42.3888C44.7288 43.0128 44.3856 43.584 43.8336 43.8768C43.584 44.0064 43.3152 44.0712 43.044 44.0712Z" fill="#333333"/>
<path d="M8.30164 18.3768C8.30164 18.9446 8.52718 19.4891 8.92866 19.8906C9.33014 20.2921 9.87466 20.5176 10.4424 20.5176C11.0102 20.5176 11.5547 20.2921 11.9562 19.8906C12.3577 19.4891 12.5832 18.9446 12.5832 18.3768C12.5832 17.809 12.3577 17.2645 11.9562 16.863C11.5547 16.4616 11.0102 16.236 10.4424 16.236C9.87466 16.236 9.33014 16.4616 8.92866 16.863C8.52718 17.2645 8.30164 17.809 8.30164 18.3768Z" fill="#76BFFF"/>
<path d="M17.9904 18.3768C17.9904 18.9446 18.2159 19.4891 18.6174 19.8906C19.0189 20.2921 19.5634 20.5176 20.1312 20.5176C20.6989 20.5176 21.2435 20.2921 21.6449 19.8906C22.0464 19.4891 22.272 18.9446 22.272 18.3768C22.272 17.809 22.0464 17.2645 21.6449 16.863C21.2435 16.4616 20.6989 16.236 20.1312 16.236C19.5634 16.236 19.0189 16.4616 18.6174 16.863C18.2159 17.2645 17.9904 17.809 17.9904 18.3768Z" fill="#76BFFF"/>
<path d="M27.6768 18.3768C27.6768 18.658 27.7321 18.9363 27.8397 19.1961C27.9473 19.4558 28.105 19.6918 28.3038 19.8906C28.5026 20.0894 28.7386 20.2471 28.9983 20.3547C29.258 20.4622 29.5364 20.5176 29.8176 20.5176C30.0987 20.5176 30.3771 20.4622 30.6368 20.3547C30.8965 20.2471 31.1325 20.0894 31.3313 19.8906C31.5301 19.6918 31.6878 19.4558 31.7954 19.1961C31.903 18.9363 31.9584 18.658 31.9584 18.3768C31.9584 18.0957 31.903 17.8173 31.7954 17.5576C31.6878 17.2978 31.5301 17.0618 31.3313 16.863C31.1325 16.6643 30.8965 16.5066 30.6368 16.399C30.3771 16.2914 30.0987 16.236 29.8176 16.236C29.5364 16.236 29.258 16.2914 28.9983 16.399C28.7386 16.5066 28.5026 16.6643 28.3038 16.863C28.105 17.0618 27.9473 17.2978 27.8397 17.5576C27.7321 17.8173 27.6768 18.0957 27.6768 18.3768Z" fill="#76BFFF"/>
<path d="M10.4423 21.2376C8.86554 21.2376 7.58154 19.9536 7.58154 18.3768C7.58154 16.8 8.86554 15.516 10.4423 15.516C12.0191 15.516 13.3031 16.8 13.3031 18.3768C13.3031 19.9536 12.0215 21.2376 10.4423 21.2376ZM10.4423 16.956C9.65994 16.956 9.02154 17.592 9.02154 18.3768C9.02154 19.1592 9.65754 19.7976 10.4423 19.7976C11.2247 19.7976 11.8631 19.1616 11.8631 18.3768C11.8631 17.5944 11.2271 16.956 10.4423 16.956ZM20.1335 21.2376C18.5567 21.2376 17.2727 19.9536 17.2727 18.3768C17.2727 16.8 18.5567 15.516 20.1335 15.516C21.7103 15.516 22.9943 16.8 22.9943 18.3768C22.9919 19.9536 21.7103 21.2376 20.1335 21.2376ZM20.1335 16.956C19.3511 16.956 18.7127 17.592 18.7127 18.3768C18.7127 19.1592 19.3487 19.7976 20.1335 19.7976C20.9159 19.7976 21.5543 19.1616 21.5543 18.3768C21.5519 17.5944 20.9159 16.956 20.1335 16.956ZM29.8175 21.2376C28.2407 21.2376 26.9567 19.9536 26.9567 18.3768C26.9567 16.8 28.2407 15.516 29.8175 15.516C31.3943 15.516 32.6783 16.8 32.6783 18.3768C32.6783 19.9536 31.3943 21.2376 29.8175 21.2376ZM29.8175 16.956C29.0351 16.956 28.3967 17.592 28.3967 18.3768C28.3967 19.1592 29.0327 19.7976 29.8175 19.7976C30.5999 19.7976 31.2383 19.1616 31.2383 18.3768C31.2383 17.5944 30.6023 16.956 29.8175 16.956Z" fill="#333333"/>
<path d="M8.75759 13.6008C8.59846 13.6008 8.44585 13.5376 8.33333 13.4251C8.22081 13.3126 8.15759 13.1599 8.15759 13.0008V11.6736C8.15759 10.5576 9.06479 9.64801 10.1832 9.64801H14.7624C14.9215 9.64801 15.0741 9.71122 15.1867 9.82375C15.2992 9.93627 15.3624 10.0889 15.3624 10.248C15.3624 10.4071 15.2992 10.5598 15.1867 10.6723C15.0741 10.7848 14.9215 10.848 14.7624 10.848H10.1832C9.72959 10.848 9.35759 11.2176 9.35759 11.6736V13.0008C9.35759 13.1599 9.29438 13.3126 9.18186 13.4251C9.06934 13.5376 8.91672 13.6008 8.75759 13.6008ZM17.9928 10.848H16.9992C16.8401 10.848 16.6875 10.7848 16.5749 10.6723C16.4624 10.5598 16.3992 10.4071 16.3992 10.248C16.3992 10.0889 16.4624 9.93627 16.5749 9.82375C16.6875 9.71122 16.8401 9.64801 16.9992 9.64801H17.9928C18.1519 9.64801 18.3045 9.71122 18.4171 9.82375C18.5296 9.93627 18.5928 10.0889 18.5928 10.248C18.5928 10.4071 18.5296 10.5598 18.4171 10.6723C18.3045 10.7848 18.1519 10.848 17.9928 10.848ZM21.4968 37.6272H16.8552C16.6961 37.6272 16.5435 37.564 16.4309 37.4515C16.3184 37.3389 16.2552 37.1863 16.2552 37.0272C16.2552 36.8681 16.3184 36.7155 16.4309 36.6029C16.5435 36.4904 16.6961 36.4272 16.8552 36.4272H21.4968C21.6559 36.4272 21.8085 36.4904 21.9211 36.6029C22.0336 36.7155 22.0968 36.8681 22.0968 37.0272C22.0968 37.1863 22.0336 37.3389 21.9211 37.4515C21.8085 37.564 21.6559 37.6272 21.4968 37.6272ZM14.3448 37.6272H13.6608C13.5017 37.6272 13.3491 37.564 13.2365 37.4515C13.124 37.3389 13.0608 37.1863 13.0608 37.0272C13.0608 36.8681 13.124 36.7155 13.2365 36.6029C13.3491 36.4904 13.5017 36.4272 13.6608 36.4272H14.3448C14.5039 36.4272 14.6565 36.4904 14.7691 36.6029C14.8816 36.7155 14.9448 36.8681 14.9448 37.0272C14.9448 37.1863 14.8816 37.3389 14.7691 37.4515C14.6565 37.564 14.5039 37.6272 14.3448 37.6272Z" fill="white"/>
</svg>
