<svg width="48" height="48" viewBox="0 0 48 48" fill="none" xmlns="http://www.w3.org/2000/svg">
<g clip-path="url(#clip0_185_262)">
<path d="M24.3379 2.01541L27.1721 0.944406C27.4882 0.824969 27.844 0.881313 28.1077 1.09263L30.4722 2.98703C30.6539 3.13262 30.8825 3.20687 31.115 3.19591L34.1415 3.05312C34.4791 3.03719 34.8 3.20069 34.9856 3.48325L36.649 6.01562C36.7767 6.21025 36.9711 6.35144 37.1957 6.41284L40.1182 7.21225C40.4441 7.30141 40.6988 7.55603 40.7879 7.882L41.5873 10.8045C41.6487 11.029 41.7899 11.2234 41.9846 11.3512L44.5169 13.0146C44.7994 13.2002 44.963 13.5211 44.9471 13.8587L44.8043 16.8852C44.7933 17.1177 44.8676 17.3462 45.0131 17.5279L46.9076 19.8925C47.1189 20.1562 47.1752 20.512 47.0558 20.8281L45.9848 23.6623C45.9025 23.8801 45.9025 24.1203 45.9848 24.3381L47.0558 27.1723C47.1752 27.4884 47.1189 27.8442 46.9076 28.1079L45.0131 30.4725C44.8676 30.6542 44.7933 30.8827 44.8043 31.1152L44.9471 34.1417C44.963 34.4793 44.7995 34.8002 44.5169 34.9858L41.9846 36.6492C41.7899 36.777 41.6487 36.9713 41.5873 37.1959L40.7879 40.1184C40.6988 40.4444 40.4441 40.699 40.1182 40.7882L37.1957 41.5876C36.9712 41.649 36.7767 41.7901 36.649 41.9848L34.9856 44.5171C34.7999 44.7996 34.4791 44.9632 34.1415 44.9473L31.115 44.8045C30.8825 44.7935 30.6539 44.8679 30.4722 45.0134L28.1077 46.9078C27.844 47.1191 27.4882 47.1754 27.1721 47.056L24.3379 45.985C24.1201 45.9027 23.8798 45.9027 23.6621 45.985L20.8279 47.056C20.5118 47.1754 20.156 47.1191 19.8923 46.9078L17.5277 45.0134C17.346 44.8678 17.1175 44.7935 16.885 44.8045L13.8584 44.9473C13.5208 44.9632 13.1999 44.7997 13.0144 44.5171L11.351 41.9848C11.2232 41.7901 11.0289 41.649 10.8042 41.5876L7.88177 40.7882C7.55581 40.699 7.30118 40.4444 7.21203 40.1184L6.41262 37.1959C6.35121 36.9714 6.21003 36.777 6.0154 36.6492L3.48312 34.9856C3.20065 34.8 3.03706 34.4791 3.05299 34.1416L3.19578 31.115C3.20674 30.8824 3.1324 30.654 2.9869 30.4723L1.09249 28.1077C0.881182 27.844 0.824838 27.4882 0.944275 27.1721L2.01528 24.3379C2.09759 24.1202 2.09759 23.8799 2.01528 23.6621L0.944275 20.8277C0.824838 20.5116 0.881182 20.1558 1.09249 19.8921L2.9869 17.5276C3.13249 17.3459 3.20674 17.1173 3.19578 16.8848L3.05299 13.8583C3.03706 13.5207 3.20056 13.1998 3.48312 13.0142L6.01549 11.3508C6.21012 11.2231 6.35131 11.0287 6.41271 10.8041L7.21212 7.88162C7.30128 7.55566 7.5559 7.30103 7.88187 7.21187L10.8043 6.41247C11.0289 6.35106 11.2233 6.20987 11.3511 6.01525L13.0145 3.48287C13.2001 3.20041 13.5209 3.03681 13.8585 3.05275L16.8851 3.19553C17.1176 3.20659 17.3461 3.13216 17.5278 2.98666L19.8924 1.09225C20.1561 0.880938 20.5119 0.824594 20.828 0.944031L23.6621 2.01503C23.8797 2.09762 24.1201 2.09762 24.3379 2.01541Z" fill="#FFC850"/>
<path d="M31.215 40.8349C17.9326 40.8349 7.16496 30.0674 7.16496 16.7849C7.16496 13.2275 7.94346 9.85401 9.32956 6.81604L7.88196 7.21204C7.55599 7.3012 7.30137 7.55582 7.21221 7.88179L6.41271 10.8043C6.35131 11.0288 6.21012 11.2232 6.01549 11.3511L3.48312 13.0145C3.20065 13.2001 3.03706 13.5209 3.05299 13.8584L3.19578 16.885C3.20674 17.1175 3.1324 17.346 2.9869 17.5277L1.09249 19.8923C0.881182 20.156 0.824838 20.5118 0.944275 20.8278L2.01528 23.662C2.09759 23.8798 2.09759 24.12 2.01528 24.3378L0.944275 27.172C0.824838 27.4881 0.881182 27.8439 1.09249 28.1076L2.9869 30.4722C3.13249 30.6539 3.20674 30.8824 3.19578 31.1149L3.05299 34.1414C3.03706 34.479 3.20056 34.7999 3.48312 34.9855L6.01549 36.6489C6.21003 36.7767 6.35131 36.971 6.41271 37.1956L7.21221 40.1181C7.30137 40.4441 7.55599 40.6987 7.88196 40.788L10.8044 41.5875C11.029 41.6489 11.2234 41.7901 11.3512 41.9848L13.0146 44.5171C13.2002 44.7996 13.521 44.9631 13.8586 44.9473L16.8851 44.8045C17.1177 44.7935 17.3462 44.8679 17.5279 45.0134L19.8925 46.9078C20.1562 47.119 20.512 47.1754 20.828 47.056L23.6622 45.985C23.8799 45.9027 24.1202 45.9027 24.338 45.985L27.1722 47.056C27.4883 47.1754 27.8441 47.1191 28.1077 46.9078L30.4722 45.0134C30.6539 44.8679 30.8825 44.7936 31.1151 44.8045L34.1415 44.9473C34.4791 44.9632 34.8 44.7997 34.9856 44.5171L36.649 41.9848C36.7767 41.7902 36.9711 41.6489 37.1957 41.5875L40.1182 40.788C40.4442 40.6989 40.6988 40.4443 40.7879 40.1181L41.1839 38.6705C38.1458 40.0565 34.7723 40.8349 31.215 40.8349Z" fill="#E1A546"/>
<path d="M23.9999 42.4384C34.1831 42.4384 42.4383 34.1833 42.4383 24C42.4383 13.8168 34.1831 5.56165 23.9999 5.56165C13.8167 5.56165 5.56152 13.8168 5.56152 24C5.56152 34.1833 13.8167 42.4384 23.9999 42.4384Z" fill="#FFDC64"/>
<path d="M31.5503 37.1184C31.4156 36.894 31.1818 36.751 30.9215 36.7243C21.6299 35.7743 14.3798 27.9305 14.3798 18.3882C14.3798 15.9706 14.8477 13.6631 15.6946 11.5481C15.9108 11.0084 15.307 10.52 14.8304 10.8529C10.21 14.0798 7.36706 19.6747 8.07394 25.8814C8.89585 33.0981 14.6651 38.9388 21.8658 39.8918C25.2713 40.3425 28.4773 39.6929 31.2338 38.2828C31.6567 38.0665 31.7947 37.5258 31.5503 37.1184Z" fill="#FFC850"/>
<path d="M36.0291 21.1941C36.0291 20.0872 35.1318 19.1899 34.0249 19.1899H27.0865C28.9527 17.679 30.22 15.6522 30.4032 13.9853C30.539 12.7493 29.6844 11.5755 28.4411 11.5639C27.3261 11.5536 26.4186 12.4453 26.4186 13.5578C26.4186 14.2796 24.852 16.4216 21.9162 17.3747C21.4455 17.5274 21.0351 17.8181 20.6964 18.1788C20.4469 18.4444 19.782 19.2534 19.13 19.6945C19.0117 19.3994 18.7257 19.1898 18.3883 19.1898H13.5783C13.1356 19.1898 12.7766 19.5488 12.7766 19.9915V32.8182C12.7766 33.2609 13.1356 33.6198 13.5783 33.6198H18.3883C18.831 33.6198 19.19 33.2609 19.19 32.8182H32.0207C32.9062 32.8182 33.624 32.1002 33.624 31.2149C33.624 30.3293 32.9062 29.6116 32.0207 29.6116H32.8223C33.7079 29.6116 34.4256 28.8936 34.4256 28.0082C34.4256 27.1227 33.7079 26.4049 32.8223 26.4049H33.624C34.5096 26.4049 35.2273 25.687 35.2273 24.8016C35.2273 23.9161 34.5096 23.1983 33.624 23.1983H34.0249C35.1317 23.1982 36.0291 22.301 36.0291 21.1941Z" fill="white"/>
<path d="M31.215 28.0083C30.7723 28.0083 30.4133 28.3673 30.4133 28.81C30.4133 29.2526 30.7723 29.6116 31.215 29.6116H32.0207H32.7366C33.5353 29.6116 34.2755 29.0658 34.4038 28.2775C34.4186 28.1858 34.4178 28.0971 34.4176 28.0083H31.215Z" fill="#FFFAB4"/>
<path d="M31.215 24.8016C30.7723 24.8016 30.4133 25.1606 30.4133 25.6033C30.4133 26.046 30.7723 26.405 31.215 26.405H32.8223H33.5383C34.337 26.405 35.0772 25.8591 35.2055 25.0708C35.2203 24.9791 35.2194 24.8904 35.2193 24.8016H31.215Z" fill="#FFFAB4"/>
<path d="M31.215 21.595C30.7723 21.595 30.4133 21.9539 30.4133 22.3966C30.4133 22.8393 30.7723 23.1983 31.215 23.1983H33.624H34.0249C34.9932 23.1983 35.7907 22.5078 35.978 21.595H31.215Z" fill="#FFFAB4"/>
<path d="M21.595 30.4134V20.5937C21.595 20.2448 21.8195 19.9395 22.151 19.831C23.7665 19.3013 28.3703 17.3247 28.7651 11.9122C28.6314 11.775 28.5595 11.7012 28.4258 11.5641C27.3178 11.562 26.4185 12.4505 26.4185 13.5581C26.4185 14.2798 24.8519 16.4218 21.9161 17.3749C21.4454 17.5276 21.035 17.8183 20.6963 18.1791C20.4545 18.4365 19.8221 19.2018 19.1899 19.6505V31.215H16.7849C15.8993 31.215 15.1816 30.4973 15.1816 29.6117V19.19H13.5783C13.1356 19.19 12.7766 19.549 12.7766 19.9917V32.8183C12.7766 33.261 13.1356 33.62 13.5783 33.62H18.3883C18.831 33.62 19.19 33.261 19.19 32.8183H32.0207C32.9062 32.8183 33.624 32.1004 33.624 31.215H22.3966C21.9539 31.215 21.595 30.8562 21.595 30.4134Z" fill="#FFFAB4"/>
<path d="M36.7808 21.1942C36.7808 19.6746 35.5446 18.4384 34.025 18.4384H28.9604C30.1909 17.0553 30.9951 15.4804 31.1504 14.0675C31.2453 13.2045 30.9787 12.3479 30.4187 11.7173C29.9069 11.1408 29.2071 10.8195 28.4481 10.8125C28.4393 10.8124 28.4305 10.8124 28.4217 10.8124C27.6876 10.8124 26.9985 11.0951 26.4785 11.6104C25.9584 12.1257 25.6706 12.8123 25.6672 13.5449C25.6405 13.7053 25.3583 14.2583 24.6678 14.915C24.1025 15.4527 23.126 16.1919 21.6842 16.66C21.1189 16.8436 20.6022 17.1816 20.1487 17.6646C19.9106 17.9179 19.5542 18.2678 19.1129 18.6189C18.8964 18.5042 18.6501 18.4386 18.3884 18.4386H13.5784C12.7219 18.4386 12.0251 19.1353 12.0251 19.9918V32.8185C12.0251 33.675 12.7219 34.3718 13.5784 34.3718H18.3884C18.9723 34.3718 19.4815 34.0476 19.7468 33.5701H32.0208C33.3193 33.5701 34.3757 32.5137 34.3757 31.2152C34.3757 30.7786 34.2564 30.3695 34.0484 30.0185C34.725 29.6043 35.1774 28.8582 35.1774 28.0085C35.1774 27.5719 35.058 27.1628 34.8501 26.8118C35.5267 26.3976 35.979 25.6515 35.979 24.8018C35.979 24.3103 35.8277 23.8536 35.5692 23.4756C36.2998 22.9794 36.7808 22.1419 36.7808 21.1942ZM34.025 22.4468H33.6241C33.2091 22.4468 32.8725 22.7832 32.8725 23.1983C32.8725 23.6134 33.209 23.9499 33.6241 23.9499C34.0938 23.9499 34.4759 24.3321 34.4759 24.8018C34.4759 25.2714 34.0938 25.6536 33.6241 25.6536H32.8225C32.4074 25.6536 32.0709 25.99 32.0709 26.4052C32.0709 26.8203 32.4073 27.1568 32.8225 27.1568C33.2921 27.1568 33.6743 27.5389 33.6743 28.0086C33.6743 28.4783 33.2921 28.8604 32.8225 28.8604H32.0208C31.6058 28.8604 31.2692 29.1968 31.2692 29.612C31.2692 30.0271 31.6057 30.3636 32.0208 30.3636C32.4905 30.3636 32.8726 30.7457 32.8726 31.2154C32.8726 31.6851 32.4905 32.0672 32.0208 32.0672H19.9417V24.802C19.9417 24.387 19.6052 24.0504 19.1901 24.0504C18.7751 24.0504 18.4385 24.3869 18.4385 24.802V32.8187C18.4385 32.8463 18.4161 32.8688 18.3884 32.8688H13.5784C13.5507 32.8688 13.5283 32.8463 13.5283 32.8187V19.9916C13.5283 19.964 13.5507 19.9416 13.5784 19.9416H18.3884C18.4161 19.9416 18.4385 19.964 18.4385 19.9916V21.595C18.4385 22.0101 18.775 22.3466 19.1901 22.3466C19.6051 22.3466 19.9417 22.0102 19.9417 21.595V19.9916C19.9417 19.9552 19.9387 19.9194 19.9361 19.8836C20.4997 19.4474 20.9503 19.0064 21.2443 18.6935C21.5225 18.3971 21.8266 18.1941 22.1483 18.0897C23.9173 17.5154 25.1079 16.5907 25.795 15.916C26.6561 15.0705 27.1702 14.1891 27.1702 13.558C27.1702 13.2247 27.3002 12.9122 27.5364 12.6782C27.7754 12.4413 28.092 12.3161 28.4341 12.3157C28.8554 12.3196 29.1344 12.5351 29.2945 12.7153C29.5688 13.0242 29.7038 13.4684 29.6561 13.9033C29.4919 15.3967 28.2976 17.2426 26.6135 18.6059C26.3661 18.8063 26.2717 19.1408 26.3779 19.4408C26.4841 19.7409 26.768 19.9416 27.0864 19.9416H34.0248C34.7156 19.9416 35.2774 20.5034 35.2774 21.1942C35.2774 21.8849 34.7156 22.4468 34.025 22.4468Z" fill="black"/>
<path d="M15.9833 29.6537C15.5683 29.6537 15.2278 29.9942 15.2278 30.4092C15.2278 30.8242 15.5683 31.1648 15.9833 31.1648C16.3983 31.1648 16.7388 30.8242 16.7388 30.4092C16.7388 29.9942 16.3984 29.6537 15.9833 29.6537Z" fill="black"/>
<path d="M46.6603 24L47.9515 20.5834C48.0455 20.3349 48.0012 20.0552 47.8349 19.8478L45.5513 16.9974L45.7234 13.3491C45.736 13.0838 45.6073 12.8313 45.3853 12.6856L42.3327 10.6803L41.3691 7.1574C41.299 6.90109 41.0987 6.70084 40.8425 6.63081L37.3196 5.66725L35.3143 2.61465C35.1685 2.39256 34.9161 2.2645 34.6508 2.27659L31.0025 2.44871L28.1521 0.165059C27.9447 -0.00106631 27.6651 -0.0454101 27.4165 0.0485274L23.9999 1.33965L20.5836 0.0486212C20.3349 -0.0454101 20.0553 -0.00106632 19.8479 0.165152L16.9976 2.44881L13.3493 2.27668C13.0827 2.26412 12.8315 2.39275 12.6857 2.61475L10.6805 5.66743L7.15765 6.631C6.90134 6.70112 6.70109 6.90137 6.63106 7.15759L5.6675 10.6805L2.61481 12.6857C2.39272 12.8316 2.26418 13.084 2.27675 13.3493L2.44887 16.9976L0.165216 19.8479C-0.000908855 20.0552 -0.0452526 20.3349 0.0486849 20.5835L1.33972 24L0.0485912 27.4164C-0.0454401 27.6649 -0.00109635 27.9446 0.165122 28.1521L2.44878 31.0024L2.27665 34.6507C2.26409 34.916 2.39272 35.1685 2.61472 35.3143L5.6674 37.3195L6.63097 40.8424C6.70109 41.0987 6.90134 41.299 7.15756 41.369L10.6805 42.3326L12.6857 45.3853C12.8316 45.6074 13.0844 45.7351 13.3493 45.7233L16.9976 45.5512L19.8479 47.8349C20.0553 48.0011 20.3351 48.0454 20.5836 47.9514L24.0001 46.6603L27.4167 47.9514C27.5029 47.9839 27.5928 47.9999 27.6822 47.9999C27.8506 47.9999 28.0168 47.9433 28.1522 47.8349L31.0026 45.5512L34.6509 45.7233C34.917 45.7351 35.1686 45.6073 35.3144 45.3853L37.3197 42.3326L40.8426 41.369C41.0989 41.2989 41.2992 41.0987 41.3692 40.8424L42.3327 37.3195L45.3854 35.3143C45.6075 35.1684 45.7361 34.916 45.7235 34.6507L45.5514 31.0024L47.835 28.1521C48.0012 27.9447 48.0455 27.665 47.9516 27.4164L46.6603 24ZM45.1539 24.2657L46.3938 27.5468L44.2006 30.2842C44.0862 30.427 44.0277 30.6067 44.0364 30.7895L44.2017 34.2932L41.27 36.219C41.1171 36.3194 41.0059 36.4723 40.9576 36.6489L40.0322 40.0322L36.6489 40.9576C36.4723 41.0059 36.3195 41.117 36.2189 41.27L34.2932 44.2018L30.7895 44.0364C30.6066 44.028 30.427 44.0862 30.2842 44.2006L27.5468 46.3938L24.2656 45.1539C24.18 45.1216 24.0899 45.1054 23.9999 45.1054C23.9099 45.1054 23.8198 45.1217 23.7342 45.1539L20.4531 46.3938L17.7157 44.2006C17.5729 44.0862 17.3929 44.028 17.2104 44.0364L13.7067 44.2018L11.7809 41.27C11.6805 41.1171 11.5276 41.0059 11.351 40.9576L7.96765 40.0322L7.04225 36.6489C6.99397 36.4724 6.88287 36.3196 6.72987 36.219L3.79822 34.2932L3.96359 30.7895C3.97222 30.6066 3.91381 30.427 3.79934 30.2842L1.60615 27.5468L2.84609 24.2657C2.91087 24.0945 2.91087 23.9055 2.84609 23.7343L1.60615 20.4531L3.79934 17.7157C3.91381 17.5729 3.97222 17.3932 3.96359 17.2104L3.79822 13.7067L6.72987 11.781C6.88278 11.6806 6.99397 11.5277 7.04225 11.351L7.96765 7.96768L11.351 7.04228C11.5275 6.994 11.6803 6.8829 11.7809 6.7299L13.7067 3.79825L17.2104 3.96362C17.393 3.97215 17.5729 3.91384 17.7157 3.79937L20.4531 1.60618L23.7342 2.84612C23.9055 2.9109 24.0944 2.9109 24.2656 2.84612L27.5468 1.60618L30.2842 3.79937C30.427 3.91393 30.6068 3.97225 30.7895 3.96362L34.2932 3.79825L36.2189 6.7299C36.3193 6.88281 36.4722 6.994 36.6489 7.04228L40.0322 7.96768L40.9576 11.351C41.0059 11.5276 41.117 11.6804 41.27 11.781L44.2017 13.7067L44.0363 17.2104C44.0277 17.3933 44.0861 17.5729 44.2005 17.7157L46.3937 20.4531L45.1538 23.7343C45.0892 23.9056 45.0892 24.0945 45.1539 24.2657Z" fill="black"/>
<path d="M36.4822 11.4835C36.6629 11.6642 36.842 11.8512 37.0146 12.0391C37.1629 12.2005 37.3653 12.2823 37.5685 12.2823C37.7501 12.2823 37.9323 12.2169 38.0765 12.0844C38.3823 11.8038 38.4026 11.3282 38.1219 11.0225C37.9349 10.8189 37.7409 10.6164 37.5451 10.4207C37.3492 10.2249 37.1468 10.0308 36.9432 9.84381C36.6375 9.56312 36.1621 9.58337 35.8813 9.88919C35.6006 10.1949 35.6208 10.6704 35.9267 10.9511C36.1145 11.1236 36.3014 11.3027 36.4822 11.4835Z" fill="black"/>
<path d="M11.4693 11.4836C14.3325 8.62036 18.123 6.81427 22.1423 6.39793C26.1056 5.9873 30.1271 6.93314 33.4666 9.06071C33.8167 9.28374 34.2812 9.1808 34.5042 8.83074C34.7272 8.48068 34.6243 8.01614 34.2742 7.79311C30.6498 5.48405 26.2861 4.45786 21.9874 4.90289C17.6257 5.35477 13.5129 7.31433 10.4064 10.4207C6.98762 13.8395 4.99712 18.3811 4.80156 23.209C4.60731 28.0083 6.19693 32.6681 9.27784 36.3296C9.42643 36.5062 9.63906 36.5972 9.85337 36.5972C10.0242 36.5972 10.1958 36.5393 10.3368 36.4208C10.6544 36.1535 10.6952 35.6794 10.4281 35.3619C7.58921 31.9879 6.12446 27.6936 6.30362 23.2698C6.48371 18.8203 8.31831 14.6345 11.4693 11.4836Z" fill="black"/>
<path d="M39.1351 13.4615C38.785 13.6845 38.6821 14.1491 38.9052 14.4991C41.0327 17.8387 41.9784 21.8604 41.5679 25.8234C41.1516 29.8428 39.3455 33.6332 36.4824 36.4965C33.3314 39.6475 29.1456 41.482 24.6961 41.6622C20.2731 41.842 15.978 40.3766 12.6041 37.5379C12.2865 37.2706 11.8125 37.3115 11.5452 37.6291C11.2779 37.9466 11.3188 38.4207 11.6364 38.688C15.0977 41.6004 19.4505 43.1802 23.9707 43.1801C24.2322 43.1801 24.4947 43.1748 24.7572 43.1642C29.585 42.9687 34.1265 40.9782 37.5454 37.5595C40.6519 34.453 42.6116 30.34 43.0633 25.9783C43.5086 21.6794 42.4822 17.3159 40.173 13.6915C39.9498 13.3414 39.485 13.2384 39.1351 13.4615Z" fill="black"/>
</g>
<defs>
<clipPath id="clip0_185_262">
<rect width="48" height="48" fill="white"/>
</clipPath>
</defs>
</svg>
