<svg width="48" height="48" viewBox="0 0 48 48" fill="none" xmlns="http://www.w3.org/2000/svg">
<g clip-path="url(#clip0_134_913)">
<path d="M13.3782 42.7406C12.0375 43.0688 10.6875 42.2625 10.3594 40.9219L7.19067 28.1719L13.3875 26.6344L15.2344 39.9844C15.4219 41.2406 14.6157 42.4313 13.3782 42.7406Z" fill="#43527A"/>
<path d="M41.7656 29.8031C44.9706 29.8031 47.5688 27.205 47.5688 24C47.5688 20.795 44.9706 18.1969 41.7656 18.1969C38.5607 18.1969 35.9625 20.795 35.9625 24C35.9625 27.205 38.5607 29.8031 41.7656 29.8031Z" fill="#F9C04A"/>
<path d="M7.82815 28.2188H1.98752C1.12502 28.2188 0.431274 27.525 0.431274 26.6625V21.3469C0.431274 20.4844 1.12502 19.7906 1.98752 19.7906H7.83752V28.2188H7.82815Z" fill="#F9C04A"/>
<path d="M41.1938 41.4376L15.15 30.7032V17.297L41.1938 6.55321C41.85 6.28133 42.5719 6.76883 42.5719 7.48133V40.5188C42.5719 41.2313 41.85 41.7095 41.1938 41.4376Z" fill="#DEF6FC"/>
<path d="M17.5219 19.6689L42.5719 9.34698V7.48136C42.5719 6.76886 41.85 6.29073 41.1938 6.55323L15.15 17.297V30.7032L17.5313 31.6876V19.6689H17.5219Z" fill="white"/>
<path d="M15.15 30.7032H5.85C4.48125 30.7032 3.375 29.597 3.375 28.2282V19.772C3.375 18.4032 4.48125 17.297 5.85 17.297H15.1406V30.7032H15.15Z" fill="#FF5741"/>
<path d="M5.74687 28.2282V19.772C5.74687 18.4032 6.85312 17.297 8.22187 17.297H5.85C4.48125 17.297 3.375 18.4032 3.375 19.772V28.2282C3.375 29.597 4.48125 30.7032 5.85 30.7032H8.22187C6.8625 30.7032 5.74687 29.597 5.74687 28.2282Z" fill="#FF908A"/>
<path d="M14.2313 32.6532H12.6751C12.0469 32.6532 11.5876 33.2438 11.7376 33.8532L12.5532 37.1344C12.6563 37.5657 13.0501 37.8657 13.4907 37.8657H14.9532L14.2313 32.6532Z" fill="#DEF6FC"/>
<path d="M41.7656 43.5844C40.5937 43.5844 39.6469 42.6375 39.6469 41.4656V6.5344C39.6469 5.36252 40.5937 4.41565 41.7656 4.41565C42.9375 4.41565 43.8844 5.36252 43.8844 6.5344V41.4563C43.8937 42.6375 42.9375 43.5844 41.7656 43.5844Z" fill="#FF5741"/>
<path d="M5.38123 20.7375C5.38123 20.9719 5.56873 21.1688 5.81248 21.1688H12.7312C12.9656 21.1688 13.1625 20.9813 13.1625 20.7375C13.1625 20.5031 12.975 20.3063 12.7312 20.3063H5.8031C5.56873 20.3063 5.38123 20.5031 5.38123 20.7375Z" fill="#133260"/>
<path d="M12.7218 23.5687H5.80308C5.5687 23.5687 5.37183 23.7562 5.37183 24C5.37183 24.2437 5.55933 24.4312 5.80308 24.4312H12.7218C12.9562 24.4312 13.1531 24.2437 13.1531 24C13.1531 23.7562 12.9562 23.5687 12.7218 23.5687Z" fill="#133260"/>
<path d="M12.7218 26.8406H5.80308C5.5687 26.8406 5.37183 27.0281 5.37183 27.2718C5.37183 27.5156 5.55933 27.7031 5.80308 27.7031H12.7218C12.9562 27.7031 13.1531 27.5156 13.1531 27.2718C13.1531 27.0281 12.9562 26.8406 12.7218 26.8406Z" fill="#133260"/>
<path d="M44.3156 18.3094V6.53437C44.3156 5.12812 43.1719 3.98438 41.7656 3.98438C40.3594 3.98438 39.2156 5.12812 39.2156 6.53437V6.90937L15.0656 16.8656H5.85C4.3875 16.8656 3.17813 17.9437 2.97188 19.35H1.9875C0.890625 19.3594 0 20.25 0 21.3375V26.6531C0 27.75 0.890625 28.6406 1.9875 28.6406H2.98125C3.1875 30.0469 4.39687 31.125 5.85938 31.125H7.5L9.95625 41.0156C10.2844 42.3469 11.4844 43.2281 12.7875 43.2281C13.0219 43.2281 13.2562 43.2 13.4906 43.1438C14.9437 42.7875 15.8812 41.3906 15.675 39.9094L15.3844 37.8V37.7906L14.6625 32.5969V32.5875L14.4562 31.1344H15.0656L39.225 41.0906V41.4656C39.225 42.8719 40.3688 44.0156 41.775 44.0156C43.1813 44.0156 44.325 42.8719 44.325 41.4656V29.6906C46.575 28.6875 48.0094 26.4844 48.0094 24C48.0094 21.5156 46.5656 19.3125 44.3156 18.3094ZM2.95312 27.7875H1.9875C1.35938 27.7875 0.853125 27.2812 0.853125 26.6531V21.3375C0.853125 20.7094 1.35938 20.2031 1.9875 20.2031H2.95312V27.7875ZM14.8219 40.0312C14.9719 41.0812 14.3063 42.0656 13.275 42.3187C12.1688 42.5906 11.0437 41.9156 10.7719 40.8094L8.37188 31.1344H13.5938L13.7438 32.2312H12.675C12.2437 32.2312 11.8406 32.4281 11.5781 32.7656C11.3156 33.1031 11.2219 33.5438 11.325 33.9563L12.1406 37.2375C12.2906 37.8563 12.8531 38.2969 13.4906 38.2969H14.5781L14.8219 40.0312ZM14.4656 37.4344H13.4906C13.2469 37.4344 13.0312 37.2656 12.9656 37.0219L12.15 33.7406C12.1125 33.5812 12.15 33.4125 12.2438 33.2812C12.3469 33.15 12.4969 33.075 12.6656 33.075H13.8469L14.4656 37.4344ZM14.7188 30.2719H7.82812H7.81875H5.85C4.71563 30.2719 3.79688 29.3531 3.79688 28.2188V19.7625C3.79688 18.6281 4.71563 17.7094 5.85 17.7094H14.7188V30.2719ZM39.2156 40.1625L15.5719 30.4125V17.5781L39.2156 7.82812V40.1625ZM43.4625 18.5812C43.4625 18.5906 43.4625 18.6 43.4625 18.6V29.3906C43.4625 29.4 43.4625 29.4094 43.4625 29.4094V41.4563C43.4625 42.3938 42.7031 43.1531 41.7656 43.1531C40.8281 43.1531 40.0687 42.3938 40.0687 41.4563V40.8094C40.0687 40.8 40.0687 40.8 40.0687 40.7906V7.2C40.0687 7.19063 40.0687 7.19062 40.0687 7.18125V6.53437C40.0687 5.59687 40.8281 4.8375 41.7656 4.8375C42.7031 4.8375 43.4625 5.59687 43.4625 6.53437V18.5812ZM44.3156 28.7344V19.2656C46.05 20.1938 47.1469 21.9937 47.1469 24C47.1469 26.0063 46.05 27.8062 44.3156 28.7344Z" fill="#133260"/>
</g>
<defs>
<clipPath id="clip0_134_913">
<rect width="48" height="48" fill="white"/>
</clipPath>
</defs>
</svg>
