<svg width="48" height="48" viewBox="0 0 48 48" fill="none" xmlns="http://www.w3.org/2000/svg">
<g clip-path="url(#clip0_136_1019)">
<path d="M47.2191 24.0001C47.2191 11.1765 36.8235 0.781036 23.9998 0.781036C11.1761 0.781036 0.780762 11.1765 0.780762 24.0001C0.780762 36.8237 11.1763 47.2193 23.9999 47.2193C36.8235 47.2193 47.2191 36.8237 47.2191 24.0001Z" fill="#FFD782"/>
<path d="M26.6722 26.6257V29.3656C26.6722 30.5458 25.787 31.4311 24.6067 31.4311C23.5107 31.4311 22.5412 30.5459 22.5412 29.3656V24.9817C22.5412 24.9396 22.5833 24.9396 22.5833 24.8974C22.5412 24.8552 22.5412 24.8552 22.5412 24.813C22.5412 23.717 23.5107 22.7475 24.6067 22.7475C27.2622 22.7475 29.412 20.6399 29.412 18.0264C29.412 15.3709 27.2622 13.3054 24.6067 13.3054C22.8784 13.3054 21.3608 14.2327 20.56 15.6237C19.97 16.6354 18.7053 16.9726 17.6936 16.3825C16.7241 15.7925 16.3869 14.57 16.977 13.5583C18.4944 10.9449 21.3608 9.17447 24.6067 9.17447C29.4963 9.17447 33.5008 13.1367 33.5008 18.0264C33.5009 22.1996 30.5924 25.6983 26.6722 26.6257ZM26.6722 35.857V36.6158C26.6722 37.7961 25.787 38.6813 24.6067 38.6813C23.5107 38.6813 22.5412 37.7962 22.5412 36.6158V35.857C22.5412 34.7189 23.5107 33.7915 24.6067 33.7915C25.7871 33.7915 26.6722 34.7189 26.6722 35.857Z" fill="#515262"/>
<path opacity="0.1" d="M7.02742 24.0001C7.02742 12.2359 15.7768 2.51654 27.1233 0.990757C26.1016 0.85332 25.0593 0.780945 24 0.780945C11.1763 0.780945 0.780762 11.1765 0.780762 24.0001C0.780762 36.8237 11.1763 47.2193 24 47.2193C25.0594 47.2193 26.1016 47.1469 27.1234 47.0094C15.7769 45.4838 7.02742 35.7644 7.02742 24.0001Z" fill="black"/>
<path d="M38.7031 6.01384C38.9649 5.67109 38.8993 5.18115 38.5567 4.91931C34.3447 1.70124 29.311 0.000244141 23.9999 0.000244141C17.5894 0.000244141 11.5624 2.49671 7.02937 7.02962C2.49647 11.5627 0 17.5896 0 24.0002C0 30.4187 2.50181 36.4509 7.04466 40.9857C7.19709 41.1377 7.39669 41.2139 7.59637 41.2139C7.79634 41.2139 7.9965 41.1375 8.14903 40.9847C8.45362 40.6795 8.45325 40.1851 8.14809 39.8805C3.90075 35.6407 1.56178 30.0011 1.56178 24.0003C1.56178 18.0068 3.89578 12.3721 8.13384 8.134C12.3719 3.89603 18.0067 1.56203 24.0001 1.56203C28.9655 1.56203 33.6713 3.15212 37.6087 6.16037C37.9513 6.42212 38.4412 6.35649 38.7031 6.01384Z" fill="black"/>
<path d="M39.8864 7.04878C39.581 7.35328 39.5804 7.84772 39.885 8.15297C44.1109 12.3891 46.4383 18.017 46.4383 24C46.4383 29.9935 44.1043 35.6283 39.8662 39.8662C35.6281 44.1043 29.9934 46.4383 23.9999 46.4383C19.0514 46.4383 14.3586 44.8581 10.4287 41.8686C10.0856 41.6075 9.59563 41.6741 9.33445 42.0173C9.07335 42.3605 9.14001 42.8503 9.48313 43.1115C13.6871 46.3096 18.7069 48 23.9999 48C30.4106 48 36.4375 45.5035 40.9705 40.9706C45.5035 36.4374 47.9999 30.4105 47.9999 23.9999C47.9999 17.6003 45.5106 11.5807 40.9906 7.0499C40.6861 6.74484 40.1917 6.744 39.8864 7.04878Z" fill="black"/>
<path d="M24.6068 33.0107C23.064 33.0107 21.7605 34.3142 21.7605 35.857V36.6158C21.7605 38.1853 23.0373 39.4622 24.6068 39.4622C26.2296 39.4622 27.4532 38.2386 27.4532 36.6158V35.857C27.453 34.261 26.2028 33.0107 24.6068 33.0107ZM25.8913 36.6157C25.8913 37.36 25.351 37.9004 24.6067 37.9004C23.8983 37.9004 23.322 37.3241 23.322 36.6157V35.8569C23.322 35.1726 23.9223 34.5723 24.6067 34.5723C25.3389 34.5723 25.8913 35.1246 25.8913 35.8569V36.6157Z" fill="black"/>
<path d="M27.453 27.2232C31.5039 25.9917 34.2817 22.2942 34.2817 18.0265C34.2817 12.7149 29.9414 8.39371 24.6067 8.39371C21.1933 8.39371 18.0111 10.2224 16.3026 13.1649C15.5096 14.5244 15.9424 16.2307 17.2877 17.0496C17.2918 17.0522 17.2961 17.0546 17.3003 17.0571C17.7452 17.3167 18.2485 17.4539 18.7554 17.4539C19.7831 17.4538 20.7099 16.9168 21.2367 16.0135C21.9212 14.8249 23.2124 14.0864 24.6068 14.0864C26.8636 14.0864 28.6313 15.8171 28.6313 18.0266C28.6313 20.1994 26.8258 21.9668 24.6068 21.9668C23.0905 21.9668 21.7604 23.2969 21.7604 24.8132C21.7604 24.8439 21.7617 24.8734 21.7642 24.9017C21.7616 24.93 21.7604 24.9569 21.7604 24.9818V29.3657C21.7604 30.9351 23.0372 32.212 24.6068 32.212C26.2295 32.212 27.4531 30.9884 27.4531 29.3657V27.2233L27.453 27.2232ZM26.4926 25.8657C26.1402 25.949 25.8915 26.2635 25.8915 26.6256V29.3655C25.8915 30.1098 25.3512 30.6501 24.6069 30.6501C23.8985 30.6501 23.3222 30.0739 23.3222 29.3655V25.1605C23.3546 25.0632 23.3644 24.972 23.3644 24.8974C23.3644 24.8208 23.3531 24.7453 23.3315 24.6731C23.4112 24.0672 23.9935 23.5284 24.6069 23.5284C27.6871 23.5284 30.1931 21.0603 30.1931 18.0265C30.1931 16.5351 29.6097 15.1447 28.5506 14.1113C27.5021 13.0881 26.1015 12.5247 24.6068 12.5247C22.6556 12.5247 20.8457 13.563 19.8856 15.2304C19.6439 15.6447 19.2214 15.892 18.7553 15.8922C18.527 15.8922 18.2983 15.8299 18.0935 15.7119C17.4769 15.3324 17.2869 14.5771 17.6524 13.9506C19.0832 11.4863 21.748 9.95549 24.6068 9.95549C29.0804 9.95549 32.7201 13.5762 32.7201 18.0266C32.7201 21.7747 30.1592 24.9983 26.4926 25.8657Z" fill="black"/>
</g>
<defs>
<clipPath id="clip0_136_1019">
<rect width="48" height="48" fill="white"/>
</clipPath>
</defs>
</svg>
