<svg width="88" height="88" viewBox="0 0 88 88" fill="none" xmlns="http://www.w3.org/2000/svg">
<g clip-path="url(#clip0_131_692)">
<path d="M51.785 62.4848C52.4708 57.4778 56.7234 52.5394 58.0952 51.1676C66.2573 43.2798 66.4631 30.3164 58.5753 22.1543C50.6875 13.9922 37.6556 13.7864 29.4935 21.6742C21.3313 29.562 21.1256 42.5939 29.0133 50.756L29.4935 51.2362C30.8652 52.5394 35.1178 57.4778 35.8037 62.5534C35.9408 64.0624 36.078 65.5713 36.0094 67.0117H51.5106C51.5792 65.5027 51.6478 63.9938 51.785 62.4848Z" fill="#FFECBA"/>
<path d="M51.5792 68.3835H36.0095C35.6665 68.3835 35.3236 68.2463 35.0492 67.9719C34.7749 67.6976 34.6377 67.3546 34.6377 67.0117C34.6377 65.5713 34.5691 64.1309 34.4319 62.6906C33.8146 58.2323 29.9736 53.6368 28.5332 52.1964L28.0531 51.7163C23.9378 47.5323 21.7429 41.9766 21.8801 36.0779C22.0173 30.1793 24.3493 24.7607 28.5332 20.6454C32.7172 16.53 38.2729 14.3351 44.1716 14.4723C50.0017 14.5409 55.4888 16.9415 59.6042 21.1255C63.7195 25.3094 65.9144 30.8652 65.7772 36.7638C65.7086 42.5939 63.308 48.0811 59.124 52.1964C57.7523 53.4996 53.8427 58.1637 53.2254 62.6906C53.0882 64.1309 52.951 65.5713 53.0196 67.0117C53.0196 67.3546 52.8824 67.6976 52.6081 67.9719C52.2651 68.2463 51.9222 68.3835 51.5792 68.3835ZM37.3813 65.6399H50.2074C50.2074 64.5425 50.3446 63.445 50.4132 62.3476C51.3049 55.9688 57.0664 50.3445 57.135 50.2759C60.8388 46.7093 62.8965 41.908 62.965 36.7638C63.0336 31.6196 61.1131 26.7498 57.5465 23.1146C53.9799 19.4108 49.1786 17.3531 44.0344 17.2845C38.9588 17.1473 34.089 19.0678 30.4537 22.6344C26.7499 26.2011 24.6922 31.0023 24.6237 36.1465C24.5551 41.2907 26.4756 46.1606 30.0422 49.7958L30.4537 50.2073C30.5223 50.2759 36.2838 55.9688 37.1755 62.279C37.3127 63.445 37.3813 64.5425 37.3813 65.6399Z" fill="black"/>
<path d="M35.9407 77.5744C35.7349 82.1699 39.1644 86.1481 43.8284 86.6282C48.4239 86.2167 51.922 82.2385 51.7162 77.5744C51.7162 74.145 51.579 70.2354 51.579 66.9431H36.0093C36.0779 70.2354 35.9407 74.145 35.9407 77.5744Z" fill="#B2DAF6"/>
<path d="M43.8285 88H43.6913C38.3413 87.5199 34.3631 82.9244 34.5689 77.5744C34.5689 75.9969 34.5689 74.3507 34.6375 72.7732C34.6375 70.8527 34.7061 68.795 34.7061 67.0117C34.7061 66.6687 34.8433 66.3258 35.1176 66.0514C35.392 65.7771 35.7349 65.6399 36.0779 65.6399H51.6476C51.9906 65.6399 52.3335 65.7771 52.6079 66.0514C52.8822 66.3258 53.0194 66.6687 53.0194 67.0117C53.0194 68.7264 53.0194 70.7155 53.088 72.636C53.088 74.2822 53.1566 75.9969 53.1566 77.5744C53.3624 82.9244 49.3842 87.5199 43.9656 88H43.8285ZM37.3811 68.3835C37.3811 69.8239 37.3811 71.3328 37.3125 72.7732C37.3125 74.4193 37.2439 76.0655 37.2439 77.5744V77.643C37.1067 81.484 39.9189 84.7763 43.7599 85.2564C47.6009 84.8449 50.4816 81.5526 50.2758 77.643C50.2758 75.9969 50.2758 74.3507 50.2073 72.7046C50.2073 71.2642 50.1387 69.7553 50.1387 68.3835H37.3811Z" fill="black"/>
<path d="M54.4597 68.3835H32.5112C31.7567 68.3835 31.1394 67.7662 31.1394 67.0117C31.1394 66.2572 31.7567 65.6399 32.5112 65.6399H54.4597C55.2142 65.6399 55.8315 66.2572 55.8315 67.0117C55.8315 67.7662 55.2142 68.3835 54.4597 68.3835ZM51.7162 74.0078H35.9407C35.1862 74.0078 34.5689 73.3905 34.5689 72.636C34.5689 71.8815 35.1862 71.2642 35.9407 71.2642H51.7162C52.4707 71.2642 53.088 71.8815 53.088 72.636C53.088 73.3905 52.4707 74.0078 51.7162 74.0078ZM51.7162 79.0148H35.9407C35.1862 79.0148 34.5689 78.3975 34.5689 77.643C34.5689 76.8885 35.1862 76.2712 35.9407 76.2712H51.7162C52.4707 76.2712 53.088 76.8885 53.088 77.643C53.088 78.3975 52.4707 79.0148 51.7162 79.0148Z" fill="black"/>
<path d="M41.1536 68.3835C40.3991 68.3835 39.7818 67.7662 39.7818 67.0117C39.7818 66.8745 39.576 54.597 39.576 49.0413H39.2331C37.5183 49.0413 36.2837 48.5612 35.4607 47.6695C34.7062 46.915 34.3632 45.8176 34.4318 44.5144C34.5004 43.417 35.0491 40.9478 38.7529 40.9478C39.8504 40.9478 40.742 41.2221 41.2907 41.8394C42.3196 42.8683 42.3196 44.3772 42.251 46.1606V46.2291H44.9946V45.2689C44.9946 42.5253 46.5721 41.0164 49.3843 41.0164C50.5503 41.0164 51.5105 41.4965 52.1964 42.3196C52.7451 43.0055 53.0881 43.9657 53.0881 44.926C53.0881 46.9836 51.7163 49.1099 49.2471 49.1099H47.7381V67.0117C47.7381 67.7662 47.1208 68.3835 46.3663 68.3835C45.6119 68.3835 44.9946 67.7662 44.9946 67.0117V49.1099H42.251C42.3196 54.597 42.4568 66.8745 42.4568 67.0117C42.5253 67.7662 41.9766 68.3835 41.1536 68.3835ZM47.8067 46.3663H49.3157C50.2073 46.3663 50.4131 45.3375 50.4131 44.926C50.4131 44.583 50.3445 44.2401 50.1388 44.0343C50.0702 43.8971 49.8644 43.7599 49.4529 43.7599C48.0125 43.7599 47.8067 44.1029 47.8067 45.2689V46.3663ZM38.7529 43.7599C37.244 43.7599 37.244 44.2401 37.1754 44.7888C37.1754 45.2689 37.244 45.6804 37.4497 45.8862C37.7241 46.1606 38.41 46.3663 39.2331 46.3663H39.576V46.2977C39.576 45.4061 39.576 44.1029 39.3702 43.8971C39.3017 43.8285 39.1645 43.7599 38.7529 43.7599ZM28.6017 37.4497C27.8472 37.4497 27.2299 36.8324 27.2299 36.0779C27.2299 27.5729 34.226 20.5768 42.7997 20.5768C43.5542 20.5768 44.1715 21.1941 44.1715 21.9486C44.1715 22.703 43.5542 23.3203 42.7997 23.3203C35.735 23.3203 29.9735 29.0818 29.9735 36.0779C29.9735 36.8324 29.3562 37.4497 28.6017 37.4497ZM13.1692 38.2042H8.50509C7.7506 38.2042 7.1333 37.5869 7.1333 36.8324C7.1333 36.0779 7.7506 35.4606 8.50509 35.4606H13.1692C13.9236 35.4606 14.5409 36.0779 14.5409 36.8324C14.5409 37.5869 13.9236 38.2042 13.1692 38.2042ZM79.4949 38.2042H74.8309C74.0764 38.2042 73.4591 37.5869 73.4591 36.8324C73.4591 36.0779 74.0764 35.4606 74.8309 35.4606H79.4949C80.2494 35.4606 80.8667 36.0779 80.8667 36.8324C80.8667 37.5869 80.2494 38.2042 79.4949 38.2042ZM44.0343 7.33905C43.2798 7.33905 42.6625 6.72175 42.6625 5.96726V1.37178C42.6625 0.617303 43.2798 0 44.0343 0C44.7888 0 45.4061 0.617303 45.4061 1.37178V6.03585C45.4061 6.79034 44.7888 7.33905 44.0343 7.33905Z" fill="black"/>
<path d="M20.1653 17.6274C19.8223 17.6274 19.4794 17.4903 19.205 17.2159L15.9128 13.9236C15.364 13.3749 15.364 12.5518 15.9128 12.0031C16.4615 11.4544 17.2845 11.4544 17.8333 12.0031L21.1255 15.2954C21.6743 15.8441 21.6743 16.6672 21.1255 17.2159C20.8512 17.4903 20.5082 17.6274 20.1653 17.6274Z" fill="black"/>
<path d="M67.1489 17.6274C66.8059 17.6274 66.463 17.4903 66.1886 17.2159C65.6399 16.6672 65.6399 15.8441 66.1886 15.2954L69.4809 12.0031C70.0296 11.4544 70.8527 11.4544 71.4014 12.0031C71.9501 12.5518 71.9501 13.3749 71.4014 13.9236L68.1091 17.2159C67.8348 17.4903 67.4918 17.6274 67.1489 17.6274Z" fill="black"/>
</g>
<defs>
<clipPath id="clip0_131_692">
<rect width="88" height="88" fill="white"/>
</clipPath>
</defs>
</svg>
