<svg width="48" height="48" viewBox="0 0 48 48" fill="none" xmlns="http://www.w3.org/2000/svg">
<g clip-path="url(#clip0_131_847)">
<path d="M24 43.6364C34.8449 43.6364 43.6364 34.8449 43.6364 24C43.6364 13.1551 34.8449 4.36365 24 4.36365C13.1551 4.36365 4.36365 13.1551 4.36365 24C4.36365 34.8449 13.1551 43.6364 24 43.6364Z" fill="#A5EB78"/>
<path opacity="0.1" d="M7.95437 26.6527C7.95437 15.8214 16.7865 7.04099 27.6816 7.04099C31.3128 7.04099 34.7142 8.01741 37.6364 9.71888C34.1028 6.39944 29.3362 4.36365 24.0908 4.36365C13.1958 4.36365 4.36365 13.1441 4.36365 23.9754C4.36365 31.1967 8.29018 37.5054 14.136 40.9091C10.3299 37.3338 7.95437 32.2693 7.95437 26.6527Z" fill="black"/>
<path d="M36.6915 22.0088L34.3501 8.87943L31.0192 12.2103C28.9496 10.9788 26.5412 10.2829 24 10.2829C20.5383 10.2829 17.2325 11.5761 14.6916 13.9243C12.1659 16.2586 10.6172 19.4258 10.3309 22.8427L16.6454 23.3719C16.7991 21.537 17.6326 19.8344 18.9924 18.5778C20.359 17.3147 22.1374 16.6191 24 16.6191C24.783 16.6191 25.5419 16.7431 26.257 16.9723L23.5618 19.6675L36.6915 22.0088Z" fill="white"/>
<path d="M10.3311 25.991L12.6725 39.1206L16.0033 35.7898C18.0729 37.0213 20.4813 37.7172 23.0226 37.7172C26.4842 37.7172 29.79 36.4239 32.3309 34.0758C34.8566 31.7415 36.4053 28.5742 36.6916 25.1573L30.3771 24.6282C30.2234 26.4631 29.39 28.1657 28.0301 29.4223C26.6635 30.6854 24.8851 31.3809 23.0226 31.3809C22.2396 31.3809 21.4806 31.2569 20.7655 31.0278L23.4607 28.3325L10.3311 25.991Z" fill="white"/>
<path d="M24 48C17.5894 48 11.5625 45.5035 7.02947 40.9705C2.49647 36.4375 0 30.4106 0 24C0 16.968 3.07078 10.3131 8.42494 5.74144C8.75756 5.45747 9.25753 5.49675 9.54159 5.82938C9.82566 6.162 9.78619 6.66197 9.45366 6.94603C4.45247 11.2164 1.58409 17.4322 1.58409 24C1.58409 36.3601 11.6398 46.4159 24 46.4159C29.1973 46.4159 34.2627 44.5966 38.2633 41.2933C38.6005 41.0147 39.0998 41.0624 39.3785 41.3997C39.657 41.737 39.6093 42.2363 39.2721 42.5149C34.9883 46.052 29.5646 48 24 48Z" fill="black"/>
<path d="M41.0681 40.5154C40.8762 40.5154 40.6838 40.4461 40.5315 40.3057C40.2098 40.0092 40.1894 39.5082 40.4858 39.1866C44.3098 35.0376 46.4157 29.6443 46.4157 24.0001C46.4159 11.6399 36.3601 1.58409 24 1.58409C19.7099 1.58409 15.5407 2.79984 11.9431 5.09981C11.5747 5.33541 11.0848 5.22769 10.8492 4.85916C10.6136 4.49062 10.7213 4.00087 11.0898 3.76528C14.9427 1.30191 19.407 0 24 0C30.4106 0 36.4375 2.49647 40.9705 7.02947C45.5035 11.5625 48 17.5894 48 24C48 30.0432 45.745 35.8177 41.6507 40.2601C41.4946 40.4295 41.2816 40.5154 41.0681 40.5154Z" fill="black"/>
<path d="M16.6462 24.1639C16.624 24.1639 16.6018 24.1629 16.5793 24.1611L10.2648 23.6319C9.82888 23.5954 9.50507 23.2125 9.54163 22.7765C9.84454 19.1618 11.4825 15.8113 14.1539 13.3424C16.8417 10.8584 20.3384 9.4905 23.9999 9.4905C26.4079 9.4905 28.7752 10.0882 30.8849 11.224L33.7898 8.31919C33.9985 8.11059 34.3056 8.03531 34.5873 8.12362C34.8689 8.21212 35.0778 8.44978 35.1296 8.74012L37.471 21.8697C37.5165 22.1246 37.4344 22.3857 37.2513 22.5688C37.0683 22.7519 36.8072 22.8342 36.5522 22.7885L23.4226 20.4471C23.1322 20.3953 22.8946 20.1863 22.8061 19.9048C22.7177 19.6233 22.793 19.316 23.0017 19.1073L24.6644 17.4446C24.4439 17.4223 24.2221 17.4112 23.9999 17.4112C22.3371 17.4112 20.7495 18.0321 19.5298 19.1594C18.3158 20.2813 17.5717 21.8007 17.4345 23.4379C17.3999 23.8514 17.0536 24.1639 16.6462 24.1639ZM11.2106 22.1215L15.9606 22.5196C16.2768 20.7902 17.1454 19.2062 18.4548 17.9961C19.9682 16.5974 21.9375 15.8271 24 15.8271C24.8484 15.8271 25.689 15.9585 26.4988 16.2179C26.7617 16.3022 26.9619 16.5173 27.0269 16.7857C27.092 17.054 27.0125 17.3369 26.8172 17.5322L25.1954 19.154L35.7124 21.0294L33.8369 10.5126L31.5794 12.7701C31.3232 13.0264 30.9258 13.076 30.6142 12.8906C28.6177 11.7025 26.3306 11.0746 24.0001 11.0746C20.7385 11.0746 17.6235 12.2931 15.2294 14.5057C13.0445 16.5251 11.6356 19.2053 11.2106 22.1215Z" fill="black"/>
<path d="M12.6723 39.9127C12.593 39.9127 12.5129 39.9008 12.4349 39.8762C12.1534 39.7877 11.9444 39.55 11.8926 39.2597L9.55129 26.1301C9.50573 25.8752 9.58785 25.6141 9.77095 25.431C9.95395 25.2479 10.2149 25.1655 10.47 25.2113L23.5996 27.5528C23.8901 27.6045 24.1276 27.8135 24.2161 28.095C24.3045 28.3765 24.2293 28.6838 24.0206 28.8925L22.3579 30.5552C22.5783 30.5775 22.8001 30.5887 23.0224 30.5887C24.6852 30.5887 26.2727 29.9678 27.4925 28.8404C28.7065 27.7185 29.4506 26.1991 29.5877 24.5619C29.6243 24.1261 30.0074 23.8025 30.4432 23.8388L36.7576 24.368C37.1936 24.4045 37.5174 24.7874 37.4808 25.2234C37.1779 28.8382 35.54 32.1886 32.8685 34.6575C30.1808 37.1415 26.684 38.5094 23.0226 38.5094C20.6145 38.5094 18.2473 37.9118 16.1375 36.7759L13.2327 39.6807C13.0816 39.8316 12.8793 39.9127 12.6723 39.9127ZM11.3102 26.9702L13.1857 37.4872L15.4432 35.2297C15.6994 34.9733 16.0968 34.9239 16.4084 35.1091C18.4049 36.2972 20.692 36.9251 23.0225 36.9251C26.2842 36.9251 29.3991 35.7067 31.7932 33.4941C33.978 31.475 35.3868 28.7947 35.8119 25.8784L31.0619 25.4803C30.7456 27.2097 29.877 28.7937 28.5676 30.0038C27.0543 31.4025 25.0849 32.1728 23.0224 32.1728C22.1741 32.1728 21.3334 32.0414 20.5237 31.782C20.2607 31.6977 20.0606 31.4826 19.9955 31.2143C19.9304 30.9459 20.0099 30.663 20.2052 30.4677L21.827 28.8459L11.3102 26.9702Z" fill="black"/>
</g>
<defs>
<clipPath id="clip0_131_847">
<rect width="48" height="48" fill="white"/>
</clipPath>
</defs>
</svg>
